<svg width="61" height="40" viewBox="0 0 61 40" fill="none" xmlns="http://www.w3.org/2000/svg">
<circle cx="44" cy="20" r="17" fill="#A1D214"/>
<path d="M29.5425 33.62L27.7175 37.2169L28.8319 37.7831L30.5119 34.4706L37.625 33.3537C37.7062 33.341 37.784 33.3123 37.8541 33.2694C37.9242 33.2265 37.9851 33.1702 38.0334 33.1038C38.0817 33.0373 38.1164 32.9619 38.1356 32.882C38.1547 32.8022 38.1579 32.7193 38.145 32.6381L37.0138 25.5281L38.3513 24.1925L37.4682 23.3075L35.9057 24.87C35.8357 24.9398 35.7834 25.0252 35.7528 25.1192C35.7223 25.2132 35.7145 25.313 35.73 25.4106L36.8125 32.2162L30 33.2856C29.9028 33.3014 29.8107 33.3399 29.7312 33.398C29.6517 33.4561 29.5871 33.5322 29.5425 33.62Z" fill="#333333"/>
<path d="M3.72568 11.1519L3.18756 7.78379L10.0001 6.71442C10.0977 6.69903 10.1903 6.6607 10.2703 6.60258C10.3503 6.54445 10.4153 6.46818 10.4601 6.38004L12.6001 2.15817L11.4851 1.59192L9.48506 5.52942L2.37506 6.64629C2.2939 6.65907 2.21605 6.68773 2.14598 6.73063C2.0759 6.77352 2.01497 6.82982 1.96668 6.89628C1.91838 6.96275 1.88366 7.03809 1.86451 7.11799C1.84536 7.19788 1.84214 7.28077 1.85506 7.36191L2.48881 11.3482L3.72568 11.1519Z" fill="#333333"/>
<path d="M2.68848 12.6041L3.92299 12.408L4.12161 13.6579L2.8871 13.8541L2.68848 12.6041Z" fill="#333333"/>
<path d="M34.3431 15.3393L35.2806 9.44309C35.2936 9.3619 35.2903 9.27897 35.2711 9.19903C35.2519 9.1191 35.2172 9.04374 35.1688 8.97726C35.1204 8.91079 35.0594 8.85451 34.9893 8.81164C34.9191 8.76878 34.8412 8.74017 34.76 8.72746L28.8613 7.80059L26.1594 2.47497C26.1223 2.40149 26.0711 2.33607 26.0087 2.28244C25.9463 2.22881 25.8739 2.18804 25.7956 2.16247C25.6374 2.11191 25.4657 2.1256 25.3175 2.20059L20 4.92246L14.6825 2.20122C14.6093 2.16378 14.5294 2.14117 14.4474 2.13467C14.3654 2.12817 14.283 2.13792 14.2048 2.16335C14.1266 2.18878 14.0541 2.22939 13.9916 2.28287C13.9292 2.33634 13.8778 2.40162 13.8406 2.47497L11.1388 7.79996L5.23939 8.72684C5.15823 8.73962 5.08039 8.76828 5.01031 8.81118C4.94024 8.85407 4.87931 8.91036 4.83101 8.97683C4.78272 9.0433 4.748 9.11864 4.72884 9.19853C4.70969 9.27843 4.70648 9.36132 4.71939 9.44246L5.65689 15.3387L1.43252 19.5575C1.37431 19.6155 1.32814 19.6845 1.29663 19.7604C1.26512 19.8363 1.2489 19.9177 1.2489 20C1.2489 20.0822 1.26512 20.1636 1.29663 20.2395C1.32814 20.3154 1.37431 20.3844 1.43252 20.4425L5.65627 24.6606L4.71877 30.5568C4.70586 30.638 4.7091 30.721 4.72829 30.8009C4.74748 30.8808 4.78225 30.9562 4.83061 31.0227C4.87897 31.0891 4.93997 31.1454 5.01012 31.1883C5.08026 31.2311 5.15818 31.2597 5.23939 31.2725L11.1381 32.1993L13.8406 37.525C13.8777 37.5984 13.9289 37.6639 13.9914 37.7175C14.0538 37.7711 14.1262 37.8119 14.2044 37.8375C14.2668 37.8573 14.332 37.8674 14.3975 37.8675C14.4965 37.8674 14.5942 37.8441 14.6825 37.7993L20 35.0775L25.3175 37.7987C25.3907 37.8361 25.4706 37.8588 25.5526 37.8652C25.6346 37.8717 25.7171 37.862 25.7953 37.8366C25.8735 37.8111 25.9459 37.7705 26.0084 37.717C26.0709 37.6636 26.1222 37.5983 26.1594 37.525L28.8613 32.2L34.7606 31.2731C34.8418 31.2603 34.9197 31.2316 34.9897 31.1887C35.0598 31.1458 35.1207 31.0896 35.169 31.0231C35.2173 30.9566 35.252 30.8813 35.2712 30.8014C35.2903 30.7215 35.2936 30.6386 35.2806 30.5575L34.3431 24.6612L38.5675 20.4425C38.6257 20.3844 38.6719 20.3154 38.7034 20.2395C38.7349 20.1636 38.7511 20.0822 38.7511 20C38.7511 19.9177 38.7349 19.8363 38.7034 19.7604C38.6719 19.6845 38.6257 19.6155 38.5675 19.5575L34.3431 15.3393ZM33.2338 24C33.1638 24.0698 33.1115 24.1552 33.0809 24.2491C33.0504 24.3431 33.0426 24.443 33.0581 24.5406L33.9475 30.1331L28.3513 31.0125C28.2536 31.0278 28.161 31.0662 28.081 31.1243C28.0011 31.1824 27.936 31.2587 27.8913 31.3468L25.3288 36.3981L20.285 33.8168C20.1968 33.7716 20.0991 33.7481 20 33.7481C19.9009 33.7481 19.8032 33.7716 19.715 33.8168L14.6713 36.3981L12.1088 31.3468C12.0639 31.2586 11.9988 31.1823 11.9187 31.1242C11.8386 31.066 11.7459 31.0277 11.6481 31.0125L6.05189 30.135L6.94189 24.5425C6.95744 24.4449 6.94963 24.345 6.9191 24.251C6.88857 24.157 6.83619 24.0716 6.76627 24.0018L2.75939 20L6.76627 16C6.83619 15.9301 6.88857 15.8447 6.9191 15.7508C6.94963 15.6568 6.95744 15.5569 6.94189 15.4593L6.05252 9.86496L11.6488 8.98559C11.7464 8.97021 11.839 8.93188 11.919 8.87375C11.999 8.81562 12.064 8.73936 12.1088 8.65121L14.6713 3.59996L19.715 6.18121C19.8032 6.22641 19.9009 6.24998 20 6.24998C20.0991 6.24998 20.1968 6.22641 20.285 6.18121L25.3288 3.59996L27.8913 8.65121C27.9361 8.73943 28.0012 8.81575 28.0813 8.87388C28.1614 8.93201 28.2541 8.9703 28.3519 8.98559L33.9481 9.86496L33.0581 15.4575C33.0426 15.555 33.0504 15.6549 33.0809 15.7489C33.1115 15.8429 33.1638 15.9283 33.2338 15.9981L37.2406 20L33.2338 24Z" fill="#333333"/>
<path d="M11.875 22.5H13.125V23.75H11.875V22.5Z" fill="#333333"/>
<path d="M28.125 15H22.5V11.875C22.499 11.0465 22.1694 10.2522 21.5836 9.66639C20.9978 9.08055 20.2035 8.75099 19.375 8.75C19.2357 8.75 19.1003 8.79656 18.9905 8.88228C18.8807 8.96801 18.8026 9.08797 18.7688 9.22312L17.25 15.3031C17.1824 15.5738 17.0261 15.814 16.8062 15.9856C16.5862 16.1572 16.3152 16.2502 16.0363 16.25H15.625V15.625C15.625 15.4592 15.5592 15.3003 15.4419 15.1831C15.3247 15.0658 15.1658 15 15 15H10C9.83424 15 9.67527 15.0658 9.55806 15.1831C9.44085 15.3003 9.375 15.4592 9.375 15.625V25.625C9.375 25.7908 9.44085 25.9497 9.55806 26.0669C9.67527 26.1842 9.83424 26.25 10 26.25H15C15.1658 26.25 15.3247 26.1842 15.4419 26.0669C15.5592 25.9497 15.625 25.7908 15.625 25.625V25H17.3544C19.0509 25.8204 20.9105 26.2477 22.795 26.25H25.625C26.1223 26.25 26.5992 26.0525 26.9508 25.7008C27.3025 25.3492 27.5 24.8723 27.5 24.375C27.4982 24.052 27.412 23.7351 27.25 23.4556C27.622 23.224 27.9001 22.8683 28.0352 22.4514C28.1703 22.0345 28.1536 21.5833 27.9881 21.1775C28.2648 21.106 28.5211 20.9714 28.737 20.7843C28.9529 20.5972 29.1226 20.3626 29.2327 20.099C29.3429 19.8353 29.3904 19.5498 29.3718 19.2647C29.3531 18.9796 29.2686 18.7026 29.125 18.4556C29.469 18.2394 29.7333 17.9172 29.878 17.5375C30.0226 17.1578 30.0398 16.7414 29.9269 16.3511C29.8139 15.9608 29.577 15.6179 29.2519 15.3741C28.9269 15.1304 28.5313 14.9991 28.125 15ZM14.375 25H10.625V16.25H14.375V25ZM27.5 20H24.375V21.25H26.25C26.4158 21.25 26.5747 21.3158 26.6919 21.4331C26.8092 21.5503 26.875 21.7092 26.875 21.875C26.875 22.0408 26.8092 22.1997 26.6919 22.3169C26.5747 22.4342 26.4158 22.5 26.25 22.5H23.75V23.75H25.625C25.7908 23.75 25.9497 23.8158 26.0669 23.9331C26.1842 24.0503 26.25 24.2092 26.25 24.375C26.25 24.5408 26.1842 24.6997 26.0669 24.8169C25.9497 24.9342 25.7908 25 25.625 25H22.795C21.0538 24.9971 19.337 24.5907 17.7794 23.8125C17.6923 23.7703 17.5967 23.7489 17.5 23.75H15.625V17.5H16.0363C16.5938 17.5001 17.1355 17.3137 17.575 16.9706C18.0145 16.6274 18.3267 16.1472 18.4619 15.6062L19.8481 10.0625C20.2493 10.1671 20.6045 10.4017 20.8581 10.7297C21.1118 11.0576 21.2496 11.4604 21.25 11.875V15.625C21.25 15.7908 21.3158 15.9497 21.4331 16.0669C21.5503 16.1842 21.7092 16.25 21.875 16.25H28.125C28.2908 16.25 28.4497 16.3158 28.5669 16.4331C28.6842 16.5503 28.75 16.7092 28.75 16.875C28.75 17.0408 28.6842 17.1997 28.5669 17.3169C28.4497 17.4342 28.2908 17.5 28.125 17.5H25V18.75H27.5C27.6658 18.75 27.8247 18.8158 27.9419 18.9331C28.0592 19.0503 28.125 19.2092 28.125 19.375C28.125 19.5408 28.0592 19.6997 27.9419 19.8169C27.8247 19.9342 27.6658 20 27.5 20Z" fill="#333333"/>
<path d="M17.5 28.125H22.5V29.375H17.5V28.125Z" fill="#333333"/>
<path d="M15.625 30.625H24.375V31.875H15.625V30.625Z" fill="#333333"/>
</svg>
