<svg width="57" height="43" viewBox="0 0 57 43" fill="none" xmlns="http://www.w3.org/2000/svg">
<circle cx="40" cy="26" r="17" fill="#A1D214"/>
<path d="M33.5944 30.0681C33.278 29.9376 32.9359 29.8814 32.5944 29.9037L31.8644 25.5225C31.8402 25.3769 31.7652 25.2445 31.6527 25.1489C31.5403 25.0533 31.3976 25.0005 31.25 25H28.4375L27.5 23.75H33.125C33.5692 23.7511 33.9993 23.5941 34.3382 23.307C34.6772 23.0199 34.9029 22.6216 34.9749 22.1833C35.047 21.745 34.9606 21.2953 34.7314 20.9149C34.5021 20.5344 34.1449 20.248 33.7238 20.1069C33.6034 17.5442 32.6107 15.0996 30.9104 13.1785C29.21 11.2574 26.9041 9.97512 24.375 9.54437V8.75C24.3722 8.25358 24.1738 7.77829 23.8227 7.42726C23.4717 7.07623 22.9964 6.87779 22.5 6.875C22.0027 6.875 21.5258 7.07254 21.1742 7.42417C20.8225 7.77581 20.625 8.25272 20.625 8.75V9.54437C18.0959 9.97512 15.79 11.2574 14.0896 13.1785C12.3893 15.0996 11.3966 17.5442 11.2762 20.1069C10.8551 20.248 10.4979 20.5344 10.2686 20.9149C10.0394 21.2953 9.95303 21.745 10.0251 22.1833C10.0971 22.6216 10.3228 23.0199 10.6618 23.307C11.0007 23.5941 11.4308 23.7511 11.875 23.75H17.5L16.5625 25H13.75C13.6021 25.0001 13.4589 25.0526 13.3461 25.1483C13.2333 25.244 13.158 25.3766 13.1337 25.5225L12.8038 27.5H11.25C11.25 27.3342 11.1842 27.1753 11.0669 27.0581C10.9497 26.9408 10.7908 26.875 10.625 26.875H1.875V28.125H10V35.625H1.875V36.875H10.625C10.7908 36.875 10.9497 36.8091 11.0669 36.6919C11.1842 36.5747 11.25 36.4158 11.25 36.25V36.0119L15.9163 37.9494C18.4602 38.9874 21.3038 39.0187 23.87 38.0369L33.5244 34.3556C33.8076 34.2481 34.0664 34.0851 34.2857 33.8761C34.505 33.6671 34.6803 33.4164 34.8013 33.1387C34.9267 32.8572 34.9945 32.5534 35.0009 32.2453C35.0072 31.9371 34.9519 31.6308 34.8381 31.3444C34.7272 31.059 34.56 30.7988 34.3463 30.5795C34.1326 30.3603 33.8768 30.1863 33.5944 30.0681ZM21.875 8.75C21.875 8.58424 21.9408 8.42527 22.0581 8.30806C22.1753 8.19085 22.3342 8.125 22.5 8.125C22.5833 8.12488 22.6657 8.14178 22.7423 8.17467C22.8188 8.20755 22.8878 8.25573 22.945 8.31625C23.0027 8.37266 23.0484 8.44018 23.0793 8.51472C23.1103 8.58926 23.1258 8.6693 23.125 8.75V9.40687C22.9169 9.395 22.7113 9.375 22.5 9.375C22.2887 9.375 22.0831 9.395 21.875 9.40687V8.75ZM22.5 10.625C25.0415 10.6292 27.4862 11.6005 29.3376 13.3417C31.189 15.0829 32.3082 17.4635 32.4681 20H12.5306C12.6905 17.4633 13.81 15.0825 15.6616 13.3413C17.5133 11.6 19.9582 10.6289 22.5 10.625ZM11.25 21.875C11.25 21.7092 11.3158 21.5503 11.4331 21.4331C11.5503 21.3158 11.7092 21.25 11.875 21.25H33.125C33.2908 21.25 33.4497 21.3158 33.5669 21.4331C33.6842 21.5503 33.75 21.7092 33.75 21.875C33.75 22.0408 33.6842 22.1997 33.5669 22.3169C33.4497 22.4342 33.2908 22.5 33.125 22.5H11.875C11.7092 22.5 11.5503 22.4342 11.4331 22.3169C11.3158 22.1997 11.25 22.0408 11.25 21.875ZM19.0625 23.75H25.9375L26.875 25H18.125L19.0625 23.75ZM30.7206 26.25L31.3894 30.2637L27.7894 31.7919C27.8012 31.7159 27.8089 31.6393 27.8125 31.5625C27.8125 30.9823 27.582 30.4259 27.1718 30.0157C26.7616 29.6055 26.2052 29.375 25.625 29.375H20.7769C20.2867 29.3742 19.8033 29.2602 19.3644 29.0419C17.7064 28.2177 15.9075 27.7145 14.0625 27.5587L14.2794 26.25H30.7206ZM33.6581 32.6344C33.6036 32.7606 33.5244 32.8746 33.4251 32.9697C33.3258 33.0648 33.2084 33.1391 33.08 33.1881L23.425 36.8694C21.1563 37.7382 18.6419 37.7109 16.3925 36.7931L11.25 34.6575V28.75H12.8344C14.907 28.7526 16.9508 29.2352 18.8056 30.16C19.418 30.4651 20.0927 30.6243 20.7769 30.625H25.625C25.8547 30.6263 26.0758 30.7119 26.2466 30.8655C26.4173 31.0191 26.5257 31.2301 26.5513 31.4583C26.5768 31.6866 26.5176 31.9163 26.385 32.1038C26.2524 32.2913 26.0556 32.4236 25.8319 32.4756C25.75 32.4831 25.6694 32.5 25.5863 32.5H18.125V33.75H25.5863H25.625C25.6375 33.75 25.6494 33.7462 25.6625 33.7462C26.1585 33.7381 26.6482 33.6346 27.105 33.4412L32.33 31.2225C32.4533 31.1696 32.5861 31.1424 32.7203 31.1424C32.8545 31.1424 32.9873 31.1696 33.1106 31.2225C33.2388 31.2766 33.3546 31.356 33.4513 31.456C33.548 31.556 33.6234 31.6745 33.6731 31.8044C33.726 31.9368 33.7519 32.0784 33.7492 32.221C33.7465 32.3635 33.7153 32.5041 33.6575 32.6344H33.6581Z" fill="#333333"/>
<path d="M7.5 33.125H8.75V34.375H7.5V33.125Z" fill="#333333"/>
<path d="M15.577 17.7356C16.1455 16.3685 17.1067 15.2007 18.339 14.38C19.5714 13.5593 21.0195 13.1225 22.5001 13.125V11.875C20.7728 11.8722 19.0836 12.3816 17.6459 13.3389C16.2082 14.2962 15.0867 15.6584 14.4232 17.2531L15.577 17.7356Z" fill="#333333"/>
<path d="M21.875 3.125H23.125V5.625H21.875V3.125Z" fill="#333333"/>
<path d="M16.875 8.125H19.375V9.375H16.875V8.125Z" fill="#333333"/>
<path d="M25.625 8.125H28.125V9.375H25.625V8.125Z" fill="#333333"/>
<path d="M24.0376 6.32776L25.8054 4.55999L26.6892 5.44387L24.9215 7.21164L24.0376 6.32776Z" fill="#333333"/>
<path d="M18.3065 5.44495L19.1904 4.56106L20.9582 6.32883L20.0743 7.21271L18.3065 5.44495Z" fill="#333333"/>
</svg>
