<svg width="62" height="40" viewBox="0 0 62 40" fill="none" xmlns="http://www.w3.org/2000/svg">
<circle cx="45" cy="22" r="17" fill="#A1D214"/>
<path d="M5 34.375V10H35V21.875H36.25V5.625C36.25 5.12772 36.0525 4.65081 35.7008 4.29917C35.3492 3.94754 34.8723 3.75 34.375 3.75H5.625C5.12772 3.75 4.65081 3.94754 4.29917 4.29917C3.94754 4.65081 3.75 5.12772 3.75 5.625V34.375C3.75 34.8723 3.94754 35.3492 4.29917 35.7008C4.65081 36.0525 5.12772 36.25 5.625 36.25H26.25V35H5.625C5.45924 35 5.30027 34.9342 5.18306 34.8169C5.06585 34.6997 5 34.5408 5 34.375ZM5.625 5H34.375C34.5408 5 34.6997 5.06585 34.8169 5.18306C34.9342 5.30027 35 5.45924 35 5.625V8.75H5V5.625C5 5.45924 5.06585 5.30027 5.18306 5.18306C5.30027 5.06585 5.45924 5 5.625 5Z" fill="#333333"/>
<path d="M6.25 6.25H7.5V7.5H6.25V6.25Z" fill="#333333"/>
<path d="M8.75 6.25H10V7.5H8.75V6.25Z" fill="#333333"/>
<path d="M11.25 6.25H12.5V7.5H11.25V6.25Z" fill="#333333"/>
<path d="M1.25 19.375H2.5V31.875H1.25V19.375Z" fill="#333333"/>
<path d="M14.375 20V15H16.875V13.75H10.625V15H13.125V20H14.375Z" fill="#333333"/>
<path d="M20 12.5H18.75V16.25H16.25C16.0842 16.25 15.9253 16.3158 15.8081 16.4331C15.6908 16.5503 15.625 16.7092 15.625 16.875V20H16.875V17.5H18.75V20H20V12.5Z" fill="#333333"/>
<path d="M11.875 20V16.875C11.875 16.7092 11.8092 16.5503 11.6919 16.4331C11.5747 16.3158 11.4158 16.25 11.25 16.25H8.75V12.5H7.5V20H8.75V17.5H10.625V20H11.875Z" fill="#333333"/>
<path d="M35.625 23.125C35.302 23.1268 34.9851 23.213 34.7056 23.375C34.474 23.003 34.1182 22.7249 33.7014 22.5898C33.2845 22.4547 32.8333 22.4714 32.4275 22.6369C32.3635 22.3865 32.2475 22.1524 32.0872 21.9498C31.9269 21.7471 31.7258 21.5804 31.4969 21.4605C31.268 21.3406 31.0165 21.2701 30.7586 21.2536C30.5007 21.2372 30.2422 21.2751 30 21.365V20C30 19.5027 29.8024 19.0258 29.4508 18.6742C29.0992 18.3225 28.6222 18.125 28.125 18.125C27.6277 18.125 27.1508 18.3225 26.7991 18.6742C26.4475 19.0258 26.25 19.5027 26.25 20V25.8637L25.5931 26.1919C25.0707 26.4532 24.6261 26.8471 24.3038 27.3342C23.9814 27.8213 23.7927 28.3845 23.7564 28.9675C23.7202 29.5505 23.8377 30.1328 24.0971 30.6561C24.3566 31.1794 24.749 31.6254 25.235 31.9494L26.9431 33.0881C27.1144 33.2022 27.2548 33.3569 27.3519 33.5383C27.4491 33.7197 27.4999 33.9223 27.5 34.1281V38.75H28.75V34.125C28.7503 33.7134 28.6489 33.3081 28.4547 32.9452C28.2605 32.5823 27.9795 32.273 27.6368 32.045L25.9281 30.9062C25.6243 30.7036 25.3791 30.4248 25.2169 30.0976C25.0547 29.7704 24.9814 29.4064 25.0041 29.042C25.0268 28.6775 25.1448 28.3254 25.3464 28.0209C25.5479 27.7164 25.8259 27.4702 26.1525 27.3069L26.25 27.2612V28.75H27.5V20C27.5 19.8342 27.5658 19.6753 27.683 19.5581C27.8002 19.4408 27.9592 19.375 28.125 19.375C28.2907 19.375 28.4497 19.4408 28.5669 19.5581C28.6841 19.6753 28.75 19.8342 28.75 20V25.625H30V23.125C30 22.9592 30.0658 22.8003 30.183 22.6831C30.3002 22.5658 30.4592 22.5 30.625 22.5C30.7907 22.5 30.9497 22.5658 31.0669 22.6831C31.1841 22.8003 31.25 22.9592 31.25 23.125V26.25H32.5V24.375C32.5 24.2092 32.5658 24.0503 32.683 23.9331C32.8002 23.8158 32.9592 23.75 33.125 23.75C33.2907 23.75 33.4497 23.8158 33.5669 23.9331C33.6841 24.0503 33.75 24.2092 33.75 24.375V26.875H35V25C35 24.8342 35.0658 24.6753 35.183 24.5581C35.3002 24.4408 35.4592 24.375 35.625 24.375C35.7907 24.375 35.9497 24.4408 36.0669 24.5581C36.1841 24.6753 36.25 24.8342 36.25 25V27.83C36.2469 29.5712 35.8405 31.2879 35.0625 32.8456C35.0203 32.9327 34.9989 33.0283 35 33.125V38.75H36.25V33.27C37.0701 31.5745 37.4973 29.7159 37.5 27.8325V25C37.5 24.5027 37.3024 24.0258 36.9508 23.6742C36.5992 23.3225 36.1223 23.125 35.625 23.125Z" fill="#333333"/>
<path d="M28.125 16.875C28.9535 16.876 29.7478 17.2055 30.3336 17.7914C30.9195 18.3772 31.249 19.1715 31.25 20H32.5C32.4999 19.329 32.3454 18.667 32.0485 18.0653C31.7517 17.4635 31.3204 16.9381 30.788 16.5297C30.2556 16.1213 29.6365 15.8408 28.9784 15.7099C28.3203 15.579 27.6409 15.6013 26.9927 15.7749C26.3446 15.9486 25.7451 16.269 25.2406 16.7114C24.7361 17.1537 24.3401 17.7062 24.0832 18.3261C23.8264 18.946 23.7156 19.6166 23.7593 20.2862C23.8031 20.9558 24.0003 21.6063 24.3356 22.1875L25.4175 21.5625C25.1432 21.0873 24.9988 20.5483 24.9988 19.9997C24.9989 19.451 25.1434 18.9121 25.4178 18.437C25.6922 17.9619 26.0869 17.5674 26.5621 17.2932C27.0373 17.019 27.5764 16.8748 28.125 16.875Z" fill="#333333"/>
<path d="M10.625 23.125C10.625 22.9592 10.5592 22.8003 10.4419 22.6831C10.3247 22.5658 10.1658 22.5 10 22.5H7.5C7.33424 22.5 7.17527 22.5658 7.05806 22.6831C6.94085 22.8003 6.875 22.9592 6.875 23.125V25.625C6.875 25.7908 6.94085 25.9497 7.05806 26.0669C7.17527 26.1842 7.33424 26.25 7.5 26.25H10C10.1658 26.25 10.3247 26.1842 10.4419 26.0669C10.5592 25.9497 10.625 25.7908 10.625 25.625V23.125ZM9.375 25H8.125V23.75H9.375V25Z" fill="#333333"/>
<path d="M11.875 22.5H13.125V23.75H11.875V22.5Z" fill="#333333"/>
<path d="M14.375 22.5H20V23.75H14.375V22.5Z" fill="#333333"/>
<path d="M11.875 25H13.125V26.25H11.875V25Z" fill="#333333"/>
<path d="M14.375 25H20V26.25H14.375V25Z" fill="#333333"/>
<path d="M10 28.125H7.5C7.33424 28.125 7.17527 28.1908 7.05806 28.3081C6.94085 28.4253 6.875 28.5842 6.875 28.75V31.25C6.875 31.4158 6.94085 31.5747 7.05806 31.6919C7.17527 31.8092 7.33424 31.875 7.5 31.875H10C10.1658 31.875 10.3247 31.8092 10.4419 31.6919C10.5592 31.5747 10.625 31.4158 10.625 31.25V28.75C10.625 28.5842 10.5592 28.4253 10.4419 28.3081C10.3247 28.1908 10.1658 28.125 10 28.125ZM9.375 30.625H8.125V29.375H9.375V30.625Z" fill="#333333"/>
<path d="M11.875 28.125H13.125V29.375H11.875V28.125Z" fill="#333333"/>
<path d="M14.375 28.125H20V29.375H14.375V28.125Z" fill="#333333"/>
<path d="M11.875 30.625H13.125V31.875H11.875V30.625Z" fill="#333333"/>
<path d="M14.375 30.625H20V31.875H14.375V30.625Z" fill="#333333"/>
<path d="M37.5 5.625H38.75V15.625H37.5V5.625Z" fill="#333333"/>
</svg>
