<svg width="56" height="40" viewBox="0 0 56 40" fill="none" xmlns="http://www.w3.org/2000/svg">
<circle cx="39" cy="22" r="17" fill="#A1D214"/>
<g clip-path="url(#clip0_7526_4)">
<path d="M36.805 26.6357C35.9004 27.2657 34.8609 27.6753 33.7696 27.8316C32.6784 27.9879 31.5657 27.8865 30.5206 27.5357C30.4259 27.5019 30.3245 27.4915 30.225 27.5054C30.1254 27.5192 30.0306 27.5568 29.9487 27.615L27.1362 29.6094L27.86 30.6288L30.4119 28.8163C31.6046 29.1647 32.8599 29.2426 34.0866 29.0444C35.3132 28.8463 36.4802 28.3769 37.5025 27.6707C37.8708 27.4218 38.2199 27.1456 38.5469 26.8444L37.6994 25.9257C37.4196 26.1846 37.1206 26.422 36.805 26.6357Z" fill="#333333"/>
<path d="M30.5112 17.3081C29.6167 17.8797 28.9001 18.6903 28.4427 19.6483C27.9853 20.6062 27.8053 21.6731 27.9231 22.7281L20 27.8069L12.0756 22.7312C12.196 21.6759 12.0169 20.608 11.5588 19.6497C11.1006 18.6914 10.3819 17.8814 9.485 17.3125C8.29437 16.4918 6.84655 16.1308 5.41 16.2962C4.73237 16.3626 4.07776 16.5777 3.49288 16.9262C2.90801 17.2748 2.4073 17.7482 2.02652 18.3126C1.64574 18.8771 1.39427 19.5186 1.29008 20.1914C1.18588 20.8643 1.23152 21.5518 1.42375 22.205C1.80882 23.5982 2.68621 24.8045 3.89312 25.6C4.75729 26.2195 5.77857 26.5828 6.83981 26.6484C7.90105 26.7139 8.95928 26.479 9.89312 25.9706L16.0437 30.3375L10.1906 34.0906C9.91396 34.2664 9.67539 34.4959 9.48906 34.7656C9.30273 35.0353 9.17242 35.3396 9.10586 35.6606C9.0393 35.9816 9.03785 36.3126 9.10157 36.6342C9.1653 36.9557 9.29292 37.2612 9.47687 37.5325C9.66011 37.8032 9.8956 38.0346 10.1695 38.213C10.4434 38.3915 10.7502 38.5134 11.0719 38.5716C11.3936 38.6299 11.7237 38.6232 12.0428 38.5521C12.3618 38.481 12.6635 38.3468 12.93 38.1575L20 33.1437L27.07 38.1612C27.3368 38.3564 27.6403 38.4957 27.9622 38.5708C28.2841 38.6459 28.6179 38.6553 28.9435 38.5983C29.2692 38.5413 29.5799 38.4192 29.8573 38.2393C30.1346 38.0593 30.3727 37.8253 30.5574 37.5511C30.7421 37.2769 30.8695 36.9683 30.9321 36.6437C30.9946 36.3191 30.991 35.9852 30.9215 35.662C30.8519 35.3388 30.7179 35.033 30.5273 34.7629C30.3367 34.4928 30.0936 34.2639 29.8125 34.09L23.9525 30.34L30.1075 25.9712C31.0412 26.4798 32.0994 26.7149 33.1606 26.6496C34.2219 26.5843 35.2432 26.2211 36.1075 25.6019C38.6762 23.8681 39.515 20.5969 37.9756 18.3094C36.4362 16.0219 33.0856 15.5744 30.5112 17.3081ZM12.2062 37.1406C11.9392 37.3204 11.6125 37.3886 11.2958 37.3308C10.9791 37.273 10.6976 37.0937 10.5112 36.8312C10.4211 36.6982 10.3585 36.5484 10.3273 36.3907C10.2961 36.233 10.2968 36.0707 10.3295 35.9133C10.3622 35.7559 10.4262 35.6067 10.5176 35.4745C10.6091 35.3423 10.7261 35.2298 10.8619 35.1437L17.1425 31.1162L18.9169 32.375L12.2062 37.1406ZM29.6687 35.9137C29.7177 36.1509 29.6942 36.3973 29.6012 36.6208C29.5082 36.8444 29.3501 37.0348 29.1474 37.1673C28.9447 37.2998 28.7069 37.3682 28.4648 37.3637C28.2227 37.3592 27.9876 37.2819 27.79 37.1419L10.2656 24.7044C10.1588 24.6286 10.0308 24.5883 9.89981 24.5892C9.76882 24.5901 9.64143 24.6321 9.53562 24.7094C8.79522 25.1926 7.92467 25.4376 7.04092 25.4116C6.15717 25.3855 5.30255 25.0897 4.59187 24.5637C3.63568 23.9365 2.93932 22.9839 2.63187 21.8825C2.48476 21.4013 2.44707 20.8934 2.52158 20.3958C2.59609 19.8982 2.78091 19.4236 3.0625 19.0067C3.3441 18.5897 3.71535 18.241 4.1491 17.9861C4.58284 17.7311 5.0681 17.5763 5.56937 17.5331C6.70565 17.4056 7.84964 17.6942 8.78937 18.3456C9.54269 18.808 10.1365 19.4897 10.4911 20.2994C10.8457 21.109 10.9441 22.0078 10.7731 22.875C10.741 23.0021 10.7497 23.1361 10.7979 23.258C10.8461 23.3799 10.9315 23.4836 11.0419 23.5544L29.1381 35.1431C29.2739 35.2293 29.3908 35.3419 29.482 35.4743C29.5732 35.6067 29.6367 35.7562 29.6687 35.9137ZM35.4062 24.5625C34.6953 25.0883 33.8405 25.384 32.9567 25.4098C32.0728 25.4356 31.2022 25.1903 30.4619 24.7069C30.3561 24.6296 30.2287 24.5876 30.0977 24.5867C29.9667 24.5858 29.8387 24.6261 29.7319 24.7019L22.8175 29.6106L21.16 28.5481L28.9562 23.5481C29.0664 23.4774 29.1516 23.374 29.1998 23.2523C29.248 23.1307 29.2568 22.9969 29.225 22.87C29.0574 22.0026 29.1576 21.1048 29.5124 20.2958C29.8672 19.4868 30.4597 18.8049 31.2112 18.3406C33.2112 16.9925 35.7825 17.29 36.9381 19.0019C38.0937 20.7137 37.4056 23.2144 35.4062 24.5625Z" fill="#333333"/>
<path d="M8.07933 2.39562L7.38746 1.35437C5.8777 2.35475 4.74547 3.83088 4.17057 5.54832C3.59567 7.26577 3.61108 9.12606 4.21433 10.8337L5.39246 10.4162C4.88235 8.97106 4.86976 7.39686 5.35668 5.94369C5.8436 4.49052 6.80211 3.24171 8.07996 2.39562H8.07933Z" fill="#333333"/>
<path d="M6.7187 12.6675C6.41776 12.3261 6.15107 11.956 5.92245 11.5625L4.84058 12.1875C5.1105 12.6527 5.42556 13.0902 5.7812 13.4937L6.7187 12.6675Z" fill="#333333"/>
<path d="M26.8625 22.6249L28.6419 13.7287C30.0886 13.6028 31.4305 12.9224 32.3869 11.8297C33.3433 10.737 33.8401 9.3168 33.7734 7.86621C33.7066 6.41562 33.0814 5.04706 32.0287 4.04687C30.9759 3.04669 29.5771 2.49238 28.125 2.49994C26.8612 2.49546 25.6337 2.92206 24.645 3.70932C24.1301 2.95164 23.4376 2.33143 22.628 1.90276C21.8183 1.4741 20.9161 1.25 20 1.25C19.0839 1.25 18.1817 1.4741 17.3721 1.90276C16.5625 2.33143 15.87 2.95164 15.355 3.70932C14.3664 2.92206 13.1388 2.49546 11.875 2.49994C10.4279 2.49981 9.03637 3.05742 7.98977 4.05685C6.94318 5.05627 6.32203 6.42062 6.25547 7.86623C6.18891 9.31184 6.68206 10.7275 7.6324 11.8189C8.58273 12.9102 9.91713 13.5934 11.3582 13.7262L13.1375 22.6249L14.3625 22.3799L14.0125 20.6249H25.9875L25.6375 22.3749L26.8625 22.6249ZM23.8457 19.3749L24.3688 15.7137L23.1313 15.5362L22.5832 19.3749H20.625V12.4999H19.375V19.3749H17.4169L16.8688 15.5362L15.6313 15.7137L16.1544 19.3749H13.7625L12.4875 12.9999C12.4587 12.8588 12.382 12.7319 12.2704 12.6408C12.1588 12.5497 12.0191 12.4999 11.875 12.4999C10.7147 12.4999 9.60192 12.039 8.78144 11.2185C7.96097 10.3981 7.50004 9.28526 7.50004 8.12494C7.50004 6.96462 7.96097 5.85182 8.78144 5.03135C9.60192 4.21088 10.7147 3.74994 11.875 3.74994C12.4706 3.74841 13.0602 3.86973 13.6068 4.10631C14.1534 4.3429 14.6454 4.68966 15.0519 5.12494C15.1214 5.1984 15.2076 5.25391 15.3033 5.28671C15.3989 5.31951 15.5011 5.32862 15.601 5.31326C15.7009 5.29789 15.7956 5.25851 15.877 5.1985C15.9584 5.13848 16.024 5.05963 16.0682 4.96869C16.4252 4.22927 16.9835 3.60551 17.679 3.16902C18.3745 2.73253 19.1789 2.50099 20 2.50099C20.8211 2.50099 21.6256 2.73253 22.3211 3.16902C23.0166 3.60551 23.5749 4.22927 23.9319 4.96869C23.9761 5.05963 24.0417 5.13848 24.1231 5.1985C24.2044 5.25851 24.2991 5.29789 24.3991 5.31326C24.499 5.32862 24.6012 5.31951 24.6968 5.28671C24.7924 5.25391 24.8787 5.1984 24.9482 5.12494C25.3547 4.68966 25.8467 4.3429 26.3933 4.10631C26.9399 3.86973 27.5294 3.74841 28.125 3.74994C29.2854 3.74994 30.3982 4.21088 31.2186 5.03135C32.0391 5.85182 32.5 6.96462 32.5 8.12494C32.5 9.28526 32.0391 10.3981 31.2186 11.2185C30.3982 12.039 29.2854 12.4999 28.125 12.4999C27.981 12.4999 27.8413 12.5497 27.7297 12.6408C27.6181 12.7319 27.5414 12.8588 27.5125 12.9999L26.2375 19.3749H23.8457Z" fill="#333333"/>
<path d="M210.592 -21.656L222.592 -97.128C222.757 -98.1672 222.716 -99.2287 222.47 -100.252C222.225 -101.275 221.779 -102.24 221.16 -103.091C220.541 -103.941 219.761 -104.662 218.863 -105.21C217.965 -105.759 216.968 -106.125 215.928 -106.288L140.424 -118.152L105.84 -186.32C105.366 -187.26 104.71 -188.098 103.911 -188.784C103.112 -189.471 102.185 -189.993 101.184 -190.32C99.1591 -190.967 96.9608 -190.792 95.064 -189.832L27 -154.992L-41.064 -189.824C-42.0013 -190.303 -43.0239 -190.593 -44.0733 -190.676C-45.1227 -190.759 -46.1782 -190.634 -47.1793 -190.309C-48.1804 -189.983 -49.1074 -189.463 -49.9072 -188.779C-50.7069 -188.094 -51.3638 -187.259 -51.84 -186.32L-86.424 -118.16L-161.936 -106.296C-162.975 -106.132 -163.971 -105.766 -164.868 -105.216C-165.765 -104.667 -166.545 -103.947 -167.163 -103.096C-167.781 -102.245 -168.226 -101.281 -168.471 -100.258C-168.716 -99.2356 -168.757 -98.1746 -168.592 -97.136L-156.592 -21.664L-210.664 32.336C-211.409 33.0791 -212 33.962 -212.403 34.9339C-212.807 35.9058 -213.014 36.9477 -213.014 38C-213.014 39.0523 -212.807 40.0942 -212.403 41.0661C-212 42.0381 -211.409 42.9209 -210.664 43.664L-156.6 97.656L-168.6 173.128C-168.765 174.167 -168.724 175.229 -168.478 176.252C-168.232 177.275 -167.787 178.24 -167.168 179.091C-166.549 179.941 -165.769 180.662 -164.871 181.211C-163.973 181.759 -162.976 182.125 -161.936 182.288L-86.432 194.152L-51.84 262.32C-51.3655 263.26 -50.7099 264.098 -49.9109 264.784C-49.1119 265.471 -48.1852 265.993 -47.184 266.32C-46.3846 266.574 -45.5508 266.704 -44.712 266.704C-43.4444 266.704 -42.1947 266.405 -41.064 265.832L27 230.992L95.064 265.824C96.0013 266.303 97.024 266.593 98.0734 266.676C99.1227 266.759 100.178 266.634 101.179 266.309C102.18 265.983 103.107 265.463 103.907 264.779C104.707 264.094 105.364 263.259 105.84 262.32L140.424 194.16L215.936 182.296C216.975 182.132 217.971 181.766 218.868 181.217C219.765 180.667 220.545 179.947 221.163 179.096C221.781 178.245 222.226 177.281 222.471 176.258C222.716 175.236 222.757 174.175 222.592 173.136L210.592 97.664L264.664 43.664C265.409 42.9209 266 42.0381 266.403 41.0661C266.807 40.0942 267.014 39.0523 267.014 38C267.014 36.9477 266.807 35.9058 266.403 34.9339C266 33.962 265.409 33.0791 264.664 32.336L210.592 -21.656ZM196.392 89.2C195.497 90.0937 194.827 91.1868 194.436 92.3897C194.045 93.5926 193.945 94.871 194.144 96.12L205.528 167.704L133.896 178.96C132.646 179.157 131.461 179.648 130.437 180.392C129.413 181.136 128.581 182.112 128.008 183.24L95.208 247.896L30.648 214.856C29.519 214.278 28.2686 213.976 27 213.976C25.7314 213.976 24.481 214.278 23.352 214.856L-41.208 247.896L-74.008 183.24C-74.5818 182.111 -75.4155 181.134 -76.4405 180.39C-77.4655 179.646 -78.6526 179.156 -79.904 178.96L-151.536 167.728L-140.144 96.144C-139.945 94.895 -140.045 93.6166 -140.436 92.4137C-140.827 91.2108 -141.497 90.1176 -142.392 89.224L-193.68 38L-142.392 -13.2C-141.497 -14.0936 -140.827 -15.1867 -140.436 -16.3896C-140.045 -17.5925 -139.945 -18.8709 -140.144 -20.12L-151.528 -91.728L-79.896 -102.984C-78.646 -103.181 -77.4606 -103.671 -76.437 -104.416C-75.4134 -105.16 -74.581 -106.136 -74.008 -107.264L-41.208 -171.92L23.352 -138.88C24.481 -138.301 25.7314 -138 27 -138C28.2686 -138 29.519 -138.301 30.648 -138.88L95.208 -171.92L128.008 -107.264C128.582 -106.135 129.415 -105.158 130.441 -104.414C131.466 -103.67 132.653 -103.18 133.904 -102.984L205.536 -91.728L194.144 -20.144C193.945 -18.8949 194.045 -17.6165 194.436 -16.4136C194.827 -15.2107 195.497 -14.1176 196.392 -13.224L247.68 38L196.392 89.2Z" fill="black"/>
<path d="M131 -26H59V-66C58.9873 -76.6048 54.7689 -86.7715 47.2702 -94.2702C39.7715 -101.769 29.6048 -105.987 19 -106C17.2166 -106 15.4843 -105.404 14.0783 -104.307C12.6724 -103.21 11.6734 -101.674 11.24 -99.944L-8.2 -22.12C-9.06588 -18.6559 -11.0656 -15.581 -13.881 -13.3847C-16.6963 -11.1884 -20.1653 -9.99697 -23.736 -10H-29V-18C-29 -20.1217 -29.8428 -22.1566 -31.3431 -23.6569C-32.8434 -25.1572 -34.8783 -26 -37 -26H-101C-103.122 -26 -105.157 -25.1572 -106.657 -23.6569C-108.157 -22.1566 -109 -20.1217 -109 -18V110C-109 112.122 -108.157 114.157 -106.657 115.657C-105.157 117.157 -103.122 118 -101 118H-37C-34.8783 118 -32.8434 117.157 -31.3431 115.657C-29.8428 114.157 -29 112.122 -29 110V102H-6.864C14.851 112.502 38.6549 117.971 62.776 118H99C105.365 118 111.47 115.471 115.971 110.971C120.471 106.47 123 100.365 123 94C122.976 89.8656 121.873 85.809 119.8 82.232C124.562 79.2669 128.121 74.7139 129.85 69.3778C131.579 64.0416 131.366 58.266 129.248 53.072C132.789 52.1569 136.07 50.4344 138.834 48.0394C141.598 45.6443 143.77 42.6418 145.179 39.2671C146.589 35.8924 147.198 32.2371 146.958 28.5877C146.719 24.9382 145.638 21.3938 143.8 18.232C148.203 15.4648 151.586 11.3397 153.438 6.47984C155.29 1.61999 155.509 -3.71051 154.064 -8.70619C152.618 -13.7019 149.586 -18.0913 145.425 -21.2112C141.264 -24.3312 136.201 -26.0121 131 -26ZM-45 102H-93V-10H-45V102ZM123 38H83V54H107C109.122 54 111.157 54.8428 112.657 56.3431C114.157 57.8434 115 59.8783 115 62C115 64.1217 114.157 66.1566 112.657 67.6569C111.157 69.1572 109.122 70 107 70H75V86H99C101.122 86 103.157 86.8428 104.657 88.3431C106.157 89.8434 107 91.8783 107 94C107 96.1217 106.157 98.1566 104.657 99.6569C103.157 101.157 101.122 102 99 102H62.776C40.4888 101.963 18.5136 96.7604 -1.424 86.8C-2.53805 86.2602 -3.76216 85.9864 -5 86H-29V6H-23.736C-16.5988 6.0007 -9.66617 3.61535 -4.04044 -0.77681C1.5853 -5.16897 5.58122 -11.3158 7.312 -18.24L25.056 -89.2C30.1911 -87.8609 34.7375 -84.8577 37.9842 -80.6599C41.2309 -76.4622 42.9948 -71.3068 43 -66V-18C43 -15.8783 43.8428 -13.8434 45.3431 -12.3431C46.8434 -10.8428 48.8783 -10 51 -10H131C133.122 -10 135.157 -9.15715 136.657 -7.65686C138.157 -6.15657 139 -4.12173 139 -2C139 0.121735 138.157 2.15657 136.657 3.65686C135.157 5.15715 133.122 6 131 6H91V22H123C125.122 22 127.157 22.8428 128.657 24.3431C130.157 25.8434 131 27.8783 131 30C131 32.1217 130.157 34.1566 128.657 35.6569C127.157 37.1572 125.122 38 123 38Z" fill="black"/>
</g>
<defs>
<clipPath id="clip0_7526_4">
<rect width="40" height="40" fill="white"/>
</clipPath>
</defs>
</svg>
