<svg width="11" height="14" viewBox="0 0 11 14" fill="none" xmlns="http://www.w3.org/2000/svg">
<g opacity="0.3">
<path d="M5.3241 6.84692C3.76754 6.84692 2.50558 5.3142 2.50558 3.42348C2.50558 1.53272 2.9199 0 5.3241 0C7.7283 0 8.1427 1.53272 8.1427 3.42348C8.1427 5.3142 6.88074 6.84692 5.3241 6.84692Z" fill="#333333"/>
<path d="M10.6473 12.0741C10.6482 11.9589 10.6491 12.0417 10.6473 12.0741V12.0741Z" fill="#333333"/>
<path d="M0.000732422 12.1642C-0.000782324 12.1326 0.000214219 11.9452 0.000732422 12.1642V12.1642Z" fill="#333333"/>
<path d="M0.00613689 11.9359C0.0583363 8.64222 0.488498 7.7037 3.78022 7.10962C3.78022 7.10962 4.24358 7.70006 5.32358 7.70006C6.40358 7.70006 6.86702 7.10962 6.86702 7.10962C10.1228 7.69722 10.5791 8.62182 10.6391 11.8289C10.6441 12.0908 10.6463 12.1045 10.6472 12.0741C10.647 12.1311 10.6468 12.2365 10.6468 12.4202C10.6468 12.4202 9.8631 14 5.32358 14C0.784138 14 0.000375748 12.4202 0.000375748 12.4202C0.000375748 12.3021 0.000295639 12.2201 0.00017643 12.1642C0.00105572 12.183 0.00281715 12.1466 0.00613689 11.9359Z" fill="#333333"/>
</g>
</svg>
