<svg width="24" height="22" viewBox="0 0 24 22" fill="none" xmlns="http://www.w3.org/2000/svg">
<path d="M15.4942 1.30378C15.3725 0.849822 15.0814 0.470326 14.6744 0.235393C13.8343 -0.249675 12.7561 0.0390994 12.2708 0.879452L12 1.34847L11.7292 0.879382C11.244 0.0392401 10.1659 -0.249675 9.32567 0.235322H9.3256C8.48538 0.720461 8.19654 1.79863 8.68161 2.63892L9.96825 4.86747L5.22075 13.0905H1.75953C0.789327 13.0905 0 13.8798 0 14.85C0 15.8202 0.789327 16.6095 1.75953 16.6095H15.1221L13.0904 13.0905H9.28421L15.3184 2.63899C15.5534 2.23197 15.6159 1.75774 15.4942 1.30378Z" fill="white"/>
<path d="M22.2405 13.0905H18.7792L14.8444 6.27515L12.8127 9.79421L18.9221 20.3759C19.1571 20.783 19.5365 21.0742 19.9906 21.1958C20.1422 21.2365 20.296 21.2566 20.4488 21.2566C20.7537 21.2566 21.0547 21.1766 21.3259 21.02C22.1661 20.5349 22.4549 19.4567 21.9698 18.6165L20.8109 16.6095H22.2405C23.2107 16.6095 24 15.8202 24 14.85C24 13.8798 23.2107 13.0905 22.2405 13.0905Z" fill="white"/>
<path d="M2.37635 18.0173L2.03028 18.6167C1.54522 19.4569 1.83413 20.5352 2.67434 21.0202C2.95073 21.1798 3.25281 21.2556 3.55115 21.2556C4.15967 21.2556 4.75235 20.94 5.07794 20.3762L6.43981 18.0173H2.37635Z" fill="white"/>
</svg>
