<svg width="26" height="24" viewBox="0 0 26 24" fill="none" xmlns="http://www.w3.org/2000/svg">
<g clip-path="url(#clip0_2_2826)">
<path d="M10.5226 14.0623C8.09711 11.7715 7.54945 9.48074 7.42589 8.56294C7.39137 8.30917 7.48384 8.05468 7.67607 7.87439L9.63891 6.02143C9.92764 5.7489 9.97888 5.32417 9.76246 4.99729L6.63725 0.414115C6.39782 0.0521491 5.9062 -0.0784881 5.50205 0.11246L0.484976 2.34405C0.158154 2.49604 -0.0340785 2.82399 0.00302852 3.16625C0.265909 5.52487 1.35467 11.3229 7.38777 17.0213C13.4209 22.7196 19.5591 23.7475 22.0578 23.9958C22.4202 24.0308 22.7675 23.8493 22.9284 23.5406L25.2912 18.8023C25.4927 18.4214 25.3553 17.9583 24.9736 17.7318L20.1208 14.781C19.7749 14.5764 19.3252 14.6244 19.0364 14.8969L17.0745 16.7507C16.8836 16.9322 16.6141 17.0195 16.3454 16.9869C15.3736 16.8703 12.9481 16.353 10.5226 14.0623Z" fill="#A6D914"/>
<path d="M20.1541 12.8276C19.6702 12.8276 19.2779 12.4571 19.2779 12C19.2738 8.57364 16.3338 5.79699 12.7059 5.79311C12.2219 5.79311 11.8296 5.42259 11.8296 4.96553C11.8296 4.50846 12.2219 4.13794 12.7059 4.13794C17.3013 4.14273 21.0253 7.65989 21.0304 12C21.0304 12.4571 20.6381 12.8276 20.1541 12.8276Z" fill="#A6D914"/>
<path d="M24.5355 12.8276C24.0515 12.8276 23.6592 12.4571 23.6592 12C23.6524 6.28936 18.7524 1.66156 12.7059 1.65517C12.2219 1.65517 11.8296 1.28465 11.8296 0.827586C11.8296 0.370523 12.2219 0 12.7059 0C19.7199 0.0072976 25.404 5.37561 25.4117 12C25.4117 12.2195 25.3194 12.43 25.1551 12.5852C24.9908 12.7404 24.7679 12.8276 24.5355 12.8276Z" fill="#A6D914"/>
</g>
<defs>
<clipPath id="clip0_2_2826">
<rect width="25.4118" height="24" fill="white"/>
</clipPath>
</defs>
</svg>
