<svg width="203" height="135" viewBox="0 0 203 135" fill="none" xmlns="http://www.w3.org/2000/svg">
<g clip-path="url(#clip0_2_2643)">
<path d="M137.013 135C173.477 135 203 105.568 203 69.3218H137.013V135Z" fill="#A1D214"/>
<path d="M36.6541 49.1165V77.8862C36.6541 80.7727 34.5148 82.902 31.6623 82.902C28.8099 82.902 26.6705 80.7727 26.6705 77.8862V53.044H19.3017C19.1115 68.3279 16.5918 76.4193 10.6017 80.7727C8.60495 82.2395 6.75086 82.902 4.56397 82.902C1.90168 82.902 0.0475769 81.1512 0.0475769 78.5487C0.0475769 76.4193 1.18856 74.8578 3.18528 74.1481C8.17709 72.3499 9.84102 66.8137 9.84102 52.0503V49.0219C9.84102 46.1354 11.9804 44.0061 14.8804 44.0061H31.6148C34.5148 44.1007 36.6541 46.2301 36.6541 49.1165Z" fill="#787878"/>
<path d="M82.6263 78.1703C82.6263 80.8675 80.5344 82.9022 77.682 82.9022C75.5426 82.9022 73.9263 81.6719 72.9754 79.306L72.1672 77.2712H58.4754L57.6672 79.306C56.7164 81.6719 55.1 82.9022 52.9607 82.9022C50.1082 82.9022 48.0164 80.8675 48.0164 78.1703C48.0164 77.4605 48.2066 76.6088 48.5394 75.7571L60.5672 46.7034C61.423 44.5741 63.0869 43.3911 65.3213 43.3911C67.5558 43.3911 69.2197 44.5268 70.0754 46.7034L82.1033 75.7571C82.4836 76.6088 82.6263 77.5078 82.6263 78.1703ZM61.423 69.369H69.2197L65.3213 58.2018L61.423 69.369Z" fill="#787878"/>
<path d="M128.693 48.4068V77.8863C128.693 80.7728 126.554 82.9021 123.702 82.9021C120.849 82.9021 118.71 80.7728 118.71 77.8863V61.4668L103.307 80.7728C102.166 82.2396 100.739 82.9021 99.123 82.9021C96.3181 82.9021 94.1312 80.7254 94.1312 77.8863V48.4068C94.1312 45.5204 96.2705 43.3911 99.123 43.3911C101.975 43.3911 104.115 45.5204 104.115 48.4068V65.2049L118.615 46.5141C119.898 44.9053 121.039 43.3438 123.797 43.3438C126.602 43.3911 128.693 45.5677 128.693 48.4068Z" fill="#787878"/>
<path d="M181.036 48.5488V77.9337C181.036 80.8201 178.897 82.9495 176.044 82.9495C173.192 82.9495 171.053 80.8201 171.053 77.9337V64.5899L166.061 72.4921C164.682 74.6687 163.398 75.5678 161.544 75.5678C159.69 75.5678 158.407 74.716 157.028 72.4921L152.036 64.5899V77.9337C152.036 80.8201 149.897 82.9495 147.044 82.9495C144.192 82.9495 142.053 80.8201 142.053 77.9337V48.5488C142.053 45.6151 144.144 43.3911 147.044 43.3911C149.089 43.3911 150.467 44.3848 152.084 47.0346L161.544 62.1766L171.005 47.0346C172.621 44.3848 174.048 43.3911 176.044 43.3911C178.944 43.3911 181.036 45.5678 181.036 48.5488Z" fill="#787878"/>
<path d="M88.1409 0C88.1409 0 87.5229 28.1073 113.385 36.1987C113.433 36.1987 119.756 15.2839 88.1409 0Z" fill="#787878"/>
<path d="M96.5557 26.8295C100.026 30.8989 104.875 34.4951 111.484 36.7664C96.4606 40.8358 87.3328 27.3027 87.3328 27.3027C90.8508 26.7348 93.8934 26.5929 96.5557 26.8295Z" fill="#787878"/>
<path d="M8.55 101.57C8.55 99.7003 7.13 98.6103 4.79 98.5503V97.8503H4.3V98.5503C1.96 98.6003 0.54 99.7003 0.54 101.57C0.54 103.43 1.96 104.53 4.3 104.58V105.29H4.79V104.58C7.13 104.53 8.55 103.43 8.55 101.57ZM4.79 104.16V98.9703C6.83 99.0303 8.05 99.9603 8.05 101.56C8.05 103.17 6.83 104.09 4.79 104.16ZM1.04 101.57C1.04 99.9503 2.25 99.0403 4.3 98.9703V104.16C2.27 104.09 1.04 103.18 1.04 101.57ZM17.8618 98.0703H15.3518V105.07H15.8618V102.78H17.8618C19.6218 102.78 20.6818 101.9 20.6818 100.43C20.6818 98.9503 19.6218 98.0703 17.8618 98.0703ZM17.8618 102.32H15.8618V98.5303H17.8618C19.3618 98.5303 20.1618 99.2203 20.1618 100.43C20.1618 101.63 19.3618 102.32 17.8618 102.32ZM27.8247 104.61V101.74H31.5547V101.29H27.8247V98.5303H31.9947V98.0703H27.3147V105.07H32.1447V104.61H27.8247ZM46.7479 98.0703V104.61H43.3079V98.0703H42.7979V104.61H39.3579V98.0703H38.8479V105.07H47.2579V98.0703H46.7479ZM69.464 105.07L69.454 98.0703H69.034L65.904 103.48L62.774 98.0703H62.344V105.07H62.844V99.1003L65.774 104.14H66.024L68.954 99.0803L68.964 105.07H69.464ZM82.3127 105.07H82.8627L79.6427 98.0703H79.1327L75.9127 105.07H76.4627L77.3527 103.1H81.4127L82.3127 105.07ZM77.5527 102.67L79.3827 98.6303L81.2227 102.67H77.5527ZM91.8266 98.0703H89.3166V105.07H89.8266V102.78H91.8266C93.5866 102.78 94.6466 101.9 94.6466 100.43C94.6466 98.9503 93.5866 98.0703 91.8266 98.0703ZM91.8266 102.32H89.8266V98.5303H91.8266C93.3266 98.5303 94.1266 99.2203 94.1266 100.43C94.1266 101.63 93.3266 102.32 91.8266 102.32ZM106.14 105.07H106.74L103.88 101.48L106.56 98.0703H105.99L103.48 101.29H101.79V98.0703H101.28V105.07H101.79V101.75H103.47L106.14 105.07ZM113.499 104.61V101.74H117.229V101.29H113.499V98.5303H117.669V98.0703H112.989V105.07H117.819V104.61H113.499ZM128.912 98.0703H123.362V98.5303H125.882V105.07H126.392V98.5303H128.912V98.0703Z" fill="#787878"/>
</g>
<defs>
<clipPath id="clip0_2_2643">
<rect width="203" height="135" fill="white"/>
</clipPath>
</defs>
</svg>
