<svg width="22" height="24" viewBox="0 0 22 24" fill="none" xmlns="http://www.w3.org/2000/svg">
<path d="M20.4938 10.2891L2.94696 0.25897C2.64444 0.086171 2.30765 0 1.97085 0C1.96399 0 1.95725 0.000914281 1.95051 0.000914281C1.90525 0.00137142 1.86011 0.00365713 1.81508 0.00719997C1.79473 0.00879996 1.77451 0.0109714 1.75416 0.0132571C1.71896 0.0171428 1.68388 0.022057 1.64891 0.0278856C1.63622 0.030057 1.62342 0.0307427 1.61074 0.0331427L1.61142 0.034057C1.39279 0.0743996 1.17942 0.151428 0.981138 0.266513C0.373827 0.618854 0 1.26788 0 1.96993V22.0301C0 22.7321 0.373827 23.3811 0.981138 23.7335C1.17931 23.8486 1.39268 23.9257 1.61131 23.9661L1.61074 23.9669C1.62216 23.969 1.63371 23.9697 1.64502 23.9715C1.68262 23.9779 1.72033 23.9832 1.75816 23.9872C1.77713 23.9893 1.79599 23.9913 1.81496 23.9928C1.85942 23.9963 1.90376 23.9984 1.94833 23.999C1.95588 23.9991 1.9633 24 1.97085 24C2.30765 24 2.64444 23.9138 2.94696 23.741L20.4938 13.7108C21.1073 13.3601 21.486 12.7077 21.486 12.0009C21.486 12.0009 21.486 12.0005 21.486 12.0004C21.486 12.0004 21.486 12.0001 21.486 11.9999C21.486 11.9999 21.486 11.9996 21.486 11.9995C21.486 11.9995 21.486 11.9991 21.486 11.999C21.486 11.2923 21.1073 10.6399 20.4938 10.2891ZM13.5547 8.29722L11.81 10.586L7.37117 4.76249L13.5547 8.29722ZM19.6431 12.2225L7.37117 19.2374L15.055 9.15676L19.643 11.7793C19.7224 11.8246 19.7718 11.9097 19.7718 12.0007C19.7717 12.0922 19.7223 12.1772 19.6431 12.2225Z" fill="white"/>
</svg>
