<svg width="16" height="14" viewBox="0 0 16 14" fill="none" xmlns="http://www.w3.org/2000/svg">
<path opacity="0.3" d="M11.3356 0C10.5896 0 9.87659 0.164978 9.21643 0.490382C8.76704 0.711848 8.35424 1.0061 8 1.35521C7.64576 1.0061 7.23296 0.711848 6.78357 0.490382C6.12338 0.164978 5.41038 0 4.66435 0C2.09244 0 0 2.01853 0 4.49962C0 6.25693 0.962078 8.12334 2.85948 10.0471C4.44371 11.6533 6.38331 12.9922 7.73143 13.8326L8 14L8.26857 13.8326C9.61669 12.9922 11.5563 11.6533 13.1405 10.0471C15.0379 8.12334 16 6.25693 16 4.49962C16 2.01853 13.9076 0 11.3356 0Z" fill="#C8C8C8"/>
</svg>
