<svg width="22" height="22" viewBox="0 0 22 22" fill="none" xmlns="http://www.w3.org/2000/svg">
<g clip-path="url(#clip0_2_297)">
<path d="M21.7479 10.3916C21.7477 10.3914 21.7475 10.3911 21.7472 10.3908L17.2568 5.92206C16.9204 5.58729 16.3762 5.58854 16.0414 5.92498C15.7066 6.26138 15.7079 6.8055 16.0443 7.14031L19.0591 10.1406H0.859375C0.384742 10.1406 0 10.5253 0 10.9999C0 11.4746 0.384742 11.8593 0.859375 11.8593H19.0591L16.0443 14.8595C15.7079 15.1944 15.7066 15.7385 16.0414 16.0749C16.3763 16.4114 16.9205 16.4125 17.2568 16.0778L21.7472 11.6091C21.7475 11.6088 21.7477 11.6085 21.748 11.6082C22.0846 11.2723 22.0835 10.7264 21.7479 10.3916Z" fill="#A1D214"/>
</g>
<defs>
<clipPath id="clip0_2_297">
<rect width="22" height="22" fill="white"/>
</clipPath>
</defs>
</svg>
