<svg width="60" height="9" viewBox="0 0 60 9" fill="none" xmlns="http://www.w3.org/2000/svg">
<g clip-path="url(#clip0_7668_10)">
<path d="M8.76118 3.21975L5.99443 2.79713L4.75431 0.155628C4.66168 -0.0416221 4.33806 -0.0416221 4.24543 0.155628L3.00568 2.79713L0.238931 3.21975C0.011681 3.25463 -0.0790691 3.531 0.0803059 3.69413L2.09031 5.75438L1.61518 8.667C1.57731 8.89838 1.82443 9.072 2.02881 8.95838L4.50006 7.59263L6.97131 8.95875C7.17381 9.07125 7.42318 8.901 7.38493 8.66738L6.90981 5.75475L8.9198 3.6945C9.07918 3.531 8.98806 3.25463 8.76118 3.21975V3.21975Z" fill="#FFC107"/>
</g>
<g clip-path="url(#clip1_7668_10)">
<path d="M21.7612 3.21975L18.9944 2.79713L17.7543 0.155628C17.6617 -0.0416221 17.3381 -0.0416221 17.2454 0.155628L16.0057 2.79713L13.2389 3.21975C13.0117 3.25463 12.9209 3.531 13.0803 3.69413L15.0903 5.75438L14.6152 8.667C14.5773 8.89838 14.8244 9.072 15.0288 8.95838L17.5001 7.59263L19.9713 8.95875C20.1738 9.07125 20.4232 8.901 20.3849 8.66738L19.9098 5.75475L21.9198 3.6945C22.0792 3.531 21.9881 3.25463 21.7612 3.21975Z" fill="#FFC107"/>
</g>
<g clip-path="url(#clip2_7668_10)">
<path d="M34.7346 3.21975L31.6605 2.79713L30.2826 0.155628C30.1796 -0.0416221 29.8201 -0.0416221 29.7171 0.155628L28.3396 2.79713L25.2655 3.21975C25.013 3.25463 24.9121 3.531 25.0892 3.69413L27.3226 5.75438L26.7946 8.667C26.7526 8.89838 27.0271 9.072 27.2542 8.95838L30.0001 7.59263L32.7459 8.95875C32.9709 9.07125 33.248 8.901 33.2055 8.66738L32.6776 5.75475L34.9109 3.6945C35.088 3.531 34.9867 3.25463 34.7346 3.21975Z" fill="#FFC107"/>
</g>
<g clip-path="url(#clip3_7668_10)">
<path d="M46.7612 3.21975L43.9944 2.79713L42.7543 0.155628C42.6617 -0.0416221 42.3381 -0.0416221 42.2454 0.155628L41.0057 2.79713L38.2389 3.21975C38.0117 3.25463 37.9209 3.531 38.0803 3.69413L40.0903 5.75438L39.6152 8.667C39.5773 8.89838 39.8244 9.072 40.0288 8.95838L42.5001 7.59263L44.9713 8.95875C45.1738 9.07125 45.4232 8.901 45.3849 8.66738L44.9098 5.75475L46.9198 3.6945C47.0792 3.531 46.9881 3.25463 46.7612 3.21975Z" fill="#FFC107"/>
</g>
<g opacity="0.1" clip-path="url(#clip4_7668_10)">
<path d="M59.7346 3.21975L56.6605 2.79713L55.2826 0.155628C55.1796 -0.0416221 54.8201 -0.0416221 54.7171 0.155628L53.3396 2.79713L50.2655 3.21975C50.013 3.25463 49.9121 3.531 50.0892 3.69413L52.3226 5.75438L51.7946 8.667C51.7526 8.89838 52.0271 9.072 52.2542 8.95838L55.0001 7.59263L57.7459 8.95875C57.9709 9.07125 58.248 8.901 58.2055 8.66738L57.6776 5.75475L59.9109 3.6945C60.088 3.531 59.9867 3.25463 59.7346 3.21975V3.21975Z" fill="#333333"/>
</g>
<defs>
<clipPath id="clip0_7668_10">
<rect width="9" height="9" fill="white"/>
</clipPath>
<clipPath id="clip1_7668_10">
<rect width="9" height="9" fill="white" transform="translate(13)"/>
</clipPath>
<clipPath id="clip2_7668_10">
<rect width="10" height="9" fill="white" transform="translate(25)"/>
</clipPath>
<clipPath id="clip3_7668_10">
<rect width="9" height="9" fill="white" transform="translate(38)"/>
</clipPath>
<clipPath id="clip4_7668_10">
<rect width="10" height="9" fill="white" transform="translate(50)"/>
</clipPath>
</defs>
</svg>
