<svg width="24" height="24" viewBox="0 0 24 24" fill="none" xmlns="http://www.w3.org/2000/svg">
<path d="M8.49998 23C9.88069 23 11 21.8807 11 20.5C11 19.1193 9.88069 18 8.49998 18C7.11928 18 6 19.1193 6 20.5C6 21.8807 7.11928 23 8.49998 23Z" fill="#333333"/>
<path d="M23.9 4.20003C23.8 4.10005 23.7 4.00001 23.5 4.00001H4.5L3.99998 1.40005C3.9 1.20003 3.69998 1.00006 3.49997 1.00006H0.499969C0.200016 1.00001 0 1.20003 0 1.50003C0 1.80003 0.200016 2.00005 0.500016 2.00005H3.10003L5.50003 14.2001C5.90002 15.8 7.30003 17 9.00005 17H20.5C20.8 17 21 16.8 21 16.5C21 16.2 20.8 16 20.5 16H9C8.19998 16 7.40002 15.6 6.99998 14.9L21.6 12.9C21.8 12.9 22 12.7 22 12.5L24 4.50003C24 4.50003 24 4.30001 23.9 4.20003Z" fill="#333333"/>
<path d="M18.5 23C19.8807 23 21 21.8807 21 20.5C21 19.1193 19.8807 18 18.5 18C17.1193 18 16.0001 19.1193 16.0001 20.5C16.0001 21.8807 17.1193 23 18.5 23Z" fill="#333333"/>
</svg>
