<svg width="8" height="8" viewBox="0 0 8 8" fill="none" xmlns="http://www.w3.org/2000/svg">
<g opacity="0.1" clip-path="url(#clip0_2_2512)">
<path d="M4.88111 3.99986L7.8722 1.00864C7.95447 0.926301 7.99987 0.816447 8 0.699309C8 0.582106 7.9546 0.472122 7.8722 0.389911L7.61008 0.127862C7.52767 0.0453253 7.41782 0.00012207 7.30055 0.00012207C7.18348 0.00012207 7.07363 0.0453253 6.99122 0.127862L4.00013 3.11889L1.00891 0.127862C0.926634 0.0453253 0.816715 0.00012207 0.699512 0.00012207C0.582439 0.00012207 0.47252 0.0453253 0.390244 0.127862L0.128 0.389911C-0.0426667 0.560577 -0.0426667 0.838171 0.128 1.00864L3.11915 3.99986L0.128 6.99095C0.0456585 7.07342 0.000325203 7.18328 0.000325203 7.30041C0.000325203 7.41755 0.0456585 7.52741 0.128 7.60981L0.390179 7.87186C0.472455 7.95433 0.582439 7.9996 0.699447 7.9996C0.81665 7.9996 0.926569 7.95433 1.00885 7.87186L4.00006 4.88077L6.99115 7.87186C7.07356 7.95433 7.18341 7.9996 7.30049 7.9996H7.30062C7.41776 7.9996 7.52761 7.95433 7.61002 7.87186L7.87213 7.60981C7.95441 7.52747 7.9998 7.41755 7.9998 7.30041C7.9998 7.18328 7.95441 7.07342 7.87213 6.99102L4.88111 3.99986Z" fill="#333333"/>
</g>
<defs>
<clipPath id="clip0_2_2512">
<rect width="8" height="8" fill="white"/>
</clipPath>
</defs>
</svg>
