<svg width="20" height="20" viewBox="0 0 20 20" fill="none" xmlns="http://www.w3.org/2000/svg">
<g clip-path="url(#clip0_2_2732)">
<path d="M7.08332 19.1666C8.23391 19.1666 9.16664 18.2339 9.16664 17.0833C9.16664 15.9327 8.23391 15 7.08332 15C5.93273 15 5 15.9327 5 17.0833C5 18.2339 5.93273 19.1666 7.08332 19.1666Z" fill="#93C10E"/>
<path d="M19.9167 3.50001C19.8334 3.41669 19.75 3.33333 19.5834 3.33333H3.75L3.33332 1.16669C3.25 1.00001 3.08332 0.833374 2.91664 0.833374H0.416641C0.16668 0.833335 0 1.00001 0 1.25001C0 1.50001 0.16668 1.66669 0.41668 1.66669H2.58336L4.58336 11.8334C4.91668 13.1667 6.08336 14.1667 7.50004 14.1667H17.0834C17.3334 14.1667 17.5 14 17.5 13.75C17.5 13.5 17.3334 13.3333 17.0834 13.3333H7.5C6.83332 13.3333 6.16668 13 5.83332 12.4167L18 10.75C18.1667 10.75 18.3333 10.5833 18.3333 10.4167L20 3.75001C20 3.75001 20 3.58333 19.9167 3.50001Z" fill="#93C10E"/>
<path d="M15.4167 19.1666C16.5673 19.1666 17.5 18.2339 17.5 17.0833C17.5 15.9327 16.5673 15 15.4167 15C14.2661 15 13.3334 15.9327 13.3334 17.0833C13.3334 18.2339 14.2661 19.1666 15.4167 19.1666Z" fill="#93C10E"/>
</g>
<defs>
<clipPath id="clip0_2_2732">
<rect width="20" height="20" fill="white"/>
</clipPath>
</defs>
</svg>
