<svg width="22" height="17" viewBox="0 0 22 17" fill="none" xmlns="http://www.w3.org/2000/svg">
<path d="M21.4095 12.948L16.4894 8.02667C17.4126 5.93082 17.0176 3.38958 15.3037 1.67526C13.0707 -0.55827 9.4562 -0.558571 7.22292 1.67526C4.99515 3.90355 4.99515 7.52924 7.22292 9.75753C8.99323 11.5282 11.5876 11.8654 13.6588 10.9079L18.5537 15.804C19.3429 16.5934 20.6205 16.5935 21.4097 15.8038C22.1967 15.0165 22.1967 13.7353 21.4095 12.948ZM8.13455 8.84608C6.40923 7.12038 6.40923 4.31246 8.13455 2.58671C9.86369 0.857142 12.6626 0.856841 14.392 2.58671C16.1173 4.31246 16.1173 7.12038 14.392 8.84608C12.6628 10.5757 9.86394 10.5759 8.13455 8.84608ZM20.4979 14.8925C20.2126 15.178 19.7508 15.1781 19.4654 14.8926L14.7887 10.2148C15.1731 9.91218 15.5157 9.56472 15.8132 9.1736L20.4979 13.8594C20.7826 14.1442 20.7827 14.6077 20.4979 14.8925Z" fill="#333333"/>
<path d="M0.64456 7.7237H3.39305C3.74902 7.7237 4.03761 7.4351 4.03761 7.07913C4.03761 6.72316 3.74902 6.43457 3.39305 6.43457H0.64456C0.288591 6.43457 0 6.72316 0 7.07913C0 7.4351 0.288591 7.7237 0.64456 7.7237Z" fill="#333333"/>
<path d="M0.64456 10.4737H4.42375C4.77972 10.4737 5.06831 10.1851 5.06831 9.82913C5.06831 9.47316 4.77972 9.18457 4.42375 9.18457H0.64456C0.288591 9.18457 0 9.47316 0 9.82913C0 10.1851 0.288591 10.4737 0.64456 10.4737Z" fill="#333333"/>
<path d="M0.64456 13.2238H7.17228C7.52825 13.2238 7.81684 12.9352 7.81684 12.5793C7.81684 12.2233 7.52825 11.9347 7.17228 11.9347H0.64456C0.288591 11.9347 0 12.2233 0 12.5793C0 12.9352 0.288591 13.2238 0.64456 13.2238Z" fill="#333333"/>
<path d="M14.7307 14.6848H0.64456C0.288591 14.6848 0 14.9734 0 15.3294C0 15.6853 0.288591 15.9739 0.64456 15.9739H14.7307C15.0867 15.9739 15.3753 15.6853 15.3753 15.3294C15.3753 14.9734 15.0867 14.6848 14.7307 14.6848Z" fill="#333333"/>
</svg>
