<svg width="14" height="14" viewBox="0 0 14 14" fill="none" xmlns="http://www.w3.org/2000/svg">
<g clip-path="url(#clip0_14_274)">
<path d="M7 0C3.14005 0 0 2.99732 0 6.68182C0 10.3663 3.14005 13.3636 7 13.3636C10.86 13.3636 14 10.3663 14 6.68182C14 2.99732 10.86 0 7 0ZM10.3291 10.1379C10.2153 10.2465 10.066 10.3012 9.9167 10.3012C9.76738 10.3012 9.61795 10.2465 9.5043 10.1379L6.5876 7.35391C6.47791 7.24982 6.4167 7.1083 6.4167 6.96026V3.34091C6.4167 3.033 6.67796 2.78412 7 2.78412C7.32204 2.78412 7.5833 3.033 7.5833 3.34091V6.72974L10.3291 9.35063C10.5571 9.56841 10.5571 9.92026 10.3291 10.1379Z" fill="#A6D914"/>
</g>
<defs>
<clipPath id="clip0_14_274">
<rect width="14" height="13.3636" fill="white"/>
</clipPath>
</defs>
</svg>
