<svg width="20" height="19" viewBox="0 0 20 19" fill="none" xmlns="http://www.w3.org/2000/svg">
<path d="M14.1695 0C13.237 0 12.3457 0.213773 11.5205 0.635423C10.9588 0.922392 10.4428 1.30367 10 1.75604C9.5572 1.30367 9.0412 0.922392 8.47946 0.635423C7.65423 0.213773 6.76297 0 5.83043 0C2.61555 0 0 2.61555 0 5.83047C0 8.10755 1.2026 10.526 3.57435 13.0187C5.55464 15.1 7.97913 16.8349 9.66429 17.9238L10 18.1408L10.3357 17.9238C12.0209 16.8349 14.4454 15.1 16.4256 13.0187C18.7974 10.526 20 8.10755 20 5.83047C20 2.61555 17.3845 0 14.1695 0Z" fill="#C8C8C8"/>
</svg>
