<svg width="15" height="14" viewBox="0 0 15 14" fill="none" xmlns="http://www.w3.org/2000/svg">
<path d="M10.6271 0C9.92774 0 9.2593 0.16033 8.6404 0.476567C8.2191 0.691794 7.8321 0.977753 7.5 1.31703C7.1679 0.977753 6.7809 0.691794 6.3596 0.476567C5.74067 0.16033 5.07223 0 4.37282 0C1.96166 0 0 1.96166 0 4.37286C0 6.08066 0.901949 7.89448 2.68076 9.76401C4.16598 11.325 5.98435 12.6262 7.24822 13.4429L7.5 13.6056L7.75178 13.4429C9.01565 12.6262 10.834 11.325 12.3192 9.76401C14.0981 7.89448 15 6.08066 15 4.37286C15 1.96166 13.0383 0 10.6271 0Z" fill="#C8C8C8"/>
</svg>
