<svg width="107" height="71" viewBox="0 0 107 71" fill="none" xmlns="http://www.w3.org/2000/svg">
<g clip-path="url(#clip0_2_50)">
<path d="M72.2188 71C91.4387 71 107 55.5209 107 36.4581H72.2188V71Z" fill="#A1D214"/>
<path d="M19.3201 25.8317V40.9625C19.3201 42.4805 18.1925 43.6004 16.689 43.6004C15.1854 43.6004 14.0578 42.4805 14.0578 40.9625V27.8973H10.1737C10.0735 35.9355 8.7454 40.191 5.58802 42.4805C4.53556 43.252 3.55828 43.6004 2.40559 43.6004C1.00231 43.6004 0.0250244 42.6796 0.0250244 41.3109C0.0250244 40.191 0.62643 39.3698 1.67889 38.9965C4.31004 38.0508 5.18709 35.1391 5.18709 27.3747V25.782C5.18709 24.2639 6.31472 23.144 7.84329 23.144H16.6639C18.1925 23.1938 19.3201 24.3137 19.3201 25.8317Z" fill="black"/>
<path d="M43.5517 41.1118C43.5517 42.5303 42.4491 43.6004 40.9456 43.6004C39.818 43.6004 38.966 42.9534 38.4648 41.7091L38.0388 40.639H30.822L30.396 41.7091C29.8948 42.9534 29.0428 43.6004 27.9152 43.6004C26.4117 43.6004 25.3091 42.5303 25.3091 41.1118C25.3091 40.7385 25.4093 40.2906 25.5847 39.8426L31.9245 24.5626C32.3756 23.4427 33.2526 22.8206 34.4304 22.8206C35.6081 22.8206 36.4852 23.4178 36.9362 24.5626L43.2761 39.8426C43.4765 40.2906 43.5517 40.7634 43.5517 41.1118ZM32.3756 36.483H36.4852L34.4304 30.6099L32.3756 36.483Z" fill="black"/>
<path d="M67.8334 25.4585V40.9625C67.8334 42.4805 66.7058 43.6004 65.2023 43.6004C63.6987 43.6004 62.5711 42.4805 62.5711 40.9625V32.327L54.4521 42.4805C53.8507 43.252 53.099 43.6004 52.247 43.6004C50.7685 43.6004 49.6158 42.4557 49.6158 40.9625V25.4585C49.6158 23.9404 50.7435 22.8205 52.247 22.8205C53.7505 22.8205 54.8781 23.9404 54.8781 25.4585V34.293L62.521 24.463C63.1976 23.6169 63.799 22.7957 65.2524 22.7957C66.7308 22.8205 67.8334 23.9653 67.8334 25.4585Z" fill="black"/>
<path d="M95.4229 25.5331V40.9874C95.4229 42.5055 94.2952 43.6253 92.7917 43.6253C91.2882 43.6253 90.1606 42.5055 90.1606 40.9874V33.9695L87.5294 38.1255C86.8027 39.2703 86.1262 39.7431 85.1489 39.7431C84.1716 39.7431 83.495 39.2951 82.7683 38.1255L80.1372 33.9695V40.9874C80.1372 42.5055 79.0095 43.6253 77.506 43.6253C76.0025 43.6253 74.8749 42.5055 74.8749 40.9874V25.5331C74.8749 23.9902 75.9775 22.8206 77.506 22.8206C78.5835 22.8206 79.3102 23.3432 80.1622 24.7368L85.1489 32.7003L90.1355 24.7368C90.9875 23.3432 91.7393 22.8206 92.7917 22.8206C94.3203 22.8206 95.4229 23.9653 95.4229 25.5331Z" fill="black"/>
<path d="M46.4586 0C46.4586 0 46.1328 14.7823 59.7647 19.0379C59.7897 19.0379 63.1225 8.03821 46.4586 0Z" fill="black"/>
<path d="M50.8939 14.1104C52.7232 16.2506 55.2792 18.142 58.7623 19.3365C50.8438 21.4767 46.0326 14.3593 46.0326 14.3593C47.8869 14.0607 49.4907 13.986 50.8939 14.1104Z" fill="black"/>
<path d="M6.2415 54.445C6.2415 53.0799 5.2049 52.2842 3.4967 52.2404V51.7294H3.139V52.2404C1.4308 52.2769 0.3942 53.0799 0.3942 54.445C0.3942 55.8028 1.4308 56.6058 3.139 56.6423V57.1606H3.4967V56.6423C5.2049 56.6058 6.2415 55.8028 6.2415 54.445ZM3.4967 56.3357V52.547C4.9859 52.5908 5.8765 53.2697 5.8765 54.4377C5.8765 55.613 4.9859 56.2846 3.4967 56.3357ZM0.7592 54.445C0.7592 53.2624 1.6425 52.5981 3.139 52.547V56.3357C1.6571 56.2846 0.7592 55.6203 0.7592 54.445ZM13.0391 51.89H11.2068V57H11.5791V55.3283H13.0391C14.3239 55.3283 15.0977 54.6859 15.0977 53.6128C15.0977 52.5324 14.3239 51.89 13.0391 51.89ZM13.0391 54.9925H11.5791V52.2258H13.0391C14.1341 52.2258 14.7181 52.7295 14.7181 53.6128C14.7181 54.4888 14.1341 54.9925 13.0391 54.9925ZM20.312 56.6642V54.5691H23.0349V54.2406H20.312V52.2258H23.3561V51.89H19.9397V57H23.4656V56.6642H20.312ZM34.126 51.89V56.6642H31.6148V51.89H31.2425V56.6642H28.7313V51.89H28.359V57H34.4983V51.89H34.126ZM50.7087 57L50.7014 51.89H50.3948L48.1099 55.8393L45.825 51.89H45.5111V57H45.8761V52.6419L48.015 56.3211H48.1975L50.3364 52.6273L50.3437 57H50.7087ZM60.0882 57H60.4897L58.1391 51.89H57.7668L55.4162 57H55.8177L56.4674 55.5619H59.4312L60.0882 57ZM56.6134 55.248L57.9493 52.2988L59.2925 55.248H56.6134ZM67.0334 51.89H65.2011V57H65.5734V55.3283H67.0334C68.3182 55.3283 69.092 54.6859 69.092 53.6128C69.092 52.5324 68.3182 51.89 67.0334 51.89ZM67.0334 54.9925H65.5734V52.2258H67.0334C68.1284 52.2258 68.7124 52.7295 68.7124 53.6128C68.7124 54.4888 68.1284 54.9925 67.0334 54.9925ZM77.4819 57H77.9199L75.8321 54.3793L77.7885 51.89H77.3724L75.5401 54.2406H74.3064V51.89H73.9341V57H74.3064V54.5764H75.5328L77.4819 57ZM82.8539 56.6642V54.5691H85.5768V54.2406H82.8539V52.2258H85.898V51.89H82.4816V57H86.0075V56.6642H82.8539ZM94.1056 51.89H90.0541V52.2258H91.8937V57H92.266V52.2258H94.1056V51.89Z" fill="black"/>
</g>
<defs>
<clipPath id="clip0_2_50">
<rect width="107" height="71" fill="white"/>
</clipPath>
</defs>
</svg>
