<svg width="14" height="14" viewBox="0 0 14 14" fill="none" xmlns="http://www.w3.org/2000/svg">
<g clip-path="url(#clip0_14_254)">
<g clip-path="url(#clip1_14_254)">
<path d="M7.00001 3.73059C6.01337 3.73059 5.21069 4.49681 5.21069 5.43858C5.21069 6.38035 6.01337 7.14656 7.00001 7.14656C7.98666 7.14656 8.78933 6.38035 8.78933 5.43858C8.78933 4.49681 7.98663 3.73059 7.00001 3.73059Z" fill="#A6D914"/>
<path d="M11.187 1.65547C10.0686 0.587922 8.58165 0 7.00003 0C5.41841 0 3.93143 0.587922 2.81307 1.65547C1.69465 2.72305 1.07874 4.14241 1.07874 5.65211C1.07874 8.70625 4.10405 11.2465 5.72936 12.6113C5.95519 12.8009 6.15024 12.9647 6.30558 13.1032C6.50029 13.2769 6.75011 13.3636 7 13.3636C7.24987 13.3636 7.49973 13.2768 7.69442 13.1032C7.84982 12.9647 8.04483 12.8009 8.27067 12.6113C9.89598 11.2465 12.9213 8.70628 12.9213 5.65214C12.9213 4.14241 12.3054 2.72305 11.187 1.65547ZM7.00003 7.92936C5.56117 7.92936 4.39061 6.81201 4.39061 5.43856C4.39061 4.0651 5.56117 2.94775 7.00003 2.94775C8.43888 2.94775 9.60944 4.0651 9.60944 5.43856C9.60944 6.81201 8.43886 7.92936 7.00003 7.92936Z" fill="#A6D914"/>
</g>
</g>
<defs>
<clipPath id="clip0_14_254">
<rect width="14" height="13.3636" fill="white"/>
</clipPath>
<clipPath id="clip1_14_254">
<rect width="14" height="13.3636" fill="white"/>
</clipPath>
</defs>
</svg>
