<svg width="16" height="20" viewBox="0 0 16 20" fill="none" xmlns="http://www.w3.org/2000/svg">
<path d="M7.60587 9.78131C5.38222 9.78131 3.57942 7.59171 3.57942 4.89069C3.57942 2.1896 4.1713 0 7.60587 0C11.0404 0 11.6324 2.1896 11.6324 4.89069C11.6324 7.59171 9.82965 9.78131 7.60587 9.78131Z" fill="#C8C8C8"/>
<path d="M15.2105 17.2487C15.2117 17.084 15.213 17.2023 15.2105 17.2487V17.2487Z" fill="#C8C8C8"/>
<path d="M0.00115967 17.3774C-0.00100425 17.3323 0.000419379 17.0646 0.00115967 17.3774V17.3774Z" fill="#C8C8C8"/>
<path d="M0.00890636 17.0513C0.083478 12.346 0.697993 11.0053 5.40045 10.1566C5.40045 10.1566 6.06239 11.0001 7.60525 11.0001C9.14811 11.0001 9.81016 10.1566 9.81016 10.1566C14.4613 10.996 15.1132 12.3169 15.1989 16.8984C15.2059 17.2726 15.2092 17.2922 15.2104 17.2488C15.2102 17.3302 15.2098 17.4807 15.2098 17.7431C15.2098 17.7431 14.0903 20 7.60525 20C1.12034 20 0.000677109 17.7431 0.000677109 17.7431C0.000677109 17.5745 0.000562668 17.4572 0.00039196 17.3775C0.0016489 17.4043 0.00416374 17.3523 0.00890636 17.0513Z" fill="#C8C8C8"/>
</svg>
