<svg width="12" height="15" viewBox="0 0 12 15" fill="none" xmlns="http://www.w3.org/2000/svg">
<path d="M5.70456 7.33599C4.03682 7.33599 2.68472 5.69379 2.68472 3.66801C2.68472 1.6422 3.12863 0 5.70456 0C8.28049 0 8.72449 1.6422 8.72449 3.66801C8.72449 5.69379 7.37239 7.33599 5.70456 7.33599Z" fill="#C8C8C8"/>
<path d="M11.4081 12.9365C11.409 12.813 11.41 12.9017 11.4081 12.9365V12.9365Z" fill="#C8C8C8"/>
<path d="M0.000976562 13.0328C-0.000646379 12.999 0.000421346 12.7983 0.000976562 13.0328V13.0328Z" fill="#C8C8C8"/>
<path d="M0.00692463 12.7886C0.0628529 9.25963 0.52374 8.25407 4.05058 7.61755C4.05058 7.61755 4.54704 8.25017 5.70418 8.25017C6.86132 8.25017 7.35787 7.61755 7.35787 7.61755C10.8462 8.24713 11.3351 9.23777 11.3994 12.6739C11.4047 12.9545 11.4071 12.9693 11.4081 12.9367C11.4079 12.9977 11.4076 13.1106 11.4076 13.3074C11.4076 13.3074 10.568 15.0001 5.70418 15.0001C0.840496 15.0001 0.000752449 13.3074 0.000752449 13.3074C0.000752449 13.181 0.000666618 13.093 0.000537872 13.0332C0.00148106 13.0533 0.00336742 13.0143 0.00692463 12.7886Z" fill="#C8C8C8"/>
</svg>
