<svg width="12" height="12" viewBox="0 0 12 12" fill="none" xmlns="http://www.w3.org/2000/svg">
<g clip-path="url(#clip0_2_279)">
<path d="M3.04845 0.191807L2.65265 0.584883C2.52903 0.708591 2.46094 0.873178 2.46094 1.04908C2.46094 1.22489 2.52903 1.38967 2.65264 1.51338L7.13678 5.99732L2.64767 10.4864C2.52406 10.6099 2.45606 10.7747 2.45606 10.9505C2.45605 11.1263 2.52406 11.2912 2.64767 11.4148L3.04104 11.808C3.29684 12.064 3.71353 12.064 3.96934 11.808L9.33338 6.46318C9.45689 6.33966 9.54392 6.17508 9.54392 5.99771L9.54392 5.99566C9.54392 5.81976 9.4568 5.65517 9.33338 5.53166L3.98388 0.191807C3.86036 0.0680985 3.6908 0.000194927 3.51499 3.24013e-07C3.33909 2.7019e-07 3.17187 0.0680983 3.04845 0.191807Z" fill="black"/>
</g>
<defs>
<clipPath id="clip0_2_279">
<rect width="12" height="12" fill="white" transform="translate(0 12) rotate(-90)"/>
</clipPath>
</defs>
</svg>
