<svg width="12" height="12" viewBox="0 0 12 12" fill="none" xmlns="http://www.w3.org/2000/svg">
<g clip-path="url(#clip0_2_275)">
<path d="M8.95155 11.8082L9.34736 11.4151C9.47097 11.2914 9.53906 11.1268 9.53906 10.9509C9.53906 10.7751 9.47097 10.6103 9.34736 10.4866L4.86322 6.00268L9.35233 1.51357C9.47594 1.39006 9.54395 1.22528 9.54395 1.04947C9.54395 0.873666 9.47594 0.708786 9.35233 0.585175L8.95896 0.192001C8.70316 -0.0640007 8.28647 -0.0640008 8.03066 0.192001L2.66662 5.53682C2.54311 5.66034 2.45608 5.82492 2.45608 6.00229L2.45608 6.00434C2.45608 6.18024 2.5432 6.34483 2.66662 6.46834L8.01613 11.8082C8.13964 11.9319 8.3092 11.9998 8.48501 12C8.66091 12 8.82813 11.9319 8.95155 11.8082Z" fill="black"/>
</g>
<defs>
<clipPath id="clip0_2_275">
<rect width="12" height="12" fill="white" transform="translate(12) rotate(90)"/>
</clipPath>
</defs>
</svg>
