<svg width="32" height="28" viewBox="0 0 32 28" fill="none" xmlns="http://www.w3.org/2000/svg">
<path d="M8.49998 27C9.88069 27 11 25.8807 11 24.5C11 23.1193 9.88069 22 8.49998 22C7.11928 22 6 23.1193 6 24.5C6 25.8807 7.11928 27 8.49998 27Z" fill="#333333"/>
<path d="M23.9 8.20003C23.8 8.10005 23.7 8.00001 23.5 8.00001H4.5L3.99998 5.40005C3.9 5.20003 3.69998 5.00006 3.49997 5.00006H0.499969C0.200016 5.00001 0 5.20003 0 5.50003C0 5.80003 0.200016 6.00005 0.500016 6.00005H3.10003L5.50003 18.2001C5.90002 19.8 7.30003 21 9.00005 21H20.5C20.8 21 21 20.8 21 20.5C21 20.2 20.8 20 20.5 20H9C8.19998 20 7.40002 19.6 6.99998 18.9L21.6 16.9C21.8 16.9 22 16.7 22 16.5L24 8.50003C24 8.50003 24 8.30001 23.9 8.20003Z" fill="#333333"/>
<path d="M18.5 27C19.8807 27 21 25.8807 21 24.5C21 23.1193 19.8807 22 18.5 22C17.1193 22 16 23.1193 16 24.5C16 25.8807 17.1193 27 18.5 27Z" fill="#333333"/>
<rect x="16.5" y="0.5" width="15" height="15" rx="7.5" fill="white" stroke="#A1D214"/>
<path d="M21.328 11V5.72L21.672 6.096H20.064V5.4H22.12V11H21.328ZM23.2569 11V10.456L25.5369 8.256C25.7396 8.064 25.8889 7.896 25.9849 7.752C26.0863 7.60267 26.1529 7.46667 26.1849 7.344C26.2223 7.216 26.2409 7.09333 26.2409 6.976C26.2409 6.688 26.1396 6.46133 25.9369 6.296C25.7343 6.13067 25.4383 6.048 25.0489 6.048C24.7503 6.048 24.4809 6.09867 24.2409 6.2C24.0009 6.296 23.7929 6.448 23.6169 6.656L23.0729 6.184C23.2863 5.912 23.5716 5.704 23.9289 5.56C24.2916 5.41067 24.6889 5.336 25.1209 5.336C25.5103 5.336 25.8489 5.4 26.1369 5.528C26.4249 5.65067 26.6463 5.82933 26.8009 6.064C26.9609 6.29867 27.0409 6.576 27.0409 6.896C27.0409 7.07733 27.0169 7.256 26.9689 7.432C26.9209 7.608 26.8303 7.79467 26.6969 7.992C26.5636 8.18933 26.3716 8.41067 26.1209 8.656L24.0889 10.616L23.8969 10.304H27.2809V11H23.2569Z" fill="#333333"/>
</svg>
