<svg width="9" height="8" viewBox="0 0 9 8" fill="none" xmlns="http://www.w3.org/2000/svg">
<path d="M5.08481 3.86139L8.20072 0.973636C8.28643 0.894142 8.33373 0.788089 8.33386 0.675002C8.33386 0.561853 8.28657 0.455674 8.20072 0.376306L7.92767 0.123321C7.84183 0.0436397 7.72739 0 7.60523 0C7.48327 0 7.36883 0.0436397 7.28298 0.123321L4.16707 3.01089L1.05102 0.123321C0.965305 0.0436397 0.850799 0 0.728705 0C0.606746 0 0.49224 0.0436397 0.40653 0.123321L0.133342 0.376306C-0.0444473 0.541069 -0.0444473 0.809061 0.133342 0.973636L3.24933 3.86139L0.133342 6.74902C0.047564 6.82864 0.000338775 6.93469 0.000338775 7.04778C0.000338775 7.16086 0.047564 7.26692 0.133342 7.34647L0.406462 7.59946C0.492172 7.67908 0.606746 7.72278 0.728637 7.72278C0.850731 7.72278 0.965237 7.67908 1.05095 7.59946L4.167 4.71183L7.28291 7.59946C7.36876 7.67908 7.4832 7.72278 7.60516 7.72278H7.60529C7.72732 7.72278 7.84176 7.67908 7.9276 7.59946L8.20066 7.34647C8.28637 7.26698 8.33366 7.16086 8.33366 7.04778C8.33366 6.93469 8.28637 6.82864 8.20066 6.74908L5.08481 3.86139Z" fill="#333333"/>
</svg>
