<svg width="74" height="74" viewBox="0 0 74 74" fill="none" xmlns="http://www.w3.org/2000/svg">
<g opacity="0.3">
<path d="M28.6121 28.7424C27.9888 28.0601 27.1012 27.6605 26.1772 27.6462C24.3187 27.6223 22.7812 29.104 22.7497 30.9611C22.7396 31.5598 23.2166 32.0532 23.8151 32.0633C23.8215 32.0634 23.8276 32.0634 23.8339 32.0634C24.4241 32.0634 24.9074 31.5901 24.9173 30.9977C24.9285 30.3344 25.4736 29.8023 26.1432 29.8138C26.4775 29.819 26.7858 29.9578 27.0114 30.2046C27.4153 30.6468 28.1011 30.6777 28.5429 30.2739C28.9849 29.8702 29.0159 29.1844 28.6121 28.7424Z" fill="#333333"/>
<path d="M34.3791 32.2752C34.0468 31.4941 33.4 30.8777 32.6041 30.5839C31.0036 29.9935 29.2193 30.814 28.6263 32.4126C28.4181 32.974 28.7044 33.5978 29.2656 33.806C29.3899 33.8521 29.5172 33.874 29.6424 33.874C30.0828 33.874 30.4967 33.6037 30.6589 33.1666C30.8369 32.6865 31.3736 32.4408 31.8534 32.6179C32.0946 32.7069 32.2831 32.8865 32.3838 33.1236C32.6181 33.6744 33.2549 33.9314 33.8056 33.6969C34.3567 33.4626 34.6132 32.8261 34.3791 32.2752Z" fill="#333333"/>
<path d="M41.3656 22.6747C40.9418 22.2516 40.2554 22.2525 39.8327 22.6763L38.8108 23.7001C38.3879 24.1239 38.3887 24.8103 38.8124 25.233C39.0239 25.4442 39.3009 25.5497 39.578 25.5497C39.8558 25.5497 40.1336 25.4436 40.3453 25.2314L41.3672 24.2076C41.7901 23.7838 41.7893 23.0974 41.3656 22.6747Z" fill="#333333"/>
<path d="M34.6217 36.6687H33.177C32.5782 36.6687 32.093 37.154 32.093 37.7527C32.093 38.3513 32.5782 38.8367 33.177 38.8367H34.6217C35.2205 38.8367 35.7057 38.3513 35.7057 37.7527C35.7057 37.154 35.2205 36.6687 34.6217 36.6687Z" fill="#333333"/>
<path d="M45.699 36.6687H44.2541C43.6554 36.6687 43.1702 37.154 43.1702 37.7527C43.1702 38.3513 43.6555 38.8367 44.2541 38.8367H45.699C46.2977 38.8367 46.783 38.3513 46.783 37.7527C46.783 37.154 46.2977 36.6687 45.699 36.6687Z" fill="#333333"/>
<path d="M73.9652 56.214L73.6829 54.6904C73.503 53.7168 72.6528 53.0102 71.6615 53.0102C71.537 53.0102 71.4116 53.0216 71.2882 53.0443L65.5416 54.1L68.144 52.3603C68.8261 51.9044 69.1708 51.089 69.0221 50.28C68.9807 50.0585 68.9033 49.8459 68.7911 49.6469L68.0036 48.2523C67.7337 47.7732 67.2735 47.4172 66.7424 47.2761C66.4822 47.2067 66.2102 47.1913 65.9449 47.2258C66.2346 45.6264 66.3841 43.993 66.3841 42.3301C66.3841 41.5923 65.9404 40.9574 65.3066 40.6754C66.1348 38.7057 66.1913 36.4508 65.3727 34.3857C65.3063 34.2178 65.2078 34.0679 65.0801 33.9401C64.9535 33.8135 64.8054 33.7157 64.6373 33.6482C63.6564 33.2575 62.6254 33.0595 61.5731 33.0595C61.4385 33.0595 61.3046 33.063 61.171 33.0693C61.0209 30.0439 58.5169 27.6286 55.46 27.6286C55.0575 27.6286 54.665 27.6714 54.2859 27.7512C54.5492 26.1758 54.3941 24.5277 53.7806 22.9804C53.7147 22.8103 53.6157 22.6576 53.4811 22.5209C53.3516 22.3914 53.1997 22.2915 53.0312 22.2246C51.9745 21.8037 50.864 21.5904 49.7303 21.5904C48.0225 21.5904 46.3889 22.0705 44.9785 22.9632C44.4633 21.4706 43.6136 20.0694 42.4264 18.8795C42.0787 18.5311 41.6162 18.3392 41.124 18.3392C40.6319 18.3392 40.1694 18.5311 39.8212 18.8797L34.5729 24.1401C33.6016 23.2738 32.3236 22.7559 30.9364 22.7559C30.6216 22.7559 30.3037 22.7835 29.9917 22.8379C28.861 23.0347 27.8206 23.5881 27.0229 24.3986C26.0001 23.9051 24.8283 23.7367 23.7023 23.9327C23.4546 23.9758 23.2142 24.0365 22.981 24.1105V20.0569C22.981 17.2655 20.7374 14.9904 17.9621 14.9424V12.6435C18.8117 12.4965 19.4603 11.7561 19.4603 10.8652V5.65649C19.4603 4.66038 18.6499 3.84985 17.6537 3.84985H8.83863C7.84238 3.84985 7.032 4.66038 7.032 5.65649V10.8652C7.032 11.7561 7.68065 12.4965 8.5302 12.6435V14.9422C5.75492 14.99 3.51152 17.265 3.51152 20.0567V51.6938C1.34731 53.6483 0 56.3755 0 59.3913C0 65.3237 5.20672 70.1501 11.6068 70.1501L54.993 70.1374C56.4739 70.1368 57.8666 69.486 58.8139 68.352C59.7365 67.2481 60.1287 65.8142 59.9028 64.4001L68.5684 65.9574C68.6883 65.979 68.8112 65.99 68.933 65.99C69.3652 65.99 69.7793 65.8573 70.1299 65.6067C70.5807 65.2846 70.8858 64.7862 70.9672 64.2394L71.2019 62.6644C71.2357 62.4388 71.2319 62.2116 71.1908 61.9889C71.0416 61.1836 70.4284 60.5446 69.6284 60.3614L66.574 59.6607L72.3149 58.606C72.8563 58.5066 73.326 58.2026 73.6376 57.7501C73.9487 57.2987 74.0649 56.7533 73.9652 56.214ZM61.5731 35.2272C62.2257 35.2272 62.8672 35.3305 63.4841 35.5342C64.0353 37.2127 63.8289 39.0233 62.9658 40.5189H60.0457L60.9775 39.5849C61.4004 39.1612 61.3995 38.4748 60.9756 38.0519C60.5517 37.629 59.8653 37.6297 59.4427 38.0536L58.9497 38.5478C58.7186 37.7868 58.3151 37.1055 57.7847 36.5466C58.8605 35.6923 60.1813 35.2272 61.5731 35.2272ZM55.46 29.7963C57.4177 29.7963 59.0103 31.3936 59.0103 33.3571C59.0103 33.3935 59.0085 33.4295 59.0075 33.4656C57.8649 33.8372 56.8117 34.458 55.9134 35.301C55.7705 35.2468 55.6255 35.1965 55.4767 35.1553C55.1595 33.4424 54.0052 32.0693 52.4802 31.428C53.1131 30.4475 54.2113 29.7963 55.46 29.7963ZM49.7301 23.7581C50.4664 23.7581 51.1899 23.8772 51.8871 24.1128C52.4474 25.7789 52.333 27.5686 51.619 29.1189C51.032 29.6535 50.5558 30.3082 50.2303 31.0442C50.0368 31.0554 49.8433 31.0768 49.6521 31.1101C48.8027 31.2579 48.0106 31.6265 47.3478 32.161C47.1218 31.7476 46.845 31.3662 46.5279 31.0228L49.0137 28.5314C49.4366 28.1076 49.4357 27.4212 49.0118 26.9985C48.588 26.5756 47.9017 26.5763 47.4788 27.0002L44.7619 29.7233C44.2449 29.4789 43.6861 29.3089 43.0989 29.2294C43.3526 27.9359 43.9803 26.7171 44.9512 25.7438C46.2287 24.4633 47.9259 23.7581 49.7301 23.7581ZM41.4239 40.5189H40.4843C40.3261 40.1162 39.9348 39.8308 39.4759 39.8308C39.0171 39.8308 38.6258 40.1164 38.4676 40.5189H37.3622C37.6189 40.1009 37.567 39.5471 37.2047 39.1854C36.7809 38.7625 36.0945 38.7633 35.6716 39.187L34.6499 40.2109C34.5582 40.3028 34.4876 40.4076 34.4357 40.5189H32.2295C31.4032 39.2509 30.8989 37.7543 30.8392 36.1442H48.0364C47.9767 37.7543 47.4724 39.2509 46.6461 40.5189H44.3502C44.2985 40.4076 44.2277 40.3027 44.1361 40.2107L43.1145 39.1869C42.6915 38.7633 42.0054 38.7621 41.5816 39.1852C41.219 39.5468 41.1671 40.1007 41.4239 40.5189ZM38.9029 33.9763C39.3115 32.462 40.6928 31.3446 42.3297 31.3446C43.9668 31.3446 45.3481 32.4622 45.7567 33.9763H38.9029ZM41.1196 20.6475C42.1506 21.7618 42.8324 23.0849 43.1667 24.4755C42.6133 25.0769 42.1535 25.7415 41.7909 26.4487C41.6263 26.3478 41.4333 26.2887 41.2262 26.2887H39.7818C39.1831 26.2887 38.6978 26.774 38.6978 27.3727C38.6978 27.9713 39.1831 28.4566 39.7818 28.4566H41.0489C40.9776 28.756 40.9223 29.0589 40.8821 29.3641C40.4517 29.4772 40.0406 29.6382 39.6559 29.8431C38.9334 28.5963 37.737 27.6671 36.3194 27.2943C36.319 27.2913 36.3184 27.2883 36.3178 27.2852C36.2328 26.7947 36.0845 26.3293 35.8823 25.8967L41.1196 20.6475ZM21.5244 30.4288C21.4608 30.251 21.4127 30.0686 21.381 29.8856C21.0701 28.0933 22.2784 26.3809 24.0739 26.0683C24.2632 26.0353 24.4556 26.0185 24.6455 26.0185C25.3596 26.0185 26.0421 26.2463 26.6189 26.6772C26.8576 26.8555 27.1593 26.9276 27.453 26.8768C27.7467 26.8258 28.0064 26.6562 28.1712 26.4078C28.6801 25.6402 29.4587 25.1308 30.3634 24.9733C30.5532 24.9402 30.746 24.9236 30.9364 24.9236C32.5424 24.9236 33.9073 26.0726 34.1816 27.6559C34.2132 27.8373 34.2293 28.0264 34.2296 28.2179C34.2306 28.7789 34.6598 29.2466 35.2188 29.2958C36.4307 29.4023 37.4623 30.165 37.9406 31.2394C37.3003 32.0079 36.8565 32.9462 36.688 33.9763H30.5061C29.7375 33.9763 29.078 34.4508 28.8029 35.1222C27.4429 34.196 25.8401 33.6969 24.1603 33.6969C23.108 33.6969 22.0771 33.895 21.0954 34.2858C20.9289 34.3523 20.78 34.4505 20.6531 34.5774C20.5245 34.706 20.4258 34.8567 20.361 35.0221C20.1116 35.6512 19.9452 36.298 19.8553 36.9488C19.4668 36.5066 19.1931 35.9566 19.0861 35.3395C18.8312 33.8687 19.6011 32.4043 20.9578 31.7782C21.4677 31.5429 21.7136 30.9573 21.5244 30.4288ZM24.7558 40.2224L25.0515 40.5189H22.4481C21.8636 39.1629 21.7748 37.6194 22.2493 36.1718C22.8671 35.9679 23.5083 35.8647 24.1603 35.8647C25.7937 35.8647 27.3302 36.5031 28.4866 37.6621C28.6403 37.8163 28.7836 37.9779 28.9181 38.1448C29.1018 38.9764 29.3841 39.7709 29.7477 40.5187H28.1141L26.2906 38.691C25.8675 38.2674 25.1811 38.2662 24.7577 38.6893C24.3338 39.1123 24.3329 39.7987 24.7558 40.2224ZM20.1395 40.5189H16.2752C16.4474 39.4689 17.079 38.5738 17.9558 38.046C18.4748 38.7413 19.1522 39.3035 19.9327 39.6844C19.9879 39.9656 20.0557 40.2444 20.1395 40.5189ZM9.19995 6.01781H17.2924V10.5039H9.19995V6.01781ZM15.7942 12.6719V14.94H10.6983V12.6719H15.7942ZM5.67962 24.4527H12.7187C13.3175 24.4527 13.8027 23.9674 13.8027 23.3687C13.8027 22.7701 13.3175 22.2847 12.7187 22.2847H5.67962V20.0567C5.67962 18.4307 6.99832 17.1079 8.61923 17.1079H17.8732C19.4943 17.1079 20.813 18.4307 20.813 20.0567V22.2847H18.789C18.1902 22.2847 17.705 22.7701 17.705 23.3687C17.705 23.9674 18.1902 24.4527 18.789 24.4527H20.813V25.4148C19.571 26.6325 18.926 28.4182 19.2445 30.255C19.2451 30.2586 19.2458 30.2624 19.2464 30.2662C17.5074 31.4593 16.5808 33.5804 16.9498 35.7098C16.9714 35.8341 16.9984 35.9563 17.0279 36.0773C16.4863 36.3759 16 36.7615 15.5832 37.2127H5.67962V24.4527ZM5.67948 39.3806H14.3244C14.2094 39.7459 14.1282 40.1262 14.0886 40.5189H13.9059C12.9082 40.5189 12.0963 41.3313 12.0963 42.3298C12.0963 44.0511 12.2563 45.7408 12.5664 47.3939C12.2549 47.3689 11.9355 47.3555 11.6106 47.3555C10.2997 47.3555 9.05065 47.5634 8.09401 47.9413C6.63063 48.5191 6.22609 49.3396 6.13778 49.9073C5.9827 49.9845 5.83037 50.066 5.67948 50.1494V39.3806ZM19.4057 52.6969C19.7961 53.0092 20.0347 53.2747 20.173 53.4662C20.16 53.4664 20.1464 53.4665 20.1327 53.4665C19.5192 53.4665 18.4168 53.2192 17.1633 52.5253C16.6966 52.2668 16.2666 51.9747 15.9198 51.6808C15.5154 51.3382 14.9224 51.3384 14.5182 51.681C14.1714 51.9751 13.7415 52.2671 13.2753 52.525C12.0215 53.2192 10.9191 53.4665 10.3058 53.4665C10.2917 53.4665 10.2783 53.4664 10.2651 53.4662C10.4033 53.2747 10.6419 53.0091 11.0325 52.6966C11.3737 52.4234 11.5175 51.9719 11.3971 51.5518C11.2766 51.1315 10.9155 50.8246 10.4812 50.7738C9.4234 50.6498 8.75451 50.3805 8.44131 50.1845C8.83371 49.9401 9.82577 49.5234 11.611 49.5234C13.0896 49.5234 14.1702 49.8343 14.6885 50.1254C15.0182 50.3104 15.4201 50.3104 15.7498 50.1255C16.2684 49.8345 17.3492 49.5236 18.8277 49.5236C20.6131 49.5236 21.605 49.9404 21.9973 50.1847C21.6842 50.3808 21.0152 50.6499 19.9571 50.7739C19.5228 50.8249 19.1616 51.1316 19.0412 51.5521C18.9204 51.9724 19.0642 52.4239 19.4057 52.6969ZM17.2373 65.8905L17.2746 66.0914C17.4035 66.7876 17.6754 67.4266 18.0552 67.9822H11.6068C6.40228 67.9822 2.16796 64.1284 2.16796 59.3913C2.16796 56.1539 4.1463 53.3304 7.05946 51.8663C7.39404 52.116 7.81116 52.3314 8.30603 52.5051C8.10976 52.8403 7.97303 53.2007 7.9408 53.5766C7.89802 54.0764 8.05094 54.5511 8.37179 54.9133C8.7957 55.392 9.44638 55.6346 10.3058 55.6346C11.451 55.6346 12.9537 55.1812 14.3253 54.4219C14.6411 54.2471 14.9397 54.0626 15.2192 53.8698C15.4986 54.0624 15.7972 54.247 16.1131 54.422C17.4847 55.1812 18.9874 55.6345 20.1327 55.6346H20.1328C20.9919 55.6346 21.6426 55.392 22.0664 54.9134C22.3874 54.5512 22.5404 54.0766 22.4975 53.5766C22.4653 53.2007 22.3285 52.8403 22.1323 52.5051C22.6271 52.3312 23.0444 52.1159 23.379 51.8663C25.6893 53.0274 27.4108 55.0438 28.0246 57.4434L20.358 60.3559C18.1139 61.2086 16.8014 63.5361 17.2373 65.8905ZM57.15 66.9621C56.6156 67.6021 55.8289 67.9692 54.992 67.9695L53.8543 67.9699L53.1435 64.1319C53.0344 63.5432 52.4691 63.154 51.8801 63.2634C51.2916 63.3724 50.9027 63.9379 51.0117 64.5266L51.6496 67.9706L47.9199 67.9721L47.4393 65.3767C47.3302 64.788 46.7648 64.3993 46.176 64.5082C45.5874 64.6172 45.1985 65.1828 45.3075 65.7714L45.715 67.9729L37.0396 67.9762L36.3866 64.4514C36.2773 63.8628 35.7122 63.474 35.1233 63.5831C34.5346 63.6921 34.1458 64.2578 34.2548 64.8464L34.8348 67.9771L22.1675 67.982C22.1672 67.982 22.167 67.982 22.1667 67.982C20.8121 67.982 19.6513 67.0209 19.4058 65.6961L19.3686 65.4952C19.1236 64.1719 19.8633 62.8629 21.1275 62.3825L25.3878 60.764L25.7052 62.477C25.8019 62.9989 26.2575 63.3637 26.7697 63.3637C26.8353 63.3637 26.9018 63.3576 26.9686 63.3453C27.5571 63.2362 27.9459 62.6707 27.8368 62.082L27.4475 59.9815L33.7715 57.5791C34.3311 57.3665 34.6125 56.7404 34.3999 56.1808C34.1873 55.621 33.5605 55.3398 33.0017 55.5524L30.0589 56.6703C29.2334 53.7475 27.1125 51.3059 24.3001 49.9072C24.2118 49.3394 23.8072 48.5189 22.344 47.9411C21.3874 47.5633 20.1383 47.3553 18.8274 47.3553C17.9253 47.3553 17.0637 47.4549 16.3032 47.6363V46.9816C16.3032 46.3829 15.818 45.8976 15.2192 45.8976C14.9662 45.8976 14.734 45.9849 14.5495 46.1303C14.3785 44.9996 14.2828 43.8512 14.2669 42.6866H49.574C50.1728 42.6866 50.658 42.2012 50.658 41.6026C50.658 41.0039 50.1728 40.5186 49.574 40.5186H49.1305C49.8207 39.097 50.2107 37.5031 50.2107 35.8186C50.2107 34.8622 49.4789 34.0744 48.5464 33.9849C48.9524 33.6021 49.4591 33.3439 50.0239 33.2455C50.1894 33.2168 50.3574 33.2022 50.5233 33.2022C51.9228 33.2022 53.112 34.2033 53.3509 35.5824C53.3785 35.7421 53.3927 35.9069 53.3928 36.0724C53.3935 36.6337 53.8228 37.1017 54.382 37.1509C55.6774 37.2646 56.7372 38.2389 56.9594 39.52C57.0184 39.8607 57.011 40.1969 56.9519 40.5186H55.7888C55.19 40.5186 54.7049 41.0039 54.7049 41.6026C54.7049 42.2012 55.19 42.6866 55.7888 42.6866H64.2138C64.1869 44.675 63.9308 46.6174 63.4532 48.5019L57.5786 51.9698C57.2193 50.7193 56.3842 49.6586 55.2336 49.0145C53.943 48.2923 52.4094 48.1794 51.0263 48.7048L38.9275 53.3012C38.3677 53.5138 38.0864 54.1399 38.299 54.6995C38.5116 55.2593 39.1383 55.5402 39.6972 55.3279L41.2911 54.7225L41.786 57.3944C41.8827 57.9163 42.3382 58.2813 42.8506 58.2813C42.9161 58.2813 42.9826 58.2752 43.0493 58.2629C43.6379 58.1539 44.0268 57.5884 43.9178 56.9997L43.3511 53.94L51.7959 50.7318C52.5784 50.4347 53.4453 50.4984 54.1747 50.9067C54.9029 51.3142 55.4073 52.0166 55.5587 52.8335L57.7517 64.6727C57.9029 65.4892 57.6836 66.3235 57.15 66.9621ZM61.0177 58.4773C60.512 58.5702 60.1412 59.0055 60.1298 59.5196C60.1185 60.0337 60.47 60.4849 60.9711 60.5998L69.0417 62.451L68.8401 63.8036L59.4841 62.1223L58.0215 54.226L66.1708 49.4155L66.8496 50.6175L59.976 55.2123C59.5487 55.498 59.3807 56.0447 59.5741 56.521C59.7673 56.9974 60.2689 57.2726 60.7744 57.1797L71.5717 55.1963L71.8122 56.4941L61.0177 58.4773Z" fill="#333333"/>
</g>
</svg>
