<svg width="14" height="13" viewBox="0 0 14 13" fill="none" xmlns="http://www.w3.org/2000/svg">
<path d="M9.91867 0C9.26589 0 8.64201 0.153194 8.06437 0.455355C7.67116 0.661002 7.30996 0.934233 7 1.25841C6.69004 0.934233 6.32884 0.661002 5.93562 0.455355C5.35796 0.153194 4.73408 0 4.0813 0C1.83088 0 0 1.87435 0 4.17822C0 5.81001 0.841819 7.5431 2.50205 9.32941C3.88825 10.8209 5.58539 12.0642 6.765 12.8445L7 13L7.235 12.8445C8.41461 12.0642 10.1118 10.8209 11.498 9.32941C13.1582 7.5431 14 5.81001 14 4.17822C14 1.87435 12.1691 0 9.91867 0Z" fill="#A1D214"/>
</svg>
