<svg width="25" height="25" viewBox="0 0 25 25" fill="none" xmlns="http://www.w3.org/2000/svg">
<g opacity="0.5" clip-path="url(#clip0_2_2022)">
<path d="M12.0606 9.6218C11.7262 9.59222 11.3972 9.51855 11.0822 9.40271L10.7926 10.1283C11.1743 10.2712 11.5735 10.3623 11.9795 10.399C12.0785 10.4073 12.1749 10.4114 12.2686 10.4114C13.0435 10.4114 13.6375 10.131 13.9971 9.59168L13.3471 9.15833C13.1099 9.51384 12.6773 9.66975 12.0606 9.6218Z" fill="#333333"/>
<path d="M12.5 8.98438H13.1785V8.20312H12.8906V7.03125H12.1094V8.59375C12.1094 8.69735 12.1505 8.79671 12.2238 8.86996C12.297 8.94322 12.3964 8.98438 12.5 8.98438Z" fill="#333333"/>
<path d="M11.4425 6.91685L11.9949 6.3644L11.6043 5.97378C11.5311 5.90054 11.4317 5.85938 11.3281 5.85938H10.1562V6.64063H11.1664L11.4425 6.91685Z" fill="#333333"/>
<path d="M13.3956 5.97378L13.005 6.3644L13.5574 6.91685L13.8336 6.64063H14.8437V5.85938H13.6719C13.6206 5.85937 13.5698 5.86948 13.5224 5.88911C13.475 5.90873 13.4319 5.93751 13.3956 5.97378Z" fill="#333333"/>
<path d="M10.561 7.02869L10.5583 7.80994L11.3268 7.81251L11.3294 7.03126L10.561 7.02869Z" fill="#333333"/>
<path d="M13.6861 7.02857L13.6835 7.80981L14.4519 7.81239L14.4545 7.03114L13.6861 7.02857Z" fill="#333333"/>
<path d="M10.5469 18.75H9.76562V19.5312H10.5469V18.75Z" fill="#333333"/>
<path d="M10.5469 20.7031H9.76562V21.4844H10.5469V20.7031Z" fill="#333333"/>
<path d="M22.5418 13.005C22.4693 12.9325 22.3711 12.8914 22.2685 12.8906C22.1659 12.8899 22.0671 12.9295 21.9935 13.001L19.2912 15.625H16.4062V14.0625C16.4062 13.9589 16.3651 13.8595 16.2918 13.7863C16.2186 13.713 16.1192 13.6719 16.0156 13.6719H15.2344V11.4899L15.9012 10.8231C15.9375 10.7868 15.9663 10.7438 15.9859 10.6964C16.0055 10.649 16.0156 10.5982 16.0156 10.5469V8.87412L16.9373 8.56289C17.0152 8.53657 17.0828 8.48633 17.1305 8.41932C17.1782 8.3523 17.2035 8.27195 17.2029 8.1897L17.1875 6.24692C17.187 6.1853 17.1719 6.12466 17.1435 6.06997C17.1151 6.01528 17.0742 5.96808 17.024 5.93224C16.9739 5.8964 16.916 5.87294 16.855 5.86376C16.7941 5.85459 16.7319 5.85996 16.6734 5.87944L16.0156 6.09863V0.78125C16.0156 0.694134 15.9865 0.609519 15.9329 0.540855C15.8793 0.472192 15.8042 0.423421 15.7197 0.402295L14.1572 0.01167C14.1262 0.00391049 14.0944 -8.91162e-06 14.0625 3.74035e-08H11.7187C11.6972 -9.36635e-06 11.6758 0.00175442 11.6545 0.00527348L9.31079 0.395898C9.21957 0.411099 9.1367 0.458169 9.07693 0.528732C9.01716 0.599295 8.98436 0.688774 8.98437 0.78125V6.09351L8.34208 5.87939C8.28362 5.85991 8.22136 5.85454 8.16042 5.86371C8.09948 5.87289 8.04157 5.89636 7.99143 5.93219C7.94129 5.96803 7.90035 6.01523 7.87194 6.06992C7.84353 6.12461 7.82846 6.18525 7.82797 6.24687L7.81249 8.18975C7.81184 8.272 7.83717 8.35235 7.88486 8.41936C7.93256 8.48638 8.00019 8.53662 8.07812 8.56294L8.98437 8.8689V10.5469C8.98437 10.6382 9.01641 10.7267 9.0749 10.7969L9.76562 11.626V13.6719H8.59374C8.49014 13.6719 8.39079 13.713 8.31753 13.7863C8.24427 13.8595 8.20312 13.9589 8.20312 14.0625V15.625H5.35966L3.99946 11.5443C4.61012 11.2192 5.075 10.6749 5.30051 10.0209C5.52603 9.36688 5.49545 8.65172 5.21492 8.01935C4.9344 7.38698 4.42476 6.88434 3.78857 6.61259C3.15238 6.34083 2.43687 6.32014 1.78604 6.55468C1.13521 6.78921 0.597374 7.26156 0.280776 7.87667C-0.0358213 8.49177 -0.107679 9.20397 0.0796663 9.86991C0.267011 10.5359 0.699651 11.1061 1.29051 11.466C1.88138 11.8258 2.5866 11.9484 3.26425 11.8092L4.53613 15.625H4.29687C4.22433 15.625 4.15322 15.6452 4.09152 15.6833C4.02981 15.7215 3.97995 15.776 3.9475 15.8409L1.99438 19.7472C1.96725 19.8014 1.95312 19.8612 1.95312 19.9219V25H2.73437V20.0141L4.53827 16.4062H4.79658L5.7559 19.2842L4.95463 19.5513C4.87684 19.5772 4.80918 19.6269 4.76124 19.6934C4.71329 19.76 4.68749 19.8399 4.68749 19.9219V21.875H3.51562V22.6562H11.3004V25H12.0816V22.2642L14.2259 20.1199C14.3594 19.9864 14.5406 19.9114 14.7294 19.9114C14.9182 19.9114 15.0993 19.9864 15.2329 20.1199L16.3867 21.2737C16.4599 21.347 16.5011 21.4463 16.5011 21.5499C16.5011 21.6535 16.4599 21.7529 16.3867 21.8261L16.1104 22.1023L14.7294 20.7212L14.177 21.2737L15.5581 22.6547L15.2818 22.931L13.9007 21.5499L13.3483 22.1023L14.7294 23.4833L14.4531 23.7598C14.3798 23.8329 14.2805 23.874 14.1769 23.874C14.0733 23.874 13.974 23.8329 13.9007 23.7598L13.3022 23.1612L12.7498 23.7137L13.3483 24.3121C13.5682 24.5316 13.8662 24.6548 14.1769 24.6548C14.4876 24.6548 14.7856 24.5316 15.0056 24.3121L15.0989 24.2188H19.5312C19.6348 24.2188 19.7342 24.1776 19.8075 24.1043C19.8807 24.0311 19.9219 23.9317 19.9219 23.8281V22.6562H19.1406V23.4375H15.8802L16.9391 22.3786C17.1587 22.1589 17.2822 21.8611 17.2823 21.5504C17.2824 21.2398 17.1592 20.9419 16.9398 20.722L17.2165 20.4453L18.8965 21.7894C18.9734 21.8509 19.0706 21.8811 19.1688 21.874C19.267 21.8668 19.3589 21.8229 19.4261 21.7509L21.8996 19.1007L22.2656 19.6495V25H23.0469V19.5312C23.0469 19.4541 23.024 19.3788 22.9812 19.3146L22.4475 18.5138L24.895 15.8915C24.9641 15.8175 25.0017 15.7195 25 15.6182C24.9982 15.517 24.9572 15.4203 24.8856 15.3487L22.5418 13.005ZM0.732415 9.10645C0.732415 8.71533 0.848396 8.33299 1.06569 8.00778C1.28299 7.68258 1.59183 7.42911 1.95318 7.27944C2.31453 7.12976 2.71215 7.0906 3.09575 7.1669C3.47936 7.24321 3.83172 7.43155 4.10829 7.70811C4.38485 7.98468 4.57319 8.33704 4.6495 8.72065C4.7258 9.10425 4.68664 9.50187 4.53696 9.86322C4.38729 10.2246 4.13382 10.5334 3.80862 10.7507C3.48341 10.968 3.10107 11.084 2.70995 11.084C2.18566 11.0834 1.68301 10.8749 1.31228 10.5041C0.941548 10.1334 0.733009 9.63074 0.732415 9.10645ZM15.2344 10.3851L14.0127 11.6067L13.1073 11.0031C13.0431 10.9603 12.9677 10.9375 12.8906 10.9375H11.7187C11.6416 10.9375 11.5662 10.9603 11.502 11.0031L10.7061 11.5339L10.5469 11.3428V11.3281H10.5345L9.76562 10.4053V8.70029C9.77567 8.66566 9.78086 8.62981 9.78105 8.59375V6.64062C9.78076 6.60498 9.77557 6.56954 9.76562 6.5353V5.46875H15.2344V10.3851ZM13.4494 12.1701L13.1194 12.5H11.5111L11.209 12.1375L11.837 11.7188H12.7723L13.4494 12.1701ZM16.4105 6.79053L16.4194 7.91318L16.0156 8.04951V6.92217L16.4105 6.79053ZM11.7511 0.78125H14.0144L15.2344 1.08623V4.6875H14.4531V2.34375H13.6719V4.6875H12.8906V1.5625H12.1094V4.6875H11.3281V2.34375H10.5469V4.6875H9.76562V1.11216L11.7511 0.78125ZM8.59599 7.91323L8.60493 6.79058L8.98437 6.91699V8.04429L8.59599 7.91323ZM11.0281 13.1407C11.0647 13.1847 11.1106 13.2201 11.1625 13.2444C11.2143 13.2687 11.2709 13.2812 11.3281 13.2812H13.2812C13.3325 13.2813 13.3833 13.2712 13.4307 13.2515C13.4781 13.2319 13.5212 13.2031 13.5575 13.1668L14.4531 12.2712V13.8532L12.5 15.1553L10.5469 13.8532V12.5635L11.0281 13.1407ZM5.62011 16.4062H9.76562V15.625H8.98437V14.4531H10.038L11.8167 15.6389L7.97333 18.4341C7.92351 18.4703 7.88297 18.5178 7.85501 18.5727C7.82706 18.6276 7.81249 18.6884 7.81249 18.75V19.0698L7.78764 19.0035C7.75215 18.9088 7.68133 18.8316 7.59008 18.788C7.49883 18.7445 7.39425 18.738 7.29833 18.77L6.49702 19.0371L5.62011 16.4062ZM5.46874 21.875V20.2034L7.18828 19.6303L8.03007 21.875H5.46874ZM14.7293 19.1301C14.5332 19.1296 14.3388 19.168 14.1576 19.243C13.9763 19.3181 13.8118 19.4284 13.6734 19.5675C13.6734 19.5675 11.3862 21.8578 11.3739 21.875H8.86445L8.60078 21.1713L8.59374 21.0938V18.9489L12.7235 15.9455L14.962 14.4531H15.625V16.0156C15.625 16.1192 15.6661 16.2186 15.7394 16.2918C15.8127 16.3651 15.912 16.4062 16.0156 16.4062H18.4866L15.4758 19.3298C15.249 19.1985 14.9914 19.1296 14.7293 19.1301ZM16.9113 19.6457L16.3873 20.1696L16.0644 19.8469L22.2616 13.8296L22.8944 14.4625L17.8049 19.9155L17.4316 19.6168C17.3566 19.5568 17.262 19.5265 17.1659 19.5318C17.0699 19.5371 16.9793 19.5776 16.9113 19.6457H16.9113ZM19.102 20.9532L18.4167 20.4053L23.4473 15.0152L24.0664 15.6343L19.102 20.9532Z" fill="#333333"/>
</g>
<defs>
<clipPath id="clip0_2_2022">
<rect width="25" height="25" fill="white"/>
</clipPath>
</defs>
</svg>
