<svg width="25" height="25" viewBox="0 0 25 25" fill="none" xmlns="http://www.w3.org/2000/svg">
<g opacity="0.5" clip-path="url(#clip0_2_2032)">
<path d="M23.6328 7.00977L21.7488 5.63965C21.4254 5.40366 21.1621 5.09475 20.9804 4.73797C20.7988 4.38119 20.7038 3.9866 20.7031 3.58623V0.390625C20.7031 0.287025 20.662 0.187668 20.5887 0.114411C20.5155 0.041155 20.4161 0 20.3125 0L17.5798 0C17.4762 0 17.3768 0.041155 17.3036 0.114411C17.2303 0.187668 17.1892 0.287025 17.1892 0.390625V3.50991C17.1896 3.92806 17.0866 4.33981 16.8892 4.70847C16.6919 5.07712 16.4064 5.39122 16.0582 5.62275L13.979 7.00835C13.5236 7.31111 13.1503 7.72185 12.8922 8.20395C12.6342 8.68605 12.4994 9.22451 12.5 9.77134V21.875C12.5 22.7658 13.1896 23.5782 14.4416 24.1625C15.5989 24.7025 17.1289 25 18.75 25C20.3711 25 21.9011 24.7025 23.0584 24.1625C24.3105 23.5782 25 22.7658 25 21.875V9.69502C24.9993 9.17147 24.8751 8.65547 24.6375 8.18891C24.4 7.72235 24.0558 7.31837 23.6328 7.00977ZM19.9378 3.90625H17.9467C17.9625 3.77473 17.9704 3.64238 17.9705 3.50991V2.34375H19.9219V3.58623C19.9219 3.6936 19.9274 3.80034 19.9378 3.90625ZM19.9219 0.78125V1.5625H17.9704V0.78125H19.9219ZM22.7281 23.4545C21.672 23.9473 20.2592 24.2188 18.75 24.2188C17.2408 24.2188 15.828 23.9473 14.772 23.4545C13.8246 23.0124 13.2813 22.4365 13.2813 21.875V18.733C13.6294 19.0361 14.0204 19.2862 14.4416 19.4751C15.5989 20.015 17.1289 20.3125 18.75 20.3125C20.3711 20.3125 21.9011 20.015 23.0584 19.475C23.4796 19.2861 23.8706 19.036 24.2188 18.733V21.875C24.2188 22.4365 23.6754 23.0124 22.7281 23.4545ZM22.7281 18.767C21.672 19.2598 20.2592 19.5312 18.75 19.5312C17.2408 19.5312 15.828 19.2598 14.772 18.767C13.8246 18.3249 13.2813 17.749 13.2813 17.1875V12.8736C13.6294 13.1767 14.0204 13.4268 14.4416 13.6158C15.5989 14.1557 17.1289 14.4531 18.75 14.4531C20.3711 14.4531 21.9011 14.1557 23.0584 13.6156C23.4796 13.4267 23.8706 13.1767 24.2188 12.8736V17.1875C24.2188 17.749 23.6754 18.3249 22.7281 18.767ZM24.2188 11.3281C24.2188 11.8896 23.6754 12.4655 22.7281 12.9077C21.672 13.4004 20.2592 13.6719 18.75 13.6719C17.2408 13.6719 15.828 13.4004 14.772 12.9077C13.8246 12.4655 13.2813 11.8896 13.2813 11.3281V9.77134C13.2808 9.35319 13.3839 8.94143 13.5812 8.57277C13.7786 8.20412 14.0641 7.89003 14.4123 7.6585L16.4915 6.2729C17.0679 5.88939 17.5098 5.33498 17.7551 4.6875H20.1113C20.3347 5.32246 20.7453 5.87476 21.2891 6.27148L23.1729 7.64155C23.4964 7.87752 23.7597 8.18643 23.9414 8.54322C24.1231 8.90001 24.2181 9.29462 24.2188 9.69502V11.3281Z" fill="#333333"/>
<path d="M18.9453 14.8438C18.5204 14.8438 18.105 14.9698 17.7517 15.2058C17.3984 15.4419 17.123 15.7774 16.9604 16.17C16.7978 16.5626 16.7553 16.9946 16.8382 17.4113C16.9211 17.8281 17.1257 18.2109 17.4261 18.5114C17.7266 18.8118 18.1094 19.0165 18.5262 19.0993C18.9429 19.1822 19.3749 19.1397 19.7675 18.9771C20.1601 18.8145 20.4956 18.5391 20.7317 18.1858C20.9678 17.8325 21.0938 17.4171 21.0938 16.9922C21.0931 16.4226 20.8666 15.8765 20.4638 15.4737C20.061 15.071 19.5149 14.8444 18.9453 14.8438ZM18.9453 18.3594C18.6749 18.3594 18.4106 18.2792 18.1857 18.129C17.9609 17.9787 17.7857 17.7652 17.6822 17.5154C17.5787 17.2656 17.5516 16.9907 17.6044 16.7255C17.6572 16.4603 17.7874 16.2166 17.9786 16.0254C18.1698 15.8342 18.4134 15.704 18.6786 15.6513C18.9438 15.5985 19.2187 15.6256 19.4685 15.7291C19.7183 15.8326 19.9319 16.0078 20.0821 16.2326C20.2323 16.4575 20.3125 16.7218 20.3125 16.9922C20.3121 17.3547 20.1679 17.7022 19.9116 17.9585C19.6553 18.2148 19.3078 18.359 18.9453 18.3594Z" fill="#333333"/>
<path d="M11.6983 15.2349C10.916 15.2766 10.1388 15.3852 9.375 15.5596V14.8438C9.375 14.8203 9.3729 14.7969 9.3687 14.7739C9.18569 13.7673 8.71099 12.9082 7.99595 12.2894C7.26929 11.6605 6.34868 11.3281 5.33369 11.3281H0.390625C0.339316 11.328 0.288489 11.338 0.241069 11.3576C0.193648 11.3772 0.150569 11.406 0.114308 11.4423C0.0780466 11.4786 0.0493194 11.5217 0.0297778 11.5692C0.0102361 11.6166 0.000265565 11.6674 0.000439453 11.7188H0V14.0625C0.00132986 15.1104 0.384999 16.1218 1.07902 16.907C1.77304 17.6921 2.72971 18.197 3.76953 18.327C2.16697 19.675 0.889834 21.3679 0.0335938 23.2791C0.00720278 23.3385 -0.00391583 23.4036 0.00124745 23.4685C0.00641073 23.5334 0.0276924 23.5959 0.06316 23.6504C0.0986277 23.705 0.147158 23.7498 0.204345 23.7808C0.261531 23.8119 0.325563 23.8281 0.390625 23.8281H3.5542C3.67183 23.8281 3.78921 23.8232 3.90625 23.8145V23.8281H6.92334C8.29829 23.8266 9.61647 23.2797 10.5887 22.3075C11.5609 21.3352 12.1078 20.017 12.1094 18.6421V15.625C12.1094 15.572 12.0986 15.5195 12.0777 15.4708C12.0567 15.4221 12.0261 15.3782 11.9876 15.3417C11.9492 15.3052 11.9037 15.2769 11.854 15.2585C11.8042 15.2402 11.7513 15.2321 11.6983 15.2349ZM9.42725 17.3024L4.15117 21.875H2.82715C3.02783 21.1344 3.60552 19.5454 5.05098 18.3594H5.07812V18.3376C5.26858 18.1827 5.4683 18.0397 5.67617 17.9091L5.67988 17.9069C5.72295 17.8801 5.76602 17.8542 5.80908 17.8282C7.04507 17.0938 8.28301 16.9153 9.42725 17.3024ZM5.33369 12.1094C6.99702 12.1094 8.27314 13.1956 8.59375 14.8797V15.625H8.39844L6.75781 13.4375C6.5389 13.1471 6.25569 12.9113 5.93038 12.7486C5.60507 12.586 5.24651 12.5009 4.88281 12.5H1.62881L1.27368 12.1094H5.33369ZM7.42188 15.625H6.0249C5.53513 15.6246 5.05082 15.522 4.60291 15.3239C4.15501 15.1257 3.75335 14.8363 3.42358 14.4742L2.33887 13.2813H4.88281C5.12528 13.2818 5.36432 13.3385 5.5812 13.447C5.79807 13.5554 5.98688 13.7126 6.13281 13.9063L7.42188 15.625ZM4.29688 17.5781C3.36479 17.5771 2.47119 17.2063 1.81211 16.5473C1.15303 15.8882 0.782297 14.9946 0.78125 14.0625V12.7292L2.84541 14.9997C3.24847 15.4423 3.7394 15.796 4.28686 16.0382C4.83432 16.2804 5.42626 16.4057 6.0249 16.4063H6.84136C6.3541 16.6252 5.88045 16.8731 5.42295 17.1489C5.37588 17.1767 5.32886 17.2054 5.28193 17.2346C5.27544 17.2386 5.26899 17.2423 5.2624 17.2464L5.26182 17.2468L5.26128 17.2471L5.25361 17.252C5.08288 17.3583 4.91707 17.467 4.7562 17.5781H4.29688ZM6.92334 23.0469H6.20557C6.3152 22.9763 6.42202 22.9015 6.52603 22.8223L10.1891 20.0211C10.6365 19.6782 11.0211 19.2602 11.3256 18.7857C11.2871 19.928 10.8065 21.0107 9.9853 21.8056C9.16406 22.6005 8.06628 23.0456 6.92334 23.0469ZM11.3281 16.1349C11.3263 16.7662 11.1799 17.3888 10.9002 17.9549C10.6205 18.5209 10.2148 19.0154 9.7144 19.4003L6.05137 22.2015C5.33357 22.7483 4.45655 23.0452 3.5542 23.0469H1.00815C1.36937 22.3334 1.7944 21.6541 2.27803 21.0173C2.0522 21.6199 1.96113 22.0836 1.95352 22.2478C1.9511 22.3005 1.9594 22.3532 1.97793 22.4026C1.99645 22.4521 2.0248 22.4973 2.06128 22.5355C2.09775 22.5736 2.14159 22.604 2.19014 22.6248C2.23869 22.6456 2.29095 22.6563 2.34375 22.6563H4.29688C4.39085 22.6563 4.48167 22.6224 4.55269 22.5608L10.4121 17.4827C10.4615 17.4395 10.4993 17.3845 10.5219 17.3228C10.5446 17.2612 10.5513 17.1948 10.5416 17.1298C10.5319 17.0649 10.506 17.0034 10.4663 16.951C10.4266 16.8987 10.3744 16.8572 10.3144 16.8303C10.3046 16.8258 10.2905 16.8187 10.2724 16.8097C9.91494 16.6317 9.53595 16.5009 9.14487 16.4203C9.86056 16.2327 10.591 16.1066 11.3281 16.0434V16.1349Z" fill="#333333"/>
<path d="M14.8438 14.4531H14.0625V16.7969H14.8438V14.4531Z" fill="#333333"/>
</g>
<defs>
<clipPath id="clip0_2_2032">
<rect width="25" height="25" fill="white"/>
</clipPath>
</defs>
</svg>
