<svg width="25" height="25" viewBox="0 0 25 25" fill="none" xmlns="http://www.w3.org/2000/svg">
<g opacity="0.5" clip-path="url(#clip0_2_2012)">
<path d="M4.30398 21.9748C5.3271 22.3444 6.40726 22.5312 7.49509 22.5265C8.68297 22.5225 9.86178 22.3195 10.9826 21.926C13.2356 21.1423 15.1063 19.6841 16.25 17.8199C17.4093 15.9305 17.6863 13.8511 17.0301 11.9644C17.0173 11.9285 17.0027 11.8933 16.9861 11.859C17.1508 11.9755 17.3393 12.0541 17.538 12.0889C17.7367 12.1238 17.9407 12.114 18.1352 12.0604L24.3355 9.05184C24.4756 8.98452 24.6009 8.88999 24.7041 8.77378C24.8073 8.65756 24.8864 8.52196 24.9367 8.37489C24.987 8.22782 25.0076 8.0722 24.9972 7.91711C24.9868 7.76202 24.9456 7.61055 24.8761 7.47152L24.7846 7.28856C24.6496 7.01748 24.4148 6.8093 24.1295 6.70781C23.8442 6.60631 23.5306 6.6194 23.2548 6.74432L17.4158 9.41034C17.1249 9.49106 16.8685 9.6651 16.6861 9.9057C16.5037 10.1463 16.4054 10.4401 16.4062 10.7421C16.4062 10.8971 16.4326 11.051 16.4844 11.1971L16.3695 11.2737C14.8367 10.5071 11.1193 11.1251 7.64607 12.3332C7.442 12.4042 7.23855 12.4773 7.03572 12.5527C6.65188 11.1306 7.64519 10.0956 7.69924 10.0408L7.14583 9.48944C6.76731 9.89878 6.48417 10.3869 6.31677 10.9187C6.11912 11.5416 6.11366 12.2096 6.3011 12.8357C5.6761 13.0852 5.07551 13.3491 4.5072 13.6232C4.19202 12.4532 4.16404 11.246 4.20696 10.3736C4.21538 10.1975 4.18853 10.0216 4.12798 9.85601C4.06744 9.69045 3.97442 9.53867 3.85439 9.40957C3.73436 9.28047 3.58974 9.17666 3.42903 9.10424C3.26832 9.03181 3.09476 8.99224 2.91854 8.98783C2.74231 8.98342 2.56699 9.01428 2.40286 9.07858C2.23873 9.14289 2.08911 9.23934 1.96278 9.36228C1.83645 9.48522 1.73596 9.63217 1.66722 9.79449C1.59847 9.95681 1.56286 10.1312 1.56248 10.3075V13.0702C1.56236 13.1261 1.54006 13.1798 1.50048 13.2193C1.46089 13.2589 1.40724 13.2811 1.35129 13.2811C1.22048 13.2811 1.09094 13.3069 0.970144 13.3571C0.849346 13.4073 0.73967 13.4809 0.647428 13.5737C0.555185 13.6665 0.482198 13.7765 0.432666 13.8976C0.383133 14.0187 0.358035 14.1484 0.358814 14.2792C0.376131 14.913 0.489075 15.5405 0.693823 16.1406C0.0961183 16.7805 -0.117651 17.3605 0.0585695 17.8673C0.714868 19.7539 2.22258 21.2127 4.30398 21.9748ZM10.726 21.1878C8.64285 21.9124 6.45759 21.9314 4.57258 21.2412C3.17981 20.7312 2.07747 19.8786 1.36946 18.7834C1.77791 18.8634 2.19354 18.9008 2.60969 18.8951C2.84898 18.8951 3.10452 18.8857 3.37629 18.8671C4.72312 18.7747 6.34402 18.4534 8.04509 17.9484C8.07927 17.9538 9.01072 17.6487 9.44285 17.4984C10.4285 17.1573 11.3959 16.7653 12.341 16.3242L12.3609 16.3149C13.3828 15.834 14.2973 15.3225 15.0493 14.8069C15.7221 14.3457 16.2288 13.9091 16.5696 13.4974C16.8635 16.6169 14.4805 19.8819 10.726 21.1878ZM14.7927 13.3265C14.7104 14.0267 14.5733 14.1709 14.5675 14.1767L14.5751 14.1843C14.2517 14.4045 13.897 14.6242 13.5155 14.8409C13.7704 14.3364 13.9388 13.7926 14.0136 13.2323C14.0265 13.1377 14.0732 13.051 14.1451 12.9881C14.217 12.9253 14.3092 12.8906 14.4047 12.8905C14.4599 12.8905 14.5144 12.9022 14.5647 12.9247C14.615 12.9473 14.66 12.9803 14.6966 13.0214C14.7333 13.0626 14.7608 13.1111 14.7774 13.1637C14.794 13.2163 14.7992 13.2718 14.7928 13.3266L14.7927 13.3265ZM23.5767 7.45594C23.6686 7.41452 23.773 7.41031 23.8679 7.4442C23.9628 7.47808 24.0409 7.54743 24.0858 7.63768L24.1773 7.82064C24.2006 7.86714 24.2143 7.91781 24.2177 7.96969C24.2211 8.02157 24.2142 8.07361 24.1972 8.12275C24.1802 8.1719 24.1536 8.21717 24.119 8.2559C24.0843 8.29463 24.0422 8.32606 23.9952 8.34832L19.1399 10.7135C19.136 10.5204 19.091 10.3303 19.0081 10.1558C18.9251 9.9813 18.8061 9.82642 18.6588 9.7014L23.5767 7.45594ZM17.7734 10.1561C17.8956 10.156 18.0149 10.1941 18.1143 10.2652C18.2138 10.3362 18.2885 10.4366 18.328 10.5523C18.3675 10.668 18.3698 10.7931 18.3345 10.9102C18.2992 11.0272 18.2282 11.1303 18.1314 11.2049L17.9166 11.3097C17.8471 11.328 17.7747 11.3327 17.7034 11.3234L17.7949 11.2624C17.8382 11.2342 17.8754 11.1977 17.9044 11.155C17.9335 11.1124 17.9538 11.0644 17.9641 11.0138C17.9745 10.9632 17.9748 10.9111 17.9649 10.8604C17.955 10.8098 17.9351 10.7616 17.9065 10.7186C17.8779 10.6757 17.841 10.6388 17.798 10.6102C17.7551 10.5816 17.7069 10.5617 17.6562 10.5519C17.6055 10.542 17.5534 10.5423 17.5028 10.5527C17.4523 10.5631 17.4043 10.5834 17.3616 10.6124L17.1884 10.7279C17.1921 10.5752 17.2554 10.4299 17.3647 10.3231C17.474 10.2163 17.6206 10.1564 17.7734 10.1561ZM7.12175 14.3125L7.72195 13.8123C7.5801 13.6434 7.4527 13.4628 7.34109 13.2724C7.52747 13.2036 7.71511 13.1364 7.90261 13.0711C10.0388 12.3281 12.1214 11.8567 13.766 11.7439C14.5313 11.6914 15.1763 11.722 15.6312 11.8324C16.0014 11.9222 16.236 12.0601 16.2919 12.2209C16.3478 12.3817 16.2494 12.6355 16.015 12.9356C15.8793 13.105 15.7302 13.2633 15.5692 13.4089C15.6022 13.1021 15.513 12.7946 15.321 12.5531C15.1289 12.3115 14.8494 12.1553 14.5431 12.1183C14.2367 12.0813 13.9281 12.1665 13.6841 12.3553C13.44 12.5442 13.2802 12.8216 13.2392 13.1274C13.0407 14.5879 12.1774 15.439 11.9365 15.651C11.0388 16.0666 10.1207 16.4369 9.18582 16.7605C8.78731 16.8991 8.39154 17.0281 7.99851 17.1473C6.4552 16.8495 5.36399 15.9169 4.75295 14.3716C5.33557 14.0874 5.95608 13.8141 6.60271 13.5561C6.75057 13.8246 6.92442 14.0779 7.12175 14.3125ZM1.20115 14.1248C1.22077 14.1049 1.24415 14.0892 1.26994 14.0785C1.29572 14.0677 1.32338 14.0623 1.35129 14.0624C1.61441 14.0621 1.86667 13.9574 2.05272 13.7714C2.23877 13.5853 2.34343 13.3331 2.34373 13.07V10.3075C2.34382 10.1638 2.40095 10.026 2.50257 9.92436C2.6042 9.82273 2.742 9.7656 2.88572 9.76551C2.95919 9.76555 3.03189 9.78052 3.0994 9.80953C3.16691 9.83853 3.22782 9.88096 3.27842 9.93424C3.32902 9.98751 3.36826 10.0505 3.39376 10.1194C3.41925 10.1883 3.43047 10.2617 3.42673 10.3351C3.37087 11.47 3.42893 13.1396 4.02278 14.6487C4.36482 15.5178 4.84861 16.233 5.46062 16.7743C5.80915 17.0817 6.20142 17.3356 6.62459 17.5276C5.7312 17.7588 4.82292 17.928 3.90623 18.0341L3.57991 17.974C2.70745 17.8285 2.04485 17.2773 1.61047 16.3357C1.32049 15.6859 1.1607 14.9856 1.14016 14.2743C1.13989 14.2466 1.14514 14.2191 1.15561 14.1934C1.16608 14.1677 1.18156 14.1444 1.20115 14.1248ZM0.796509 17.6107C0.742456 17.4554 0.831909 17.2184 1.04026 16.9404C1.27086 17.3785 1.58598 17.7665 1.96741 18.0821C1.79566 18.0661 1.62522 18.0384 1.45725 17.9991C1.08728 17.9094 0.85271 17.7715 0.796655 17.6109V17.6106L0.796509 17.6107Z" fill="#333333"/>
<path d="M3.51563 5.07812C3.28385 5.07812 3.05728 5.14685 2.86457 5.27562C2.67185 5.40439 2.52165 5.58741 2.43295 5.80154C2.34426 6.01567 2.32105 6.2513 2.36627 6.47862C2.41148 6.70594 2.5231 6.91475 2.68698 7.07864C2.85087 7.24253 3.05968 7.35414 3.287 7.39935C3.51433 7.44457 3.74995 7.42136 3.96408 7.33267C4.17821 7.24397 4.36124 7.09377 4.49 6.90106C4.61877 6.70834 4.6875 6.48177 4.6875 6.25C4.68715 5.93931 4.56357 5.64144 4.34388 5.42174C4.12419 5.20205 3.82632 5.07847 3.51563 5.07812ZM3.51563 6.64062C3.43837 6.64062 3.36284 6.61771 3.29861 6.57479C3.23437 6.53187 3.1843 6.47086 3.15474 6.39948C3.12517 6.32811 3.11743 6.24957 3.13251 6.17379C3.14758 6.09802 3.18478 6.02842 3.23941 5.97379C3.29404 5.91916 3.36364 5.88195 3.43942 5.86688C3.51519 5.85181 3.59373 5.85954 3.66511 5.88911C3.73649 5.91867 3.7975 5.96874 3.84042 6.03298C3.88334 6.09722 3.90625 6.17274 3.90625 6.25C3.90613 6.35356 3.86494 6.45285 3.79171 6.52608C3.71848 6.59931 3.61919 6.64051 3.51563 6.64062Z" fill="#333333"/>
<path d="M7.42187 3.51563C7.42187 3.28385 7.35314 3.05728 7.22438 2.86457C7.09561 2.67185 6.91259 2.52165 6.69846 2.43295C6.48432 2.34426 6.2487 2.32105 6.02138 2.36627C5.79406 2.41148 5.58525 2.5231 5.42136 2.68698C5.25747 2.85087 5.14586 3.05968 5.10064 3.287C5.05543 3.51433 5.07863 3.74995 5.16733 3.96408C5.25603 4.17821 5.40623 4.36124 5.59894 4.49C5.79165 4.61877 6.01822 4.6875 6.25 4.6875C6.56069 4.68715 6.85856 4.56357 7.07825 4.34388C7.29795 4.12419 7.42152 3.82632 7.42187 3.51563ZM5.85937 3.51563C5.85937 3.43837 5.88228 3.36284 5.92521 3.29861C5.96813 3.23437 6.02914 3.1843 6.10051 3.15474C6.17189 3.12517 6.25043 3.11743 6.32621 3.13251C6.40198 3.14758 6.47158 3.18478 6.52621 3.23941C6.58084 3.29404 6.61805 3.36364 6.63312 3.43942C6.64819 3.51519 6.64045 3.59373 6.61089 3.66511C6.58132 3.73649 6.53126 3.7975 6.46702 3.84042C6.40278 3.88334 6.32726 3.90625 6.25 3.90625C6.14643 3.90613 6.04715 3.86494 5.97391 3.79171C5.90068 3.71848 5.85949 3.61919 5.85937 3.51563Z" fill="#333333"/>
<path d="M5.07812 7.8125H5.85938V8.59375H5.07812V7.8125Z" fill="#333333"/>
<path d="M4.6875 11.3281H5.46875V12.1094H4.6875V11.3281Z" fill="#333333"/>
<path d="M7.03125 14.8438H7.8125V15.625H7.03125V14.8438Z" fill="#333333"/>
<path d="M0.78125 7.42188H1.5625V8.20312H0.78125V7.42188Z" fill="#333333"/>
<path d="M4.08022 17.9032L4.51357 17.2532C3.55889 16.6167 3.51675 16.0303 3.51563 16.0057C3.51597 16.0123 3.51563 16.0157 3.51563 16.0157H2.73438C2.73438 16.1171 2.77212 17.0313 4.08022 17.9032Z" fill="#333333"/>
<path d="M7.93403 6.03948C8.09539 5.79537 8.27799 5.56598 8.47969 5.35398L7.9269 4.80188C7.87441 4.85442 6.64062 6.10349 6.64062 7.42185H7.42188C7.42188 7.02351 7.59897 6.54548 7.93403 6.03948Z" fill="#333333"/>
</g>
<defs>
<clipPath id="clip0_2_2012">
<rect width="25" height="25" fill="white"/>
</clipPath>
</defs>
</svg>
