<svg width="25" height="25" viewBox="0 0 25 25" fill="none" xmlns="http://www.w3.org/2000/svg">
<g opacity="0.5" clip-path="url(#clip0_2_2037)">
<path d="M24.6436 19.3736C24.6136 19.2519 24.6259 19.0826 24.6387 18.9034C24.6605 18.6021 24.6853 18.2607 24.5253 17.9446C24.3716 17.6407 24.0912 17.46 23.8438 17.3004C23.6869 17.1993 23.5387 17.1038 23.4566 17C23.381 16.9044 23.3254 16.742 23.2666 16.5701C23.171 16.2912 23.0628 15.975 22.8043 15.7443C22.5604 15.5268 22.2463 15.4544 21.9693 15.3906C21.8915 15.3727 21.8157 15.3551 21.7453 15.3354C21.7164 15.2511 21.6855 15.1694 21.6549 15.0892C21.6014 14.9576 21.5558 14.8229 21.5186 14.6858C21.4886 14.564 21.5009 14.3948 21.5137 14.2156C21.5355 13.9143 21.5603 13.5729 21.4003 13.2567C21.2466 12.9529 20.9662 12.7721 20.7188 12.6126C20.5619 12.5115 20.4137 12.4159 20.3316 12.3122C20.256 12.2166 20.2004 12.0542 20.1416 11.8823C20.046 11.6034 19.9378 11.2872 19.6793 11.0565C19.4354 10.839 19.1213 10.7667 18.8443 10.7028C18.6572 10.6598 18.4805 10.6191 18.3673 10.5452C18.2648 10.4781 18.1609 10.3371 18.0512 10.1877C17.8807 9.95566 17.6875 9.69268 17.3832 9.54761C17.0935 9.40947 16.7767 9.42275 16.4975 9.43447C16.3038 9.44263 16.1207 9.45024 15.9925 9.40728C15.875 9.36787 15.7386 9.25469 15.5942 9.13486C15.3756 8.95352 15.128 8.748 14.8038 8.67876C14.4923 8.61226 14.1891 8.6957 13.9216 8.76934C13.7339 8.821 13.5566 8.86982 13.4227 8.85591C13.2986 8.84307 13.1402 8.76113 12.9725 8.67437C12.7219 8.54492 12.438 8.39795 12.1094 8.39795C11.7807 8.39795 11.4968 8.54482 11.2463 8.67441C11.0786 8.76118 10.9201 8.84316 10.7961 8.85596C10.662 8.86987 10.4848 8.82104 10.2972 8.76938C10.0297 8.6957 9.72651 8.61226 9.41494 8.67881C9.09077 8.748 8.84307 8.95356 8.62451 9.13491C8.48008 9.25474 8.3437 9.36792 8.22617 9.40732C8.098 9.45029 7.91499 9.44258 7.72129 9.43452C7.44194 9.4228 7.12524 9.40957 6.8356 9.54766C6.5313 9.69272 6.33809 9.95571 6.16763 10.1877C6.05791 10.3371 5.9543 10.4782 5.85156 10.5452C5.73838 10.6191 5.56167 10.6598 5.37456 10.7028C5.17729 10.7482 4.96143 10.7982 4.76538 10.9016C3.45464 10.7848 2.13604 10.6229 0.835645 10.4182C0.866699 10.3132 0.907813 10.2055 0.950049 10.0948C1.01542 9.93326 1.07059 9.76775 1.11523 9.59927C1.17461 9.35767 1.15645 9.10713 1.14043 8.88608C1.12451 8.6666 1.10952 8.45933 1.17168 8.33643C1.22974 8.22168 1.40752 8.10693 1.57949 7.99624C1.77358 7.87114 1.9936 7.7293 2.1561 7.52383C2.3148 7.32319 2.39858 7.07832 2.47251 6.86226C2.54316 6.65586 2.60986 6.46089 2.71567 6.3665C2.80996 6.28237 3.01128 6.23604 3.20601 6.19121C3.43999 6.1375 3.70522 6.07632 3.93477 5.92651C4.15625 5.78198 4.31416 5.56699 4.45352 5.37729C4.58071 5.2041 4.70093 5.04038 4.82798 4.97993C4.94268 4.92524 5.13799 4.93345 5.34487 4.94209C5.58901 4.95229 5.86572 4.96387 6.13071 4.8751C6.38662 4.78931 6.59546 4.61602 6.77969 4.46313C6.94341 4.32725 7.0981 4.19893 7.23433 4.16982C7.35933 4.14321 7.54717 4.19482 7.74605 4.24961C7.98345 4.31494 8.25254 4.38906 8.53276 4.36006C8.80396 4.33198 9.04702 4.20625 9.26152 4.09531C9.44951 3.9979 9.62705 3.90625 9.76562 3.90625C9.9042 3.90625 10.0817 3.9981 10.2696 4.09536C10.4841 4.2063 10.7272 4.33208 10.9984 4.36011C11.2784 4.3894 11.5477 4.31504 11.7851 4.24966C11.984 4.19492 12.1719 4.14316 12.2968 4.16987C12.4331 4.19917 12.5877 4.32729 12.7515 4.46313C12.9357 4.61602 13.1445 4.78936 13.4004 4.8751C13.6654 4.96387 13.9421 4.95234 14.1863 4.94209C14.3932 4.9335 14.5885 4.92524 14.7032 4.97993C14.8302 5.04048 14.9505 5.2041 15.0777 5.37729C15.2171 5.56699 15.375 5.78203 15.5965 5.92656C15.826 6.07632 16.0913 6.1374 16.3252 6.19121C16.5199 6.23604 16.7213 6.28237 16.8156 6.3665C16.9214 6.46094 16.9881 6.65591 17.0588 6.86235C17.1328 7.07837 17.2166 7.32324 17.3752 7.52388C17.5377 7.72935 17.7577 7.87119 17.9518 7.99629C18.1237 8.10713 18.3016 8.22178 18.3596 8.33647C18.4218 8.45937 18.4068 8.66665 18.3909 8.88613C18.3749 9.10718 18.3567 9.35771 18.4161 9.59932C18.4607 9.76776 18.5158 9.93324 18.5812 10.0948C18.6292 10.2206 18.6746 10.3393 18.7063 10.4551L19.4598 10.2485C19.418 10.0961 19.3637 9.95381 19.3111 9.81616C19.2576 9.68458 19.212 9.54987 19.1748 9.41279C19.1448 9.29102 19.1571 9.12178 19.1699 8.94258C19.1917 8.64131 19.2165 8.29985 19.0565 7.98374C18.9028 7.67988 18.6224 7.49912 18.375 7.3396C18.2181 7.23848 18.0699 7.14292 17.9878 7.03921C17.9122 6.94355 17.8566 6.78115 17.7978 6.60923C17.7022 6.33032 17.594 6.01416 17.3355 5.7835C17.0917 5.56592 16.7775 5.4936 16.5005 5.42979C16.3134 5.38672 16.1367 5.34604 16.0235 5.27217C15.921 5.20508 15.8171 5.06401 15.7074 4.91465C15.5369 4.68262 15.3437 4.41963 15.0394 4.27456C14.7496 4.13643 14.4329 4.14966 14.1537 4.16143C13.96 4.16958 13.7769 4.17725 13.6487 4.13423C13.5312 4.09482 13.3948 3.98164 13.2504 3.86182C13.0318 3.68047 12.7842 3.47495 12.46 3.40571C12.1485 3.33916 11.8453 3.42266 11.5778 3.49634C11.3901 3.548 11.2128 3.59678 11.0789 3.58291C10.9548 3.57007 10.7964 3.48813 10.6287 3.40137C10.3782 3.27148 10.0943 3.125 9.76562 3.125C9.43696 3.125 9.15303 3.27148 8.90259 3.40127C8.73486 3.48804 8.57642 3.57002 8.45239 3.58281C8.31816 3.59673 8.14106 3.5479 7.95342 3.49624C7.68594 3.42261 7.38271 3.33916 7.07119 3.40566C6.74702 3.4749 6.49932 3.68042 6.28081 3.86182C6.13638 3.98164 6 4.09482 5.88247 4.13423C5.7543 4.1772 5.57129 4.16953 5.37759 4.16143C5.09829 4.14971 4.78159 4.13647 4.49189 4.27456C4.18755 4.41963 3.99414 4.68262 3.82388 4.91465C3.71416 5.06401 3.61055 5.20508 3.50781 5.27212C3.39463 5.346 3.21792 5.38667 3.03081 5.42974C2.75361 5.49355 2.43945 5.56587 2.19585 5.78345C1.9373 6.01416 1.8291 6.33032 1.73364 6.60918C1.6748 6.7811 1.61924 6.94346 1.54355 7.03911C1.46152 7.14282 1.31333 7.23838 1.15645 7.3395C0.909033 7.49902 0.628564 7.67979 0.474854 7.98359C0.314893 8.29976 0.339648 8.64121 0.361475 8.94248C0.374463 9.12168 0.386768 9.29097 0.356592 9.4127C0.319276 9.54981 0.273718 9.68454 0.220166 9.81616C0.117187 10.0865 3.35984e-10 10.393 3.35984e-10 10.7422C-3.83848e-06 10.8348 0.032888 10.9244 0.0928082 10.995C0.152728 11.0656 0.23578 11.1126 0.327148 11.1276C1.59575 11.3362 2.88394 11.5042 4.16802 11.6303C4.13433 11.7155 4.10508 11.8005 4.07705 11.8824C4.01821 12.0543 3.9626 12.2167 3.88696 12.3124C3.80493 12.4161 3.65674 12.5116 3.49985 12.6127C3.25244 12.7722 2.97197 12.953 2.81826 13.2568C2.6583 13.5729 2.68306 13.9144 2.70488 14.2157C2.71787 14.3949 2.73018 14.5642 2.7 14.6859C2.66269 14.823 2.61713 14.9577 2.56357 15.0893C2.46094 15.3596 2.34375 15.6661 2.34375 16.0151V16.3468L2.6709 16.4005C4.1147 16.6378 5.58408 16.8229 7.04414 16.953C7.03435 16.9692 7.02362 16.9849 7.01201 16.9999C6.92998 17.1036 6.78179 17.1992 6.6249 17.3003C6.37749 17.4598 6.09702 17.6406 5.94331 17.9444C5.78335 18.2605 5.80811 18.602 5.82993 18.9033C5.84292 19.0825 5.85522 19.2518 5.82505 19.3735C5.78774 19.5106 5.74218 19.6453 5.68862 19.777C5.58594 20.0474 5.46875 20.3539 5.46875 20.7031V21.0348L5.7959 21.0885C8.98121 21.6113 12.2038 21.8744 15.4317 21.875C15.4964 21.875 15.5616 21.875 15.6263 21.8747C19.1663 21.863 24.6096 21.0973 24.6644 21.0896L25.0001 21.042V20.7031C25.0001 20.3541 24.883 20.0477 24.78 19.7773C24.7264 19.6456 24.6809 19.5108 24.6436 19.3736ZM3.29385 15.3678C3.35922 15.2062 3.41439 15.0407 3.45903 14.8722C3.51841 14.6306 3.50024 14.3801 3.48423 14.159C3.46831 13.9396 3.45332 13.7323 3.51548 13.6094C3.57349 13.4947 3.75132 13.3799 3.92324 13.2692C4.11738 13.1441 4.33735 13.0023 4.49985 12.7968C4.65855 12.5962 4.74233 12.3513 4.81626 12.1353C4.8731 11.9692 4.92778 11.8114 5.00181 11.7065C5.01645 11.7078 5.0311 11.7092 5.04575 11.7104L5.05088 11.6485C5.05381 11.6457 5.05645 11.6421 5.05942 11.6395C5.15371 11.5553 5.35503 11.509 5.54976 11.4642C5.78374 11.4104 6.04893 11.3493 6.27847 11.1995C6.49995 11.0549 6.65786 10.8399 6.79722 10.6502C6.92441 10.4771 7.04463 10.3133 7.17168 10.2529C7.28633 10.1982 7.48169 10.2063 7.68853 10.2151C7.93267 10.2253 8.20947 10.2369 8.47437 10.1481C8.73022 10.0623 8.93911 9.88901 9.12334 9.73613C9.28706 9.60029 9.4417 9.47192 9.57798 9.44287C9.70298 9.41616 9.89082 9.46792 10.0897 9.52266C10.3271 9.58799 10.5962 9.66211 10.8764 9.63311C11.1476 9.60503 11.3907 9.4793 11.6051 9.36836C11.7931 9.27109 11.9707 9.17925 12.1092 9.17925C12.2478 9.17925 12.4253 9.27109 12.6132 9.36831C12.8277 9.47925 13.0708 9.60503 13.342 9.63306C13.6222 9.66235 13.8913 9.58799 14.1287 9.52261C14.3276 9.46782 14.5153 9.41616 14.6404 9.44282C14.7767 9.47212 14.9313 9.60024 15.095 9.73608C15.2792 9.88897 15.4881 10.0623 15.744 10.148C16.0089 10.2368 16.2857 10.2253 16.5298 10.215C16.7367 10.2064 16.9321 10.1982 17.0468 10.2529C17.1737 10.3134 17.294 10.4771 17.4212 10.6502C17.5606 10.8399 17.7185 11.0549 17.94 11.1995C18.1695 11.3493 18.4348 11.4104 18.6688 11.4642C18.8634 11.509 19.0648 11.5554 19.1591 11.6395C19.2649 11.7339 19.3316 11.9289 19.4023 12.1353C19.4763 12.3514 19.5601 12.5962 19.7187 12.7968C19.8812 13.0023 20.1012 13.1441 20.2953 13.2692C20.4672 13.3801 20.6451 13.4947 20.7031 13.6094C20.7653 13.7323 20.7503 13.9396 20.7344 14.1591C20.7295 14.2263 20.7246 14.2965 20.7217 14.3682C20.6554 14.3164 20.5837 14.2719 20.508 14.2354C20.2182 14.0974 19.9016 14.1105 19.6222 14.1223C19.4284 14.1304 19.2454 14.1381 19.1173 14.0951C18.9998 14.0557 18.8634 13.9425 18.7189 13.8227C18.6572 13.7715 18.593 13.7184 18.5256 13.6669L19.0261 13.1664L18.4737 12.614L17.7441 13.3437C17.4981 13.3331 17.2607 13.3982 17.0465 13.4572C16.8589 13.5089 16.6815 13.5577 16.5476 13.5438C16.4236 13.531 16.2652 13.449 16.0975 13.3623C15.8469 13.2324 15.563 13.0859 15.2344 13.0859C14.9057 13.0859 14.6218 13.2328 14.3713 13.3624C14.2036 13.4492 14.0452 13.5312 13.9211 13.5439C13.7869 13.5579 13.6098 13.509 13.4222 13.4574C13.1547 13.3837 12.8515 13.3002 12.54 13.3668C12.2158 13.436 11.9681 13.6416 11.7496 13.8229C11.6051 13.9428 11.4688 14.056 11.3512 14.0954C11.223 14.1383 11.0401 14.1307 10.8463 14.1226C10.567 14.1109 10.2503 14.0977 9.96064 14.2357C9.65635 14.3808 9.46313 14.6438 9.29268 14.8758C9.18296 15.0251 9.07935 15.1662 8.97661 15.2333C8.86343 15.3071 8.68672 15.3478 8.49961 15.3909C8.22241 15.4547 7.90825 15.527 7.66465 15.7446C7.52801 15.8711 7.4193 16.0247 7.34546 16.1956C5.95684 16.0776 4.55796 15.9085 3.17974 15.6914C3.2105 15.5859 3.25161 15.4785 3.29385 15.3678ZM15.6237 21.0938C12.5033 21.1033 9.38698 20.8643 6.30444 20.3791C6.3355 20.2741 6.37661 20.1665 6.41885 20.0558C6.48422 19.8942 6.53939 19.7287 6.58403 19.5602C6.64341 19.3186 6.62524 19.0681 6.60923 18.847C6.59331 18.6276 6.57832 18.4203 6.64048 18.2973C6.69853 18.1826 6.87632 18.0678 7.04829 17.9572C7.24238 17.8321 7.4624 17.6902 7.6249 17.4848C7.78359 17.2841 7.86738 17.0393 7.94131 16.8232C8.01196 16.6168 8.07866 16.4218 8.18447 16.3274C8.27876 16.2433 8.48008 16.197 8.6748 16.1521C8.90879 16.0984 9.17402 16.0373 9.40356 15.8875C9.62505 15.7429 9.78296 15.5279 9.92231 15.3382C10.0495 15.165 10.1697 15.0013 10.2968 14.9409C10.4114 14.8862 10.6068 14.8944 10.8137 14.903C11.0578 14.9132 11.3345 14.9248 11.5995 14.836C11.8554 14.7502 12.0643 14.577 12.2485 14.4241C12.4122 14.2882 12.5669 14.1599 12.7031 14.1308C12.8283 14.1042 13.016 14.1558 13.2148 14.2105C13.4523 14.2759 13.7213 14.35 14.0016 14.321C14.2728 14.2929 14.5158 14.1672 14.7303 14.0563C14.9183 13.9588 15.0958 13.8672 15.2344 13.8672C15.3729 13.8672 15.5504 13.959 15.7384 14.0563C15.9528 14.1672 16.1959 14.293 16.4671 14.321C16.7474 14.3503 17.0165 14.276 17.2539 14.2106C17.4527 14.1559 17.6407 14.1041 17.7656 14.1308C17.9019 14.1601 18.0565 14.2882 18.2202 14.4241C18.4044 14.577 18.6133 14.7503 18.8692 14.836C19.1341 14.9248 19.4108 14.9133 19.655 14.903C19.8619 14.8944 20.0573 14.8862 20.172 14.9409C20.2989 15.0014 20.4192 15.165 20.5465 15.3382C20.6858 15.5279 20.8438 15.7429 21.0653 15.8875C21.2948 16.0373 21.56 16.0983 21.794 16.1521C21.9887 16.197 22.19 16.2433 22.2843 16.3274C22.3901 16.4219 22.4569 16.6168 22.5275 16.8233C22.6015 17.0393 22.6853 17.2842 22.8439 17.4848C23.0064 17.6903 23.2264 17.8321 23.4206 17.9572C23.5925 18.0681 23.7703 18.1827 23.8284 18.2974C23.8905 18.4203 23.8755 18.6276 23.8596 18.8471C23.8436 19.0681 23.8254 19.3187 23.8848 19.5602C23.9295 19.7287 23.9846 19.8942 24.05 20.0558C24.091 20.1632 24.1309 20.2677 24.1616 20.3698C22.8526 20.5438 18.5618 21.084 15.6237 21.0938Z" fill="#333333"/>
<path d="M8.7052 17.4626L9.25754 16.9103L10.0387 17.6914L9.48632 18.2438L8.7052 17.4626Z" fill="#333333"/>
<path d="M11.3611 15.7953L12.0595 15.4461L12.45 16.227L11.7515 16.5762L11.3611 15.7953Z" fill="#333333"/>
<path d="M14.8438 14.8435H15.625V16.0154H14.8438V14.8435Z" fill="#333333"/>
<path d="M18.0795 16.5206L18.8606 15.7395L19.4129 16.2919L18.6318 17.073L18.0795 16.5206Z" fill="#333333"/>
<path d="M20.8135 18.0834L21.5946 17.3023L22.1469 17.8546L21.3658 18.6357L20.8135 18.0834Z" fill="#333333"/>
<path d="M5.58118 12.7751L6.13352 12.2228L6.91463 13.0039L6.36229 13.5563L5.58118 12.7751Z" fill="#333333"/>
<path d="M8.23828 11.1089L8.93672 10.7597L9.32716 11.5406L8.62873 11.8898L8.23828 11.1089Z" fill="#333333"/>
<path d="M11.7188 10.1558H12.5V11.3276H11.7188V10.1558Z" fill="#333333"/>
<path d="M14.9552 11.833L15.7363 11.0519L16.2887 11.6042L15.5075 12.3854L14.9552 11.833Z" fill="#333333"/>
<path d="M3.2384 7.50208L3.79075 6.94973L4.57187 7.73085L4.01952 8.2832L3.2384 7.50208Z" fill="#333333"/>
<path d="M5.89697 5.83752L6.59541 5.4883L6.98585 6.2692L6.28742 6.61843L5.89697 5.83752Z" fill="#333333"/>
<path d="M9.375 4.88257H10.1562V6.05444H9.375V4.88257Z" fill="#333333"/>
<path d="M12.6124 6.56018L13.3935 5.77906L13.9459 6.33141L13.1648 7.11252L12.6124 6.56018Z" fill="#333333"/>
<path d="M15.3462 8.12292L16.1273 7.34181L16.6797 7.89415L15.8985 8.67527L15.3462 8.12292Z" fill="#333333"/>
</g>
<defs>
<clipPath id="clip0_2_2037">
<rect width="25" height="25" fill="white"/>
</clipPath>
</defs>
</svg>
