<svg width="25" height="25" viewBox="0 0 25 25" fill="none" xmlns="http://www.w3.org/2000/svg">
<g opacity="0.5">
<path d="M23.2842 7.68585C23.0854 6.95343 22.6109 6.34155 21.9487 5.9618C21.2862 5.58205 20.5176 5.48248 19.7859 5.68142L19.7131 5.70164L16.9636 7.60136C17.2381 7.23248 17.4662 6.68736 17.4662 5.67188C17.4662 0.98381 15.0189 0 12.9658 0C8.75038 0 8.26267 3.25394 8.26267 5.70183C8.26267 6.707 8.6676 7.35035 8.94379 7.73106L5.42759 5.50003L5.30743 5.44739C3.79242 5.03559 2.22153 5.93414 1.80916 7.45125C1.39946 8.95748 2.28371 10.5154 3.78155 10.9407L6.35971 12.0565C7.239 12.6026 8.57414 13.8088 7.92317 15.8596L5.87715 19.4311C4.51092 19.8591 3.66177 21.2479 3.92536 22.6786C4.17332 24.0236 5.38601 25 6.80966 25H7.60483C7.63554 25 7.66625 24.9983 7.69657 24.996L7.75265 24.9929C7.78851 24.9916 7.8236 24.9899 7.85832 24.9868C8.00003 24.9741 8.1448 24.9491 8.31188 24.9075L8.39466 24.8856C8.5276 24.847 8.66226 24.7961 8.79349 24.7351C8.83507 24.7162 8.87512 24.6973 8.91632 24.6758C9.03343 24.6143 9.14559 24.5447 9.25182 24.4692C9.2997 24.4354 9.34643 24.4013 9.38915 24.3662C9.48815 24.2865 9.58027 24.1999 9.66705 24.1087C9.70692 24.0667 9.7464 24.025 9.78417 23.9801C9.87095 23.8768 9.95182 23.764 10.0197 23.6526L12.4978 20.1429C12.6702 19.8986 13.0654 19.8986 13.2368 20.1429L15.6609 23.5741C15.6775 23.6021 15.6954 23.6277 15.7048 23.6359C15.7837 23.7638 15.864 23.8766 15.9512 23.9801C15.989 24.025 16.0284 24.0665 16.0683 24.1081C16.1551 24.1999 16.2474 24.2863 16.3437 24.3639C16.3893 24.4011 16.4359 24.4354 16.4824 24.4682C16.5894 24.5445 16.7021 24.6143 16.8202 24.6761C16.8608 24.6971 16.9007 24.716 16.9398 24.7341C17.0731 24.7959 17.2078 24.8468 17.3386 24.8846L17.4467 24.9126C17.5908 24.9487 17.7355 24.9737 17.8763 24.9863C17.9121 24.9895 17.9472 24.9912 17.9833 24.9926L18.0394 24.9956C18.0701 24.9983 18.1002 25 18.1315 25H18.9267C20.3503 25 21.5634 24.0236 21.8104 22.6786C22.074 21.2475 21.2248 19.8587 19.8586 19.4311L17.8126 15.8596C17.1709 13.8369 18.4708 12.6341 19.3266 12.0882L21.316 11.1736C22.0324 10.9694 22.6305 10.5 23.0038 9.84879C23.3834 9.18598 23.4833 8.41789 23.2842 7.68585ZM2.85076 9.17816C2.58774 8.71887 2.51831 8.18729 2.65602 7.68108C2.79335 7.17545 3.12237 6.75182 3.58109 6.48861C4.02226 6.2355 4.52942 6.1615 5.01656 6.27842L5.08598 6.32286L3.63907 9.93996C3.31349 9.76658 3.03997 9.50794 2.85076 9.17816ZM7.08412 19.0895L10.8429 20.9688L10.4966 21.4596L6.78867 19.6056L7.08412 19.0895ZM9.33193 23.1096L9.28425 23.1771C9.23237 23.2605 9.17668 23.3414 9.11316 23.4163C9.08722 23.447 9.05995 23.4755 9.03191 23.5048C8.97144 23.5685 8.90774 23.628 8.83717 23.6853C8.80741 23.7097 8.7767 23.7316 8.74466 23.7545C8.67008 23.8077 8.59245 23.8558 8.51177 23.8979C8.4845 23.912 8.4578 23.925 8.42804 23.9388C8.33897 23.9799 8.24684 24.0154 8.149 24.0435L8.07575 24.0623C7.97981 24.0866 7.88197 24.1041 7.77935 24.1129L6.80946 24.123C5.82527 24.123 4.9559 23.4339 4.78844 22.5203C4.60457 21.5233 5.20367 20.5627 6.15772 20.2715L9.98501 22.1851L9.33193 23.1096ZM15.0864 21.2421L18.6596 19.0983L18.9705 19.643L15.449 21.7556L15.0864 21.2421ZM20.9483 22.5203C20.7802 23.4339 19.9109 24.1228 18.9267 24.1228L18.0991 24.1211L17.9556 24.1131C17.8547 24.1039 17.7565 24.0864 17.6346 24.0562L17.5854 24.0431C17.4899 24.0154 17.3977 23.9799 17.3064 23.9382C17.2789 23.9254 17.2516 23.9124 17.2253 23.8987C17.1433 23.8562 17.066 23.8081 16.9901 23.7541C16.9596 23.7322 16.9287 23.7097 16.8963 23.6835C16.8284 23.6286 16.7643 23.5685 16.7042 23.505C16.6766 23.476 16.6489 23.4476 16.6232 23.4169C16.5594 23.3418 16.5043 23.2616 16.4507 23.1756C16.4366 23.1524 16.421 23.1308 16.3981 23.1007L15.956 22.4747L19.6101 20.2826C20.5456 20.5851 21.1298 21.5342 20.9483 22.5203ZM18.9337 11.3035L18.8832 11.3312C18.0157 11.8776 16.096 13.4434 16.9924 16.1751L18.2249 18.3359L14.5789 20.5233L13.9534 19.6373C13.7051 19.2852 13.299 19.0746 12.8674 19.0746C12.4358 19.0746 12.0301 19.2852 11.781 19.6379L11.3533 20.244L7.51995 18.3273L8.7069 16.2563L8.74333 16.1751C9.65256 13.4058 7.6815 11.8382 6.79192 11.293L4.4495 10.2747L5.83901 6.80065L8.8139 8.68835L8.87493 8.7204C9.15684 8.84132 9.47937 8.79745 9.71741 8.60367C9.9543 8.41026 10.0621 8.10318 9.99893 7.80411C9.96307 7.63302 9.86179 7.49626 9.73286 7.32288C9.49692 7.00531 9.13986 6.52637 9.13986 5.70145C9.13986 3.31593 9.59419 0.876808 12.9656 0.876808C15.4038 0.876808 16.589 2.44522 16.589 5.6715C16.589 6.77681 16.2833 7.08027 16.0599 7.30228C15.9323 7.42893 15.7872 7.57275 15.7381 7.80258C15.6723 8.10928 15.7828 8.42113 16.0262 8.61626C16.2682 8.81023 16.5942 8.85048 16.8766 8.71925L19.22 7.10564L20.8758 10.4172L18.9337 11.3035ZM22.243 9.41277C22.0974 9.66702 21.8991 9.87587 21.6679 10.0395L19.95 6.60343L20.085 6.51054C20.5693 6.39782 21.0736 6.47144 21.5126 6.72283C21.9717 6.98586 22.3004 7.4091 22.4377 7.91531C22.5754 8.4219 22.5058 8.95348 22.243 9.41277Z" fill="#333333"/>
<path d="M12.8683 14.4738C12.0218 14.4738 11.3333 15.1623 11.3333 16.0088C11.3333 16.8553 12.0218 17.5438 12.8683 17.5438C13.7148 17.5438 14.4033 16.8553 14.4033 16.0088C14.4033 15.1623 13.7144 14.4738 12.8683 14.4738ZM12.8683 16.6666C12.5055 16.6666 12.2104 16.3716 12.2104 16.0088C12.2104 15.6462 12.5057 15.3509 12.8683 15.3509C13.2311 15.3509 13.5261 15.6462 13.5261 16.0088C13.5261 16.3716 13.2311 16.6666 12.8683 16.6666Z" fill="#333333"/>
<path d="M12.8683 10.5262C12.0218 10.5262 11.3333 11.2148 11.3333 12.0613C11.3333 12.9078 12.0218 13.5965 12.8683 13.5965C13.7148 13.5965 14.4033 12.9078 14.4033 12.0613C14.4033 11.2148 13.7144 10.5262 12.8683 10.5262ZM12.8683 12.7193C12.5055 12.7193 12.2104 12.4241 12.2104 12.0613C12.2104 11.6987 12.5057 11.4034 12.8683 11.4034C13.2311 11.4034 13.5261 11.6987 13.5261 12.0613C13.5263 12.4241 13.2311 12.7193 12.8683 12.7193Z" fill="#333333"/>
<path d="M15.2805 3.50878C15.2805 3.99325 14.8878 4.38597 14.4033 4.38597C13.9188 4.38597 13.5261 3.99325 13.5261 3.50878C13.5261 3.02431 13.9188 2.63159 14.4033 2.63159C14.8878 2.63159 15.2805 3.02431 15.2805 3.50878Z" fill="#333333"/>
<path d="M12.2104 3.50878C12.2104 3.99325 11.8177 4.38597 11.3332 4.38597C10.8488 4.38597 10.4561 3.99325 10.4561 3.50878C10.4561 3.02431 10.8488 2.63159 11.3332 2.63159C11.8177 2.63159 12.2104 3.02431 12.2104 3.50878Z" fill="#333333"/>
<path d="M14.842 5.26312C14.5994 5.26312 14.4033 5.4592 14.4033 5.70181C14.4033 6.2271 13.6432 6.74342 12.873 6.74342C12.0815 6.73502 11.3332 6.229 11.3332 5.70181C11.3332 5.4592 11.1372 5.26312 10.8946 5.26312C10.6519 5.26312 10.4561 5.4592 10.4561 5.70181C10.4561 6.83459 11.7012 7.60878 12.8683 7.62061C14.0094 7.62061 15.2805 6.83249 15.2805 5.70181C15.2805 5.4592 15.084 5.26312 14.842 5.26312Z" fill="#333333"/>
</g>
</svg>
