<svg width="25" height="25" viewBox="0 0 25 25" fill="none" xmlns="http://www.w3.org/2000/svg">
<g opacity="0.5" clip-path="url(#clip0_2_2073)">
<path d="M15.9459 11.1343C15.9925 11.1501 16.0405 11.1575 16.0871 11.1575C16.2705 11.1575 16.4416 11.0423 16.5036 10.8589C16.6413 10.4549 17.0817 10.238 17.4855 10.3748C18.3488 10.667 19.2906 10.2037 19.5832 9.34003C19.6616 9.11039 19.5384 8.86014 19.3084 8.78175C19.0774 8.70393 18.8283 8.82715 18.7501 9.05717C18.6128 9.46153 18.1724 9.6784 17.768 9.54126C16.9063 9.25039 15.9633 9.71273 15.6703 10.576C15.5925 10.8056 15.7157 11.0559 15.9459 11.1343Z" fill="#333333"/>
<path d="M16.9869 8.06876C17.0336 8.08459 17.0815 8.09203 17.1281 8.09203C17.3115 8.09203 17.4826 7.97683 17.5446 7.79334C17.6112 7.59746 17.7497 7.43915 17.9354 7.3476C18.121 7.25623 18.3308 7.24307 18.5267 7.30945C19.3898 7.60165 20.3314 7.13836 20.6244 6.27414C20.7026 6.0445 20.579 5.79425 20.3494 5.71586C20.1193 5.63671 19.8693 5.76126 19.7915 5.99128C19.6543 6.39602 19.2147 6.61308 18.8096 6.47575C18.3907 6.33346 17.9423 6.36264 17.5463 6.55834C17.1504 6.75365 16.854 7.09201 16.7119 7.51048C16.6331 7.74051 16.7567 7.99056 16.9869 8.06876Z" fill="#333333"/>
<path d="M18.0269 5.00312C18.0739 5.01895 18.1215 5.02639 18.1687 5.02639C18.3521 5.02639 18.5232 4.911 18.5852 4.72751C18.6863 4.4292 19.0125 4.2686 19.3102 4.36988C19.6776 4.49443 20.0714 4.46887 20.4193 4.29779C20.767 4.12612 21.027 3.82972 21.1519 3.46218C21.2301 3.23253 21.1069 2.98229 20.8769 2.90409C20.6459 2.82531 20.3968 2.94929 20.3186 3.17932C20.2692 3.32409 20.1668 3.4412 20.0298 3.50853C19.8931 3.57566 19.7382 3.58596 19.5931 3.53618C18.8355 3.2806 18.0088 3.68705 17.7519 4.44427C17.6741 4.67487 17.7967 4.92473 18.0269 5.00312Z" fill="#333333"/>
<path d="M21.214 11.1018C21.1375 11.0495 21.0513 11.0196 20.9632 11.0081C21.8373 8.16734 22.317 5.38433 22.3857 2.73351C22.4072 1.89981 21.9998 0.78668 21.1783 0.271506C20.7842 0.0239327 20.1382 -0.180153 19.2998 0.251288C17.9856 0.929349 17.0459 2.92367 16.2909 4.52679C16.2474 4.61911 16.2047 4.70932 16.1626 4.79859C15.9957 4.03184 15.4889 3.3759 14.7683 3.03353C14.5985 2.217 13.9508 1.57727 13.1369 1.41153C13.1282 1.36575 13.1171 1.32074 13.1036 1.27553C12.9359 0.702757 12.4305 0.271506 11.8457 0.202079C11.5163 0.162978 11.1897 0.23107 10.9109 0.394339C10.6732 0.261969 10.4066 0.191588 10.1329 0.191588C9.36784 0.191588 8.72506 0.725263 8.55741 1.43937C7.72104 1.66711 7.10763 2.43462 7.10115 3.32688C6.14691 3.57331 5.45168 4.43562 5.45168 5.4612C5.45168 5.73319 5.50279 6.00231 5.60083 6.25618C5.35326 6.56193 5.21593 6.94473 5.21593 7.34642C5.21593 7.58751 5.26552 7.81982 5.35936 8.0344C4.91991 7.55489 4.30136 7.16293 3.6067 7.18849C3.36371 7.19631 3.17278 7.39925 3.18022 7.64206C3.18766 7.88009 3.38316 8.06835 3.61986 8.06835C3.63474 8.06892 3.64828 8.06758 3.6624 8.06758C4.07477 8.06758 4.45795 8.34033 4.73681 8.65695C4.0391 8.85818 3.19777 9.18529 2.80543 9.92553C2.56911 10.372 2.54145 10.9196 2.699 11.5472C2.6229 11.6744 2.58113 11.8222 2.58895 11.9795L3.33777 22.6208C3.40605 23.9552 4.50583 25 5.84154 25H18.1916C19.5273 25 20.6271 23.9552 20.6948 22.6288L21.4625 11.6175C21.4625 11.6151 21.4631 11.6124 21.4631 11.6097C21.4753 11.4068 21.3816 11.2172 21.214 11.1018ZM16.5213 6.05686C16.6957 5.73185 16.8856 5.32864 17.0867 4.90158C17.7479 3.49721 18.6543 1.57422 19.7028 1.03311C20.0854 0.835889 20.415 0.831884 20.7106 1.01632C21.2205 1.33657 21.5207 2.14471 21.506 2.71062C21.4387 5.31166 20.9635 8.04889 20.0934 10.8472C20.0648 10.9391 20.0015 11.1247 19.9113 11.3795L19.1615 11.7125C19.1453 11.72 19.1294 11.728 19.114 11.7375C18.8975 11.8674 18.6547 11.9315 18.4117 11.9342C18.1689 11.9315 17.9265 11.8674 17.71 11.7375L17.3964 11.5493C17.0356 11.3328 16.6312 11.2246 16.2268 11.2246C16.2221 11.2246 16.2173 11.2254 16.212 11.2254C15.8028 11.2227 15.3928 11.3297 15.0275 11.5493L14.7143 11.7375C14.5396 11.8422 14.3466 11.8933 14.1511 11.9153C14.1621 11.8771 14.1749 11.8395 14.1864 11.8018C14.3069 11.3923 14.4362 10.9883 14.5716 10.5876C14.6231 10.4352 14.6769 10.2839 14.7305 10.133C14.8436 9.8149 14.9619 9.50095 15.0843 9.18891C15.1389 9.04949 15.1921 8.90872 15.2484 8.77063C15.6323 7.8347 16.0556 6.92718 16.5213 6.05686ZM10.913 7.10037C10.9643 7.03438 11.0144 6.97029 11.0621 6.90773C11.0621 6.90697 11.0625 6.90639 11.0629 6.90601C11.0976 6.85985 11.1279 6.81179 11.1535 6.76372C11.2618 6.56021 11.2872 6.33133 11.237 6.10779L13.0734 5.70629C13.0858 5.76256 13.099 5.81844 13.1202 5.87032C13.2024 6.07174 13.3494 6.2394 13.5539 6.35651C13.6208 6.39351 13.6908 6.43032 13.7629 6.46866C13.8222 6.49994 13.8818 6.53236 13.9415 6.56498C13.9701 6.58043 13.9991 6.59569 14.0277 6.61171C14.0801 6.64108 14.1307 6.6737 14.1816 6.70574C14.2253 6.73263 14.2684 6.76029 14.3105 6.78986C14.3594 6.82362 14.4061 6.861 14.4526 6.89895C14.4936 6.93233 14.5327 6.96895 14.5715 7.00634C14.6132 7.04716 14.6546 7.08893 14.693 7.1347C14.7607 7.21557 14.8257 7.29969 14.8789 7.4004C14.6924 7.81219 14.5169 8.23238 14.3472 8.656C14.3206 8.72161 14.2926 8.78551 14.2667 8.85093C13.7845 8.97319 13.3185 9.20207 12.7431 9.61158C12.0179 10.1268 11.4781 10.2637 10.5885 10.1348L10.3215 8.91216C10.1403 8.08551 10.5332 7.58484 10.913 7.10037ZM13.0946 4.42856C13.106 4.42646 13.1175 4.42513 13.1289 4.42513C13.2121 4.42513 13.2899 4.48464 13.308 4.56818C13.3221 4.6315 13.2983 4.68129 13.2825 4.70532C13.267 4.72916 13.2323 4.77093 13.1694 4.78447L10.739 5.31643C10.6423 5.3376 10.5437 5.27333 10.5225 5.17739C10.5016 5.08107 10.5653 4.98207 10.6616 4.9609L11.9529 4.67842L13.0946 4.42856ZM11.6727 11.2334C11.6393 11.2357 11.6053 11.2364 11.572 11.2401C11.332 11.2643 11.0953 11.3249 10.8706 11.426L10.7865 11.0411C10.9134 11.0516 11.0396 11.0623 11.1579 11.0623C11.9252 11.0623 12.543 10.8338 13.2529 10.3287C13.4764 10.1695 13.6744 10.0489 13.8627 9.94918C13.8222 10.064 13.7822 10.1783 13.7431 10.2936C13.7149 10.3762 13.6845 10.4577 13.6573 10.5408C13.5279 10.9324 13.4047 11.327 13.2899 11.7253L12.9973 11.5502C12.6366 11.3337 12.2323 11.2254 11.8279 11.2254C11.8226 11.2254 11.8171 11.2263 11.8117 11.2263C11.7652 11.2254 11.7188 11.2307 11.6727 11.2334ZM6.41031 6.68381L6.69851 6.44634L6.51159 6.12381C6.39448 5.92144 6.33249 5.69256 6.33249 5.4612C6.33249 4.74842 6.89077 4.16726 7.60354 4.1375L8.1376 4.115L8.01305 3.59486C7.99207 3.50789 7.98139 3.42206 7.98139 3.34061C7.98139 2.77394 8.42408 2.29672 8.98885 2.25362L9.39549 2.22272V1.78498C9.40827 1.38959 9.73424 1.07145 10.1333 1.07145C10.3629 1.07145 10.5275 1.17616 10.6248 1.26409L10.9332 1.54256L11.2288 1.25055C11.3643 1.11684 11.5504 1.05428 11.7423 1.07621C11.978 1.10406 12.1909 1.28793 12.2596 1.52425C12.2828 1.6034 12.2895 1.67989 12.2804 1.7579L12.2289 2.24923H12.7242C13.3565 2.24923 13.8852 2.74342 13.9289 3.37418L13.9487 3.66334L14.2218 3.75908C14.9094 4.00075 15.3619 4.65134 15.3464 5.37956C15.3397 5.69065 15.2394 5.99011 15.0576 6.25275C14.7633 6.00288 14.4461 5.83447 14.1795 5.69409C14.1104 5.65746 14.0437 5.62237 13.9764 5.58499C13.9573 5.5743 13.9344 5.55599 13.9266 5.50965C13.9161 5.44632 13.9397 5.37022 13.9878 5.31433C14.1795 5.09175 14.2566 4.78829 14.1946 4.5018L14.1413 4.25938C14.0881 4.01467 13.942 3.80581 13.7309 3.6702C13.5201 3.53516 13.2693 3.48996 13.0252 3.54356L12.9071 3.56949C12.9058 3.56988 12.9046 3.56949 12.9033 3.56988L11.612 3.85235L10.352 4.12739C10.1079 4.1808 9.89884 4.32633 9.76342 4.53785C9.62781 4.74862 9.58299 4.99981 9.6362 5.24395L9.66252 5.36354V5.36488C9.66252 5.36545 9.66309 5.36583 9.66309 5.36679L9.68903 5.48599C9.75274 5.77896 9.95644 6.02577 10.2332 6.1446C10.3019 6.17397 10.3591 6.22986 10.3789 6.2867C10.3904 6.31931 10.3837 6.33591 10.3581 6.37825V6.37863C10.3146 6.43719 10.2675 6.49651 10.2197 6.55773C10.1712 6.61934 10.121 6.684 10.0699 6.75095C10.0528 6.77326 10.0366 6.79653 10.0194 6.81942C9.98277 6.8692 9.94634 6.91974 9.91029 6.97258C9.89045 7.00119 9.87157 7.03075 9.85211 7.0607C9.81873 7.1122 9.7865 7.16522 9.75484 7.21996C9.73653 7.25162 9.71841 7.2829 9.70086 7.31571C9.66767 7.37732 9.63792 7.44198 9.60835 7.50816C9.59557 7.5362 9.58203 7.56309 9.57059 7.59266C9.53187 7.6884 9.49754 7.78873 9.47026 7.8944C9.46588 7.91118 9.46416 7.92911 9.46015 7.94628C9.43898 8.03611 9.42182 8.12881 9.41075 8.2257C9.40656 8.26442 9.4056 8.30486 9.40293 8.34491C9.39931 8.39679 9.39282 8.44619 9.39282 8.50017C9.39092 8.49807 9.3892 8.49578 9.38748 8.49369C9.38138 8.48567 9.37509 8.47862 9.36936 8.4708C9.29288 8.3699 9.2162 8.2772 9.13934 8.18908C9.11511 8.16143 9.09051 8.13472 9.06591 8.10821C9.00125 8.0384 8.93659 7.97279 8.87136 7.91118C8.85038 7.89135 8.8292 7.86979 8.80765 7.85034C8.72544 7.77691 8.64266 7.70958 8.5595 7.64969C8.53624 7.63309 8.51239 7.61898 8.48912 7.60315C8.42656 7.56118 8.36419 7.52247 8.30068 7.48832C8.26997 7.47154 8.23964 7.45533 8.20836 7.44026C8.14275 7.40822 8.07676 7.38094 8.01038 7.3571C7.98845 7.34928 7.96632 7.3386 7.94439 7.33154C7.87229 7.30865 7.79981 7.29015 7.72676 7.27661C7.71837 7.27489 7.70997 7.27566 7.70158 7.27451C7.6867 7.27184 7.67221 7.26612 7.65714 7.26383C7.60602 7.25639 7.55758 7.25944 7.50741 7.25582C7.47232 7.25372 7.4376 7.24628 7.40232 7.24628C7.39183 7.24628 7.38077 7.24895 7.36989 7.24895C7.30161 7.24972 7.23562 7.25773 7.16924 7.26593C7.13624 7.27031 7.10325 7.27298 7.07025 7.27909C6.98347 7.29492 6.89954 7.31704 6.81638 7.34337C6.8036 7.34737 6.79121 7.35042 6.77843 7.35481C6.55946 7.4292 6.35175 7.53448 6.1574 7.66151C6.11734 7.56252 6.09617 7.45609 6.09617 7.34642C6.09674 7.08893 6.21118 6.84746 6.41031 6.68381ZM3.58363 10.3368C3.76978 9.98618 4.22163 9.71858 5.00612 9.49428C5.3731 9.38957 5.71356 9.19368 5.98993 8.9297C6.11524 8.80973 6.23274 8.70807 6.34622 8.61576C6.7008 8.32756 7.00655 8.17077 7.2833 8.13511C7.2896 8.13434 7.2957 8.13339 7.3018 8.13301C7.38935 8.12328 7.47423 8.12595 7.55662 8.14045C7.57818 8.14445 7.60011 8.15189 7.62224 8.15761C7.66305 8.16772 7.70349 8.17783 7.7445 8.19423C7.77082 8.20434 7.79714 8.21979 7.82403 8.232C7.86218 8.2505 7.90014 8.26728 7.93847 8.29055C7.96842 8.30848 7.99817 8.33194 8.02812 8.35254C8.06379 8.37753 8.09945 8.40042 8.1355 8.4296C8.16888 8.4563 8.20245 8.48892 8.23583 8.51924C8.26921 8.54957 8.30278 8.57742 8.33615 8.61118C8.37316 8.64856 8.41054 8.69205 8.44793 8.73401C8.47825 8.76777 8.50858 8.79905 8.53948 8.83567C8.58125 8.88584 8.6234 8.94287 8.66555 8.99837C8.69245 9.03365 8.71896 9.06532 8.74566 9.1027C8.79373 9.16965 8.84198 9.24384 8.89043 9.31785C8.9116 9.35027 8.93315 9.37946 8.95413 9.41284C9.02413 9.52327 9.09452 9.64076 9.16528 9.76569C9.48914 10.3371 9.59653 11.1813 9.45577 11.9166C9.43231 11.9143 9.40942 11.9109 9.38615 11.9073C9.21849 11.8786 9.05713 11.8251 8.91008 11.7369L8.59632 11.5487C8.23564 11.3322 7.83128 11.224 7.42692 11.224C7.42216 11.224 7.41739 11.2248 7.41205 11.2248C7.00292 11.2221 6.59284 11.3291 6.22759 11.5487L6.075 11.6402C5.80873 11.7999 5.51062 11.8804 5.21231 11.883C4.91343 11.8804 4.61569 11.8003 4.34961 11.6402L3.75777 11.2847C3.75777 11.2847 3.75738 11.2847 3.75738 11.2843C3.67937 11.2382 3.59545 11.2063 3.50924 11.1907C3.44019 10.8426 3.4648 10.5611 3.58363 10.3368ZM19.8184 22.5754C19.7739 23.4412 19.06 24.1196 18.1933 24.1196H5.84287C4.97561 24.1196 4.26207 23.4412 4.21724 22.567L3.48502 12.1655L3.86782 12.3953C4.28267 12.6443 4.74863 12.7667 5.21326 12.764C5.67827 12.7667 6.14366 12.6444 6.55851 12.3953L6.71129 12.3038C6.92758 12.1735 7.1702 12.1092 7.413 12.1066C7.65581 12.1092 7.89823 12.1735 8.11509 12.3038L8.42885 12.4921C8.82577 12.7301 9.27533 12.8321 9.71974 12.8079C9.75922 12.8062 9.7989 12.8062 9.83895 12.8028C9.84372 12.8022 9.8483 12.7995 9.85345 12.7991C10.1539 12.7654 10.4487 12.6708 10.7205 12.5159C10.7461 12.5065 10.7734 12.5062 10.7972 12.4921L11.111 12.3038C11.3273 12.1735 11.5697 12.1092 11.8127 12.1066C12.0555 12.1092 12.2979 12.1735 12.5148 12.3038L12.8285 12.4921C13.1615 12.6914 13.5321 12.7947 13.9046 12.8102C13.9121 12.8106 13.9201 12.8115 13.9275 12.8115C14.0559 12.8155 14.1845 12.8115 14.3121 12.7934C14.3851 12.7841 14.4559 12.7658 14.5276 12.7494C14.5623 12.7412 14.5972 12.7335 14.6315 12.7234C14.8268 12.6694 15.0182 12.5985 15.1963 12.4917L15.5101 12.3032C15.7265 12.1731 15.969 12.1089 16.2118 12.1062C16.4546 12.1089 16.6972 12.1731 16.9141 12.3032L17.2278 12.4917C17.5912 12.7093 17.999 12.8163 18.4064 12.8146C18.413 12.8146 18.4199 12.8159 18.4266 12.8159C18.8218 12.8159 19.2172 12.7129 19.5717 12.5062L20.435 12.1224C20.4535 12.1142 20.4667 12.0982 20.4838 12.0877L20.5512 12.0577L19.8184 22.5754Z" fill="#333333"/>
<path d="M5.22804 18.9198H8.30784C8.55064 18.9198 8.74786 18.7232 8.74786 18.4798C8.74786 18.2366 8.55064 18.0398 8.30784 18.0398H5.22804C4.98524 18.0398 4.78821 18.2366 4.78821 18.4798C4.78821 18.7232 4.98524 18.9198 5.22804 18.9198Z" fill="#333333"/>
<path d="M5.22804 20.6797H9.1877C9.43069 20.6797 9.62772 20.4831 9.62772 20.2397C9.62772 19.9963 9.43069 19.7997 9.1877 19.7997H5.22804C4.98524 19.7997 4.78821 19.9963 4.78821 20.2397C4.78821 20.4831 4.98524 20.6797 5.22804 20.6797Z" fill="#333333"/>
<path d="M10.0676 21.5594H5.22804C4.98524 21.5594 4.78821 21.7561 4.78821 21.9995C4.78821 22.2427 4.98524 22.4393 5.22804 22.4393H10.0676C10.3104 22.4393 10.5076 22.2427 10.5076 21.9995C10.5076 21.7561 10.3104 21.5594 10.0676 21.5594Z" fill="#333333"/>
<path d="M12.7073 21.5594H11.8275C11.5845 21.5594 11.3875 21.7561 11.3875 21.9995C11.3875 22.2427 11.5845 22.4393 11.8275 22.4393H12.7073C12.9501 22.4393 13.1474 22.2427 13.1474 21.9995C13.1474 21.7561 12.9503 21.5594 12.7073 21.5594Z" fill="#333333"/>
</g>
<defs>
<clipPath id="clip0_2_2073">
<rect width="25" height="25" fill="white"/>
</clipPath>
</defs>
</svg>
