<svg width="25" height="25" viewBox="0 0 25 25" fill="none" xmlns="http://www.w3.org/2000/svg">
<g opacity="0.5" clip-path="url(#clip0_2_2053)">
<path d="M19.908 8.04712C19.9074 7.9983 19.8921 7.95138 19.8748 7.90522C19.8698 7.89149 19.8709 7.87642 19.8647 7.86326L19.8641 7.86154L16.9426 2.01819V0.423644C16.9426 0.295851 16.885 0.174925 16.7858 0.0948168C16.6866 0.0143266 16.556 -0.0169538 16.4316 0.00936756L8.3807 1.70424C8.18462 1.74525 8.04424 1.91824 8.04424 2.1187V3.68006L5.1548 7.80813C5.15232 7.81195 5.15232 7.8171 5.14984 7.82072C5.11894 7.86822 5.0972 7.92067 5.08709 7.97674C5.08537 7.98514 5.08499 7.99277 5.08404 8.00135C5.08194 8.01775 5.07812 8.03396 5.07812 8.05094V22.0341C5.07812 22.2037 5.17902 22.357 5.33485 22.4234L11.2671 24.9659C11.2719 24.968 11.2764 24.9672 11.2812 24.9689C11.3302 24.9876 11.3811 25.0002 11.434 25.0002C11.47 25.0002 11.5061 24.9956 11.5417 24.9863L19.5927 22.8676C19.779 22.8184 19.9087 22.6502 19.9087 22.4579V8.05094L19.908 8.04712ZM13.9765 2.22075V1.392L14.8239 1.21348V2.04241L13.9765 2.22075ZM13.129 2.39908L12.2816 2.57761V1.74868L13.129 1.57034V2.39908ZM11.434 2.75595L10.5865 2.93429V2.1187C10.5865 2.11451 10.5841 2.11069 10.5841 2.10631L11.434 1.92721V2.75595ZM9.07764 4.11818L13.1968 3.25091L16.2863 2.6005L18.8726 7.7738L16.2533 8.46331L11.6684 9.66952L9.50947 5.04324L9.07764 4.11818ZM19.0613 9.12516L11.8578 15.1913V10.4958L19.0613 8.60007V9.12516ZM5.92556 8.65214L11.0104 10.4683V15.4595L5.92556 13.2803V8.65214ZM5.92556 14.2018L11.0104 16.3811V21.8149L5.92556 19.6358V14.2018ZM11.8578 16.2989L19.0613 10.2331V15.8968L11.8578 21.5832V16.2989ZM16.0952 1.77462L15.6713 1.8635V1.03514L16.0952 0.946257V1.77462ZM8.89168 2.46222L9.73911 2.28388V3.11262L8.89168 3.29115V2.46222ZM8.39424 4.65758L9.50775 7.04329L10.6209 9.42881L6.1676 7.83808L8.39424 4.65758ZM5.92556 20.5578L11.0104 22.737V23.9336L5.92556 21.7543V20.5578ZM11.8578 24.0269V22.6633L19.0613 16.9764V22.1316L11.8578 24.0269Z" fill="#333333"/>
<path d="M13.5949 7.56843C13.7916 7.80036 14.1128 8.04183 14.5946 8.04183C14.7252 8.04183 14.8675 8.02447 15.0222 7.98385C15.7485 7.79349 15.9892 7.30197 16.0632 6.92279C16.1454 6.50203 16.0518 6.05952 15.9743 5.76369C15.5751 4.23877 14.7115 4.12318 14.0575 4.29389C13.4027 4.46498 12.7065 4.9895 13.1053 6.51423C13.182 6.81044 13.317 7.24227 13.5949 7.56843ZM14.2713 5.11424C14.342 5.09555 14.4132 5.08124 14.4841 5.08124C14.7256 5.08124 14.9629 5.24718 15.1544 5.97827C15.2106 6.19437 15.2803 6.51004 15.2314 6.76047C15.2001 6.92069 15.1273 7.08033 14.8078 7.16388C14.4887 7.2478 14.3466 7.14404 14.2407 7.01987C14.0756 6.82494 13.9815 6.51595 13.9247 6.30023C13.6767 5.35457 13.9604 5.19568 14.2713 5.11424Z" fill="#333333"/>
</g>
<defs>
<clipPath id="clip0_2_2053">
<rect width="25" height="25" fill="white"/>
</clipPath>
</defs>
</svg>
