<svg width="25" height="25" viewBox="0 0 25 25" fill="none" xmlns="http://www.w3.org/2000/svg">
<g opacity="0.5" clip-path="url(#clip0_2_2056)">
<path d="M23.6783 8.65977C23.713 6.96852 22.7197 5.4474 21.1806 4.78975C20.9561 3.34664 19.793 2.21863 18.3476 2.02752C18.3347 1.8837 18.3074 1.74046 18.266 1.59894C18.0112 0.72861 17.2436 0.0732426 16.3573 -0.0318527C15.7908 -0.0991823 15.232 0.0436785 14.7769 0.36297C14.3725 0.0953678 13.9022 -0.0488281 13.42 -0.0488281C12.1783 -0.0488281 11.1464 0.868419 10.9667 2.06109C10.9225 2.07005 10.8798 2.08264 10.8365 2.09313C10.7956 1.99452 10.7535 1.89725 10.7056 1.80264C10.0712 0.546648 8.95066 -0.183487 7.9123 -0.0158309C7.2308 0.0947957 6.66622 0.557901 6.33491 1.25618C5.73562 0.98038 5.12413 0.933459 4.57157 1.12801C3.98238 1.33572 3.52462 1.77918 3.24786 2.41109C2.88089 3.24842 2.8805 4.32493 3.23527 5.34899C2.7571 5.67743 2.39966 6.1598 2.19081 6.76481C1.83947 7.78067 1.95677 9.00634 2.51219 10.129C2.57304 10.2515 2.63942 10.3731 2.71189 10.4925C2.19042 10.8317 1.7998 11.3346 1.59056 11.9482C1.25792 12.9219 1.40517 14.0694 1.99435 15.0952C2.265 15.5665 2.62339 15.9934 3.04072 16.3443C2.9013 16.928 3.00677 17.5694 3.34647 18.15C3.82465 18.9658 4.68448 19.5155 5.59047 19.6038C7.01756 22.2838 8.78815 23.4347 11.513 24.5898L11.5433 24.603C11.9265 24.8431 12.3633 24.9512 12.7955 24.9512C13.0522 24.9512 13.3053 24.9116 13.5443 24.8439C13.5481 24.8425 13.5522 24.8431 13.556 24.8418C13.5579 24.841 13.559 24.8397 13.5607 24.8387C13.7641 24.7792 13.9577 24.7006 14.1297 24.6003C14.9541 24.1191 15.288 23.297 15.001 22.4553C14.1776 20.0392 14.2445 18.2248 15.2003 17.0634C16.8545 15.054 20.6925 15.5478 20.7303 15.5543L21.1768 15.6149L21.2214 15.1667C21.2275 15.1078 21.3557 13.7083 20.5392 12.7577C20.4919 12.7026 20.4421 12.65 20.3902 12.6C20.6208 12.5489 20.8493 12.4758 21.0734 12.3806C22.6224 11.7258 23.6453 10.2658 23.6783 8.65977ZM6.24718 18.9839L6.12549 18.7451L5.8575 18.7468C5.85369 18.7468 5.84968 18.7468 5.84625 18.7468C5.16227 18.7468 4.45999 18.3318 4.09644 17.7105C3.83151 17.2581 3.77734 16.7643 3.94748 16.3556L4.07947 16.0389L3.80233 15.8371C3.37546 15.5261 3.01059 15.12 2.74756 14.6618C2.28312 13.8527 2.16067 12.9654 2.41263 12.228C2.60127 11.6764 2.9795 11.27 3.50669 11.052L4.02129 10.8395L3.68999 10.3926C3.53492 10.183 3.40026 9.9644 3.29078 9.74334C2.84484 8.84173 2.74012 7.83427 3.01192 7.04863C3.19179 6.52735 3.52099 6.13997 3.96312 5.92882L4.33486 5.75086L4.17636 5.36997L4.1571 5.32877C3.77544 4.42716 3.73233 3.46852 4.04342 2.75975C4.16721 2.47708 4.41001 2.1061 4.86034 1.9476C5.29369 1.79482 5.81192 1.90068 6.32213 2.24381L6.82339 2.5818L6.98322 1.99853C7.1629 1.34449 7.552 0.922778 8.05153 0.842097C8.70251 0.73128 9.47385 1.29242 9.92951 2.19403C9.96595 2.26651 9.9999 2.34032 10.0312 2.41605C10.0211 2.42158 10.0129 2.42902 10.0029 2.43474C9.91387 2.48757 9.82747 2.54498 9.7445 2.60659C9.69453 2.64321 9.64761 2.68212 9.60031 2.72179C9.56864 2.74831 9.53774 2.77558 9.50742 2.80286C9.3327 2.95964 9.17783 3.13436 9.04431 3.3249C9.03439 3.33921 9.02524 3.3537 9.01532 3.36801C8.93845 3.48168 8.86979 3.59975 8.80856 3.72277C8.7933 3.75272 8.77766 3.78267 8.76336 3.81299C8.73685 3.87136 8.71262 3.92991 8.68973 3.9898C8.66532 4.05237 8.64453 4.11569 8.6245 4.17997C8.60791 4.23356 8.59151 4.2864 8.57815 4.34114C8.55412 4.4346 8.53543 4.52978 8.52074 4.6261C8.51559 4.66138 8.51082 4.6961 8.50644 4.73177C8.49213 4.85078 8.4826 4.97095 8.4826 5.0934C8.4826 5.17294 8.48603 5.25228 8.49213 5.33315C6.84609 5.62918 5.61699 7.05931 5.61699 8.77784C5.61699 9.2747 5.72418 9.76718 5.93017 10.2202C5.46764 10.7149 5.20786 11.3659 5.20786 12.053C5.20786 13.0797 5.79761 14.0109 6.70399 14.4591C6.70189 14.6914 6.70532 14.9176 6.71314 15.1396C6.71581 15.2121 6.72134 15.2825 6.72497 15.3542C6.73222 15.5018 6.74099 15.6491 6.7532 15.7927C6.76006 15.8749 6.7696 15.9552 6.7778 16.0359C6.79134 16.1658 6.80603 16.2949 6.82396 16.4212C6.83521 16.5038 6.84818 16.5858 6.86134 16.667C6.8808 16.7887 6.90216 16.9089 6.92562 17.0279C6.94126 17.1082 6.95767 17.1881 6.97502 17.2677C7.00115 17.3861 7.02976 17.504 7.05971 17.6203C7.07897 17.6955 7.09805 17.7704 7.11846 17.8448C7.15279 17.9669 7.19017 18.0871 7.2287 18.2065C7.24968 18.2721 7.26952 18.3384 7.29183 18.4037C7.34085 18.5475 7.39464 18.6896 7.45034 18.8311C7.46559 18.8696 7.47895 18.9097 7.49459 18.9482C7.56707 19.1271 7.64489 19.3049 7.72766 19.4808C7.75112 19.5307 7.77726 19.5801 7.80148 19.6297C7.86271 19.7556 7.92489 19.8811 7.99145 20.0062C8.02693 20.0732 8.06527 20.1401 8.10265 20.2073C8.16216 20.3147 8.22205 20.4219 8.28538 20.5283C8.32829 20.6008 8.37311 20.6732 8.41736 20.7453C8.47954 20.8466 8.54287 20.9477 8.60848 21.049C8.65674 21.1238 8.70614 21.1983 8.75611 21.2731C8.82344 21.3734 8.89249 21.4738 8.96325 21.5745C9.01532 21.6492 9.06796 21.7238 9.12213 21.7986C9.19652 21.901 9.27338 22.0044 9.35063 22.1078C9.40576 22.1812 9.45954 22.2546 9.51657 22.3284C9.60088 22.4383 9.689 22.5495 9.77712 22.6607C9.8309 22.7288 9.88298 22.7961 9.93829 22.8648C9.94306 22.8709 9.94783 22.877 9.95259 22.8831C8.35747 21.9945 7.23004 20.914 6.24718 18.9839ZM18.8094 11.7321L18.6938 11.7129L18.2734 11.8101L18.2273 12.7686L18.6608 12.7917C19.1954 12.8189 19.5931 12.9923 19.8767 13.3202C20.2212 13.7185 20.3254 14.268 20.3536 14.6462C19.1588 14.5684 16.1214 14.58 14.5314 16.5083C13.3692 17.9177 13.2508 20.0123 14.1783 22.7345C14.3838 23.3378 13.9613 23.6918 13.691 23.8494C13.6719 23.8608 13.6502 23.8681 13.6307 23.8786C12.7812 21.7887 12.251 19.9294 11.9652 18.2799C11.9633 18.2694 11.9626 18.2595 11.9605 18.2496C11.7346 16.9337 11.6612 15.7511 11.7037 14.6918C12.3118 13.6551 14.099 13.6134 14.1171 13.613C14.3569 13.609 14.5484 13.4123 14.5449 13.1726C14.5415 12.9345 14.3483 12.7444 14.1112 12.7444C14.1093 12.7444 14.1078 12.7444 14.1059 12.7444C14.0351 12.7451 12.7968 12.7722 11.8146 13.3881C11.9343 12.5281 12.1338 11.7663 12.3808 11.0897C12.4053 11.0602 12.4274 11.0279 12.4438 10.9911C12.4692 10.9356 12.4808 10.8773 12.4816 10.82C12.793 10.0365 13.1678 9.37903 13.5579 8.83048C15.5051 8.42536 16.9743 9.03457 17.0069 9.04811C17.064 9.07329 17.1229 9.08454 17.1803 9.08454C17.3476 9.08454 17.5069 8.98726 17.5786 8.82495C17.6749 8.60522 17.5746 8.34887 17.3552 8.25255C17.295 8.22604 16.0968 7.71487 14.3738 7.84037C15.2152 6.96261 15.9543 6.56473 16.0641 6.50885C16.6951 6.20653 17.6171 6.59697 17.9198 6.77378C17.9888 6.8146 18.0644 6.83367 18.1395 6.83367C18.2881 6.83367 18.4333 6.75718 18.5139 6.62005C18.6356 6.41329 18.5674 6.1474 18.3602 6.02552C18.3106 5.99596 17.3342 5.43138 16.3342 5.54468C16.4197 5.19258 16.6095 4.87253 16.7063 4.74397C16.8519 4.55362 16.8153 4.28144 16.6247 4.13591C16.4349 3.99038 16.1616 4.02604 16.0163 4.21716C15.9888 4.25226 15.4191 5.00795 15.4204 5.87789C14.7885 6.2649 13.156 7.43792 12.0137 9.79522C11.9521 9.92206 11.8926 10.0584 11.8334 10.1954C10.6488 9.38533 10.8437 7.94432 10.8546 7.87451C10.8916 7.63819 10.7304 7.41618 10.4937 7.37841C10.2574 7.33855 10.0342 7.5022 9.99646 7.7389C9.87058 8.52721 10.0512 10.1515 11.5143 11.0239C11.1912 11.9744 10.9463 13.1087 10.8706 14.4476C10.862 14.4898 10.8601 14.5306 10.8637 14.5722C10.8185 15.5108 10.862 16.5518 11.0131 17.6919C10.4624 17.3888 10.2105 16.9453 10.1944 16.9154C10.0811 16.7046 9.81965 16.6239 9.6087 16.7355C9.3966 16.8471 9.31458 17.1099 9.42674 17.3222C9.44962 17.3663 9.96957 18.3272 11.1712 18.6986C11.463 20.3004 11.9759 22.091 12.7751 24.08C12.5006 24.0762 12.23 24.0079 11.999 23.8623L11.9994 23.8612C11.9526 23.8311 11.9135 23.8021 11.8752 23.7725C11.8279 23.734 11.78 23.6962 11.7384 23.6497C11.7364 23.6474 11.7337 23.6453 11.7316 23.643L11.549 23.4355C8.82954 20.3055 7.46826 18.0159 7.5766 14.1871L7.58576 13.8705L7.28687 13.7654C6.56208 13.5086 6.07475 12.8209 6.07475 12.0537C6.07475 11.5078 6.31718 10.9959 6.73927 10.6493L7.02423 10.4157L6.83922 10.0964C6.6069 9.6947 6.48388 9.23903 6.48388 8.77917C6.48388 7.36334 7.5932 6.20844 9.00903 6.14912L9.5366 6.127L9.41319 5.61353C9.37066 5.4373 9.34949 5.2622 9.34949 5.09473C9.34949 4.96141 9.36417 4.83152 9.38725 4.70373C9.39279 4.67111 9.40194 4.64002 9.40881 4.60817C9.4315 4.5088 9.45973 4.41095 9.49521 4.31692C9.50475 4.29078 9.51486 4.26523 9.52573 4.23948C9.57303 4.1279 9.62682 4.01937 9.6911 3.91771C9.69377 3.91389 9.69548 3.9095 9.69796 3.9055C9.83796 3.68673 10.0165 3.49523 10.2219 3.33615C10.2501 3.31441 10.2801 3.29534 10.3091 3.27493C10.3787 3.22629 10.4508 3.18242 10.5254 3.14199C10.5723 3.11681 10.6192 3.09258 10.6682 3.07084C10.8967 2.96784 11.1434 2.8967 11.4052 2.87724L11.8065 2.84673V2.44294L11.8058 2.40899C11.8205 1.53084 12.5384 0.820353 13.42 0.820353C13.8127 0.820353 14.1949 0.96989 14.4957 1.24131L14.8003 1.51616L15.0922 1.22776C15.3987 0.924686 15.8196 0.779536 16.2553 0.831416C16.8006 0.895694 17.274 1.30253 17.4321 1.84365C17.4847 2.02218 17.5004 2.20376 17.479 2.38305L17.4342 2.86733H17.9229C19.1941 2.86733 20.2576 3.86106 20.345 5.12964L20.365 5.41479L20.6347 5.50958C21.9649 5.97593 22.8387 7.23498 22.8097 8.6426C22.7836 9.90642 21.9691 11.0594 20.7354 11.5805C20.1144 11.842 19.4842 11.8914 18.8094 11.7321Z" fill="#333333"/>
</g>
<defs>
<clipPath id="clip0_2_2056">
<rect width="25" height="25" fill="white"/>
</clipPath>
</defs>
</svg>
