<svg width="25" height="25" viewBox="0 0 25 25" fill="none" xmlns="http://www.w3.org/2000/svg">
<g opacity="0.5" clip-path="url(#clip0_2_2101)">
<path d="M24.6747 11.1945L22.4862 5.29191C22.2032 4.52992 21.4715 4.0178 20.6643 4.0178H18.1014C18.1014 1.80224 16.2992 0 14.0836 0C11.8679 0 10.0656 1.80224 10.0656 4.0178V6.24996C10.0656 7.97267 8.66356 9.37494 6.94066 9.37494C6.07778 9.37494 5.2952 9.02323 4.72911 8.45522C5.72245 8.324 6.49435 7.48076 6.49435 6.45214V2.9228C6.49435 1.80358 5.58359 0.892824 4.46456 0.892824H2.27436C1.15514 0.892824 0.244385 1.80358 0.244385 2.9228V6.45214C0.244385 7.57136 1.15514 8.48212 2.27436 8.48212H3.60244C4.32399 9.55805 5.55098 10.2678 6.94085 10.2678C9.15642 10.2678 10.9587 8.46552 10.9587 6.24996V4.018C10.9587 2.2951 12.3609 0.893015 14.0836 0.893015C15.8063 0.893015 17.2086 2.2951 17.2086 4.018H14.1992C13.392 4.018 12.6604 4.52992 12.3777 5.2921L10.1894 11.1942C10.1072 11.4148 10.0662 11.646 10.0662 11.8818V23.038C10.0662 24.1196 10.9384 25 12.0107 25H22.8532C23.9255 25 24.7977 24.1196 24.7977 23.038V11.8818C24.7979 11.646 24.7563 11.4146 24.6747 11.1945ZM2.27436 7.58929C1.64761 7.58929 1.13721 7.07908 1.13721 6.45214V2.9228C1.13721 2.29605 1.64761 1.78565 2.27436 1.78565H4.46456C5.09131 1.78565 5.60152 2.29605 5.60152 2.9228V6.45214C5.60152 7.07908 5.09131 7.58929 4.46456 7.58929H4.12162C3.92745 7.18265 3.81587 6.72947 3.81587 6.24996H2.92305C2.92305 6.72012 3.00831 7.16968 3.15746 7.58929H2.27436ZM18.1014 7.26695C18.3671 7.42183 18.548 7.70678 18.548 8.0358C18.548 8.52808 18.1474 8.92862 17.6549 8.92862C17.1627 8.92862 16.7621 8.52808 16.7621 8.0358C16.7621 7.70678 16.9429 7.42183 17.2086 7.26695V8.0358H18.1014V7.26695ZM22.8532 24.1072H12.0104C11.4302 24.1072 10.9587 23.6277 10.9587 23.038V20.7205L11.5358 21.2977L12.167 20.6666L10.9587 19.4581V16.2562L11.5358 16.8336L12.167 16.2023L10.9587 14.994V11.8819C10.9587 11.7528 10.9814 11.626 11.026 11.5051L13.2145 5.60242C13.368 5.18853 13.7636 4.91044 14.1988 4.91044H17.2086V6.3129C16.4407 6.5126 15.8693 7.20535 15.8693 8.03523C15.8693 9.01999 16.6702 9.82088 17.6549 9.82088C18.6399 9.82088 19.4408 9.01999 19.4408 8.03523C19.4408 7.20535 18.8691 6.5126 18.1014 6.3129V4.91082H20.6643C21.0996 4.91082 21.495 5.18891 21.6487 5.6028L23.8372 11.5058C23.8822 11.6264 23.9045 11.7532 23.9045 11.8821V15.4407L23.458 14.9941L22.2497 16.2026L22.8808 16.834L23.458 16.2566L23.9045 16.7031V19.905L23.458 19.4585L22.2497 20.6669L22.8808 21.2981L23.458 20.7209L23.9045 21.1672V23.0383C23.9051 23.6277 23.433 24.1072 22.8532 24.1072Z" fill="#333333"/>
<path d="M11.5358 22.8987L12.1671 23.53L12.7443 22.9528L13.3216 23.53L13.9528 22.8987L12.7443 21.6904L11.5358 22.8987Z" fill="#333333"/>
<path d="M14.6608 22.8987L15.2919 23.53L15.8691 22.9528L16.4464 23.53L17.0776 22.8987L15.8691 21.6904L14.6608 22.8987Z" fill="#333333"/>
<path d="M17.7856 22.8987L18.417 23.53L18.9941 22.9528L19.5715 23.53L20.2026 22.8987L18.9941 21.6904L17.7856 22.8987Z" fill="#333333"/>
<path d="M20.9105 22.8987L21.5419 23.53L22.119 22.9528L22.6964 23.53L23.3275 22.8987L22.119 21.6904L20.9105 22.8987Z" fill="#333333"/>
<path d="M12.7443 18.4886L13.3216 19.0658L13.9528 18.4346L12.7443 17.2261L11.5358 18.4346L12.1671 19.0658L12.7443 18.4886Z" fill="#333333"/>
<path d="M15.2919 19.0658L15.8691 18.4886L16.4464 19.0658L17.0776 18.4346L15.8691 17.2261L14.6608 18.4346L15.2919 19.0658Z" fill="#333333"/>
<path d="M18.417 19.0658L18.9941 18.4886L19.5715 19.0658L20.2026 18.4346L18.9941 17.2261L17.7856 18.4346L18.417 19.0658Z" fill="#333333"/>
<path d="M21.5419 19.0658L22.119 18.4886L22.6964 19.0658L23.3275 18.4346L22.119 17.2261L20.9105 18.4346L21.5419 19.0658Z" fill="#333333"/>
<path d="M15.2919 20.6665L14.0834 19.4578L12.8749 20.6665L13.5062 21.2977L14.0834 20.7205L14.6607 21.2977L15.2919 20.6665Z" fill="#333333"/>
<path d="M18.417 20.6665L17.2085 19.4578L16 20.6665L16.6313 21.2977L17.2085 20.7205L17.7857 21.2977L18.417 20.6665Z" fill="#333333"/>
<path d="M21.542 20.6665L20.3335 19.4578L19.125 20.6665L19.7561 21.2977L20.3335 20.7205L20.9107 21.2977L21.542 20.6665Z" fill="#333333"/>
<path d="M14.0834 16.2562L14.6607 16.8334L15.2919 16.2023L14.0834 14.9938L12.8749 16.2023L13.5062 16.8334L14.0834 16.2562Z" fill="#333333"/>
<path d="M17.2085 16.2562L17.7857 16.8334L18.417 16.2023L17.2085 14.9938L16 16.2023L16.6313 16.8334L17.2085 16.2562Z" fill="#333333"/>
<path d="M20.3335 16.2562L20.9107 16.8334L21.542 16.2023L20.3335 14.9938L19.125 16.2023L19.7561 16.8334L20.3335 16.2562Z" fill="#333333"/>
</g>
<defs>
<clipPath id="clip0_2_2101">
<rect width="25" height="25" fill="white"/>
</clipPath>
</defs>
</svg>
