<svg width="25" height="25" viewBox="0 0 25 25" fill="none" xmlns="http://www.w3.org/2000/svg">
<g opacity="0.5" clip-path="url(#clip0_2_2092)">
<path d="M7.71521 2.81075C7.54374 2.63909 7.26661 2.63909 7.09514 2.81075L2.27069 7.63501C2.09922 7.80667 2.09922 8.08381 2.27069 8.25528C2.35633 8.34073 2.46848 8.38365 2.58083 8.38365C2.69298 8.38365 2.80532 8.34073 2.89096 8.25528L7.71521 3.43083C7.88668 3.25936 7.88668 2.98165 7.71521 2.81075Z" fill="#333333"/>
<path d="M10.5663 4.34591C10.3946 4.17425 10.1175 4.17425 9.94603 4.34591L3.36739 10.9245C3.19573 11.0962 3.19573 11.3733 3.36739 11.5448C3.45284 11.6303 3.56519 11.6732 3.67734 11.6732C3.78968 11.6732 3.90202 11.6303 3.98747 11.5448L10.5663 4.96599C10.7378 4.79452 10.7378 4.51681 10.5663 4.34591Z" fill="#333333"/>
<path d="M17.8027 19.4767C17.6312 19.3053 17.3541 19.3053 17.1826 19.4767L14.5512 22.1083C14.3796 22.2798 14.3796 22.5571 14.5512 22.7284C14.6367 22.814 14.749 22.8569 14.8612 22.8569C14.9735 22.8569 15.0859 22.8138 15.1713 22.7284L17.8029 20.097C17.9742 19.9255 17.9742 19.6478 17.8027 19.4767Z" fill="#333333"/>
<path d="M17.8026 15.0911C17.6312 14.9197 17.354 14.9197 17.1825 15.0911L10.6037 21.67C10.4322 21.8414 10.4322 22.1186 10.6037 22.29C10.6893 22.3755 10.8017 22.4184 10.9138 22.4184C11.0262 22.4184 11.1383 22.3755 11.224 22.29L17.8028 15.7112C17.9741 15.5397 17.9741 15.2622 17.8026 15.0911Z" fill="#333333"/>
<path d="M5.30302 14.6148L16.2676 3.65019C16.4393 3.47872 16.4393 3.20139 16.2676 3.03011C16.0961 2.85845 15.819 2.85845 15.6475 3.03011L4.68295 13.9945C4.51128 14.166 4.51128 14.4433 4.68295 14.6146C4.76839 14.7002 4.88074 14.7432 4.99308 14.7432C5.10523 14.7433 5.21757 14.7002 5.30302 14.6148Z" fill="#333333"/>
<path d="M19.557 4.56513C19.3856 4.39366 19.1084 4.39366 18.937 4.56513L4.90231 18.5998C4.73064 18.7714 4.73064 19.0486 4.90231 19.2201C4.98775 19.3055 5.1001 19.3484 5.21225 19.3484C5.32459 19.3484 5.43694 19.3055 5.52238 19.2201L19.557 5.1854C19.7285 5.01393 19.7285 4.73622 19.557 4.56513Z" fill="#333333"/>
<path d="M20.873 7.63495C20.7013 7.46348 20.4242 7.46348 20.2527 7.63495L6.21808 21.6698C6.04661 21.8413 6.04661 22.1184 6.21808 22.2899C6.30353 22.3753 6.41587 22.4182 6.52822 22.4182C6.64037 22.4182 6.75271 22.3753 6.83816 22.2899L20.873 8.25522C21.0443 8.08375 21.0443 7.80604 20.873 7.63495Z" fill="#333333"/>
<path d="M24.9048 6.84965C24.4127 3.79407 22.0175 1.4446 18.9444 1.00248C18.3075 0.911307 17.6571 0.908255 17.0107 0.990271C16.1102 0.876212 15.2168 0.925803 14.3536 1.14553C12.5502 1.60444 10.6442 1.60444 8.84056 1.14515C7.93629 0.915313 6.9994 0.867057 6.05603 1.00248C3.014 1.43945 0.623331 3.75955 0.107203 6.77564C-0.28285 9.05397 0.402269 11.3031 1.98651 12.9461C2.90528 13.8992 3.41149 15.1096 3.41149 16.3544V21.351C3.41149 22.9023 4.67358 24.1646 6.22483 24.1646H18.5785C20.1302 24.1646 21.3924 22.9023 21.3924 21.351V16.5485C21.3924 15.2675 21.9332 14.0232 22.9147 13.0447C24.5508 11.4136 25.2762 9.15621 24.9048 6.84965ZM4.28868 21.3507V16.3542C4.28868 14.8815 3.69511 13.4548 2.61803 12.3373C1.22949 10.8974 0.629434 8.92408 0.971994 6.92365C1.42384 4.28388 3.51678 2.25313 6.18077 1.87089C6.48823 1.82607 6.79436 1.80452 7.09877 1.80452C7.61528 1.80452 8.1255 1.86822 8.62408 1.99506C10.5682 2.49021 12.6244 2.49059 14.5695 1.99544C15.344 1.79861 16.1467 1.75684 16.9577 1.86613C16.9584 1.86613 16.959 1.86651 16.9598 1.86651L17.0141 1.87147C19.7054 2.25828 21.8027 4.31478 22.2334 6.98965C22.5597 9.01373 21.9242 10.9943 20.4899 12.4237C20.2032 12.7096 19.9484 13.0157 19.7273 13.3377C19.0651 14.3036 18.7094 15.4117 18.7094 16.5485V21.351C18.7094 22.419 17.841 23.2874 16.773 23.2874H6.22502C5.15709 23.287 4.28868 22.4186 4.28868 21.3507ZM22.2956 12.4233C21.1473 13.5675 20.5154 15.0324 20.5154 16.5481V21.3507C20.5154 22.3339 19.7784 23.1483 18.8282 23.2712C18.8496 23.2479 18.8688 23.2225 18.89 23.1989C18.9163 23.1689 18.9426 23.1392 18.9676 23.1081C18.9978 23.0699 19.0264 23.0305 19.0548 22.991C19.0781 22.9589 19.1017 22.9269 19.1233 22.8941C19.1503 22.8529 19.1753 22.8098 19.2003 22.7669C19.2202 22.7331 19.2404 22.7001 19.2587 22.6656C19.2823 22.6208 19.3035 22.5744 19.3249 22.5282C19.3411 22.4932 19.3582 22.459 19.3731 22.4235C19.393 22.3757 19.4096 22.3261 19.4271 22.2769C19.4399 22.241 19.4534 22.2063 19.4643 22.17C19.4801 22.1174 19.4929 22.0638 19.5057 22.0098C19.5139 21.9753 19.524 21.941 19.5311 21.9055C19.5433 21.8447 19.5513 21.7823 19.5597 21.7201C19.5635 21.6907 19.5696 21.6617 19.5723 21.632C19.5816 21.5393 19.5867 21.4454 19.5867 21.3503V16.5487C19.5867 15.7478 19.7981 14.9614 20.196 14.2452C20.4349 13.8153 20.7411 13.4109 21.109 13.044C22.7449 11.4134 23.4703 9.15544 23.0989 6.84927C23.0638 6.63183 23.0165 6.41859 22.9626 6.20859C22.9458 6.14374 22.9256 6.08061 22.9072 6.01595C22.8655 5.87003 22.8199 5.72603 22.7695 5.58489C22.7446 5.51508 22.7186 5.44622 22.6915 5.37794C22.6366 5.23889 22.5771 5.10252 22.5138 4.96786C22.4861 4.90854 22.4598 4.84884 22.4306 4.79009C22.3415 4.61385 22.2467 4.44143 22.1437 4.27396C22.1367 4.26252 22.131 4.25069 22.1239 4.23925C22.0121 4.05939 21.8906 3.88658 21.7634 3.71816C21.7293 3.67296 21.6925 3.63042 21.6574 3.58617C21.5609 3.46525 21.4619 3.3468 21.3573 3.23274C21.3118 3.18277 21.2652 3.13413 21.2183 3.0853C21.114 2.97716 21.006 2.87302 20.895 2.77174C20.8496 2.73016 20.8048 2.688 20.7582 2.64757C20.6135 2.52264 20.4639 2.40285 20.3093 2.29013C20.2969 2.28136 20.2864 2.27087 20.2742 2.26209C22.2439 3.05727 23.6895 4.81985 24.0385 6.98908C24.3648 9.01315 23.7293 10.9939 22.2956 12.4233Z" fill="#333333"/>
</g>
<defs>
<clipPath id="clip0_2_2092">
<rect width="25" height="25" fill="white"/>
</clipPath>
</defs>
</svg>
