<svg width="25" height="25" viewBox="0 0 25 25" fill="none" xmlns="http://www.w3.org/2000/svg">
<g opacity="0.5" clip-path="url(#clip0_2_2086)">
<path d="M16.9311 18.1545L16.9337 18.154L16.8893 17.6029C16.8139 16.6733 16.5687 15.6969 16.1183 14.5311C15.9911 14.2019 15.9202 13.8302 15.8916 13.4548C15.8282 12.6257 15.9917 11.7737 16.3644 11.2919C16.4371 11.1977 16.4973 11.0926 16.557 10.9869C16.8071 10.5455 16.9467 10.0168 16.9446 9.45606V9.45511C16.944 9.41067 16.9423 9.36966 16.9396 9.32846L16.9208 8.69198L16.9086 8.69522C16.631 5.44834 14.7206 4.58927 14.0906 4.38843C14.0363 4.29363 13.9613 4.10919 13.9106 3.76778C13.907 3.74222 13.898 3.71933 13.8927 3.69453C14.379 3.53241 14.7319 3.26118 14.7319 2.84405V1.04771C14.7319 0.274277 13.5226 0 12.4866 0C11.4505 0 10.241 0.274277 10.241 1.04771V2.84405C10.241 3.26138 10.5941 3.53203 11.0799 3.69415C11.0742 3.71838 11.0656 3.74184 11.062 3.76701C11.0112 4.11015 10.9363 4.2942 10.8653 4.39835C10.2506 4.58965 8.34094 5.44834 8.064 8.69579L8.04779 8.69122L8.0331 9.33437C8.03081 9.37386 8.0289 9.41334 8.02852 9.45606C8.02452 10.1513 8.2307 10.8034 8.60874 11.2928C8.94691 11.7302 9.118 12.4735 9.09873 13.2275C9.0911 13.5294 9.05296 13.8325 8.98334 14.1186C8.94824 14.2612 8.90571 14.4001 8.8544 14.5321C8.74168 14.8235 8.64192 15.103 8.55438 15.3728C8.29173 16.1825 8.13991 16.906 8.08326 17.6039C7.94689 19.2928 7.821 21.6364 7.99476 23.2309C8.01097 24.0448 8.77315 25 12.2617 25C15.1902 25 16.9484 24.3395 16.9772 23.2315C17.1336 21.8012 17.0487 19.7752 16.9311 18.1545ZM9.03846 17.2096C9.05048 17.127 9.06078 17.0448 9.07623 16.9603C9.09988 16.827 9.13135 16.6891 9.1632 16.5512C9.18208 16.4686 9.1983 16.3877 9.21985 16.3033C9.25933 16.1497 9.30835 15.9893 9.35775 15.8287C9.38064 15.7537 9.39952 15.6818 9.4247 15.605C9.50366 15.3643 9.59216 15.1155 9.69268 14.855C10.057 13.9118 10.0822 12.7573 9.82219 11.8191C9.70756 11.4069 9.5441 11.0323 9.31998 10.7428C9.31731 10.7391 9.31522 10.7346 9.31236 10.7309C9.25857 10.66 9.21146 10.5824 9.16835 10.5015C9.15481 10.4759 9.1426 10.4494 9.13059 10.4233C9.09873 10.3559 9.07089 10.2856 9.04609 10.2127C9.03751 10.1875 9.02816 10.1629 9.02053 10.1374C8.99364 10.0456 8.97285 9.95007 8.95759 9.85222C9.96944 10.0645 11.1972 10.1799 12.4869 10.1799C13.7767 10.1799 15.0041 10.0645 16.0159 9.8526C16.0007 9.95102 15.9795 10.0462 15.9528 10.1377C15.945 10.1633 15.9356 10.1881 15.927 10.2133C15.9028 10.2859 15.8746 10.3556 15.8431 10.4229C15.8305 10.4494 15.8185 10.4763 15.805 10.5021C15.7596 10.5873 15.7107 10.6689 15.6535 10.7431C15.1952 11.3363 14.9592 12.2643 14.9751 13.2082C14.9846 13.7745 15.0842 14.3467 15.2808 14.8554C15.3819 15.1169 15.4704 15.3656 15.5494 15.6069C15.5742 15.6818 15.5921 15.7515 15.6146 15.8247C15.6644 15.9872 15.7138 16.1489 15.7538 16.3038C15.7758 16.3897 15.792 16.4713 15.8113 16.5552C15.8423 16.6914 15.8732 16.827 15.8971 16.9586C15.9131 17.0475 15.924 17.1337 15.9366 17.2209C15.9492 17.3061 15.9595 17.3916 15.969 17.4755C14.9943 17.695 13.7755 17.8141 12.4871 17.8141C11.1987 17.8141 9.97993 17.6947 9.00546 17.4755C9.01462 17.3874 9.0253 17.2989 9.03846 17.2096ZM11.1396 1.14555C11.2815 1.05705 11.7284 0.89817 12.4869 0.89817C13.2455 0.89817 13.6924 1.05705 13.8343 1.14555V2.7462C13.7185 2.81792 13.3956 2.93655 12.8688 2.97794C12.6205 2.99587 12.3527 2.99587 12.1053 2.97794C11.579 2.93655 11.2556 2.81792 11.1398 2.7462V1.14555H11.1396ZM11.1329 5.25608C11.3593 5.1857 11.547 5.03559 11.6614 4.83494C11.7963 4.60033 11.8938 4.28524 11.9794 3.87077C11.9912 3.87154 12.0046 3.87115 12.0168 3.87211C12.1743 3.88508 12.3324 3.89175 12.4869 3.89175C12.663 3.89175 12.8322 3.88412 13.0221 3.89805C13.0792 4.28391 13.1766 4.59919 13.3115 4.83398C13.4263 5.03559 13.6146 5.18513 13.8413 5.2557C14.3254 5.406 15.8416 6.10676 16.0272 8.9283C15.0441 9.15604 13.8051 9.28078 12.4873 9.28078C11.1703 9.28078 9.9311 9.15604 8.94767 8.92792C9.1323 6.10676 10.6488 5.40657 11.1329 5.25608ZM16.0829 23.1537L16.0802 23.2031C16.0802 23.4335 15.1403 24.1013 12.2624 24.1013C9.5975 24.1013 8.89331 23.5134 8.89331 23.2031L8.89064 23.1537C8.74378 21.8344 8.8174 19.9379 8.92707 18.3764C9.94598 18.5932 11.1856 18.7122 12.4869 18.7122C13.7883 18.7122 15.0279 18.5932 16.0468 18.3764C16.1559 19.9369 16.2297 21.8327 16.0829 23.1537Z" fill="#333333"/>
<path d="M12.4026 2.18718C12.6509 2.18718 12.8517 1.98634 12.8517 1.738C12.8517 1.48966 12.6509 1.28882 12.4026 1.28882H11.9536C11.705 1.28882 11.5044 1.48966 11.5044 1.738C11.5044 1.98634 11.705 2.18718 11.9536 2.18718H12.4026Z" fill="#333333"/>
<path d="M11.7959 22.3009C10.9491 22.3341 10.6441 22.1361 10.5529 22.0482C10.474 21.9723 10.4658 21.9013 10.4637 21.9013C10.4637 21.9013 10.4637 21.9017 10.4631 21.9027L10.4663 21.4069C10.4663 21.1584 10.2655 20.9578 10.0172 20.9578C9.76882 20.9578 9.56817 21.1584 9.56817 21.4069V21.8327C9.55425 22.0446 9.62653 22.3705 9.8783 22.6431C10.2233 23.015 10.8053 23.2027 11.6119 23.2027C11.6828 23.2027 11.7561 23.2014 11.8307 23.1983C12.0784 23.1888 12.2713 22.9801 12.2617 22.7322C12.2524 22.4836 12.0246 22.2906 11.7959 22.3009Z" fill="#333333"/>
<path d="M10.017 20.5086C10.2653 20.5086 10.4662 20.3079 10.4662 20.0596V19.606C10.4662 19.3577 10.2653 19.1569 10.017 19.1569C9.76865 19.1569 9.56799 19.3577 9.56799 19.606V20.0596C9.56799 20.3079 9.76865 20.5086 10.017 20.5086Z" fill="#333333"/>
<path d="M10.3865 8.37572C10.414 8.38068 10.4399 8.38297 10.4664 8.38297C10.6802 8.38297 10.8687 8.23019 10.9078 8.01333C11.0871 7.01063 11.9726 6.56011 12.0104 6.54123C12.2322 6.43251 12.3247 6.16491 12.2174 5.94213C12.1096 5.71992 11.8429 5.62646 11.6175 5.73328C11.5635 5.75979 10.2854 6.39265 10.0235 7.85482C9.98003 8.09858 10.1425 8.33224 10.3865 8.37572Z" fill="#333333"/>
</g>
<defs>
<clipPath id="clip0_2_2086">
<rect width="25" height="25" fill="white"/>
</clipPath>
</defs>
</svg>
